<?xml version="1.0" encoding="utf-8"?>
<svg version="1.1" xmlns:xlink="http://www.w3.org/1999/xlink" width="20px" height="20px" xmlns="http://www.w3.org/2000/svg">
  <g transform="matrix(1 0 0 1 -988 -105 )">
    <path d="M 11.25 16.7447916666667  C 11.4756944444444 16.7447916666667  11.6710069444444 16.6623263888889  11.8359375 16.4973958333333  L 13.1640625 15.1692708333333  C 13.3289930555556 15.0043402777778  13.4114583333333 14.8090277777778  13.4114583333333 14.5833333333333  C 13.4114583333333 14.3576388888889  13.3289930555556 14.1623263888889  13.1640625 13.9973958333333  L 9.16666666666667 10  L 13.1640625 6.00260416666667  C 13.3289930555556 5.83767361111111  13.4114583333333 5.64236111111111  13.4114583333333 5.41666666666667  C 13.4114583333333 5.19097222222222  13.3289930555556 4.99565972222222  13.1640625 4.83072916666667  L 11.8359375 3.50260416666667  C 11.6710069444444 3.33767361111111  11.4756944444444 3.25520833333333  11.25 3.25520833333333  C 11.0243055555556 3.25520833333333  10.8289930555556 3.33767361111111  10.6640625 3.50260416666667  L 4.75260416666667 9.4140625  C 4.58767361111111 9.57899305555556  4.50520833333333 9.77430555555556  4.50520833333333 10  C 4.50520833333333 10.2256944444444  4.58767361111111 10.4210069444444  4.75260416666667 10.5859375  L 10.6640625 16.4973958333333  C 10.8289930555556 16.6623263888889  11.0243055555556 16.7447916666667  11.25 16.7447916666667  Z M 18.6588541666667 4.98046875  C 19.5529513888889 6.51258680555555  20 8.18576388888889  20 10  C 20 11.8142361111111  19.5529513888889 13.4874131944444  18.6588541666667 15.01953125  C 17.7647569444444 16.5516493055556  16.5516493055556 17.7647569444444  15.01953125 18.6588541666667  C 13.4874131944444 19.5529513888889  11.8142361111111 20  10 20  C 8.18576388888889 20  6.51258680555556 19.5529513888889  4.98046875 18.6588541666667  C 3.44835069444444 17.7647569444444  2.23524305555556 16.5516493055556  1.34114583333333 15.01953125  C 0.447048611111111 13.4874131944444  0 11.8142361111111  0 10  C 0 8.18576388888889  0.447048611111111 6.51258680555555  1.34114583333333 4.98046875  C 2.23524305555556 3.44835069444444  3.44835069444444 2.23524305555555  4.98046875 1.34114583333333  C 6.51258680555556 0.447048611111109  8.18576388888889 0  10 0  C 11.8142361111111 0  13.4874131944444 0.447048611111109  15.01953125 1.34114583333333  C 16.5516493055556 2.23524305555555  17.7647569444444 3.44835069444444  18.6588541666667 4.98046875  Z " fill-rule="nonzero" fill="#7f7f7f" stroke="none" transform="matrix(1 0 0 1 988 105 )" />
  </g>
</svg>