<?xml version="1.0" encoding="utf-8"?>
<svg version="1.1" xmlns:xlink="http://www.w3.org/1999/xlink" width="20px" height="20px" xmlns="http://www.w3.org/2000/svg">
  <g transform="matrix(1 0 0 1 -1018 -105 )">
    <path d="M 8.75 16.7447916666667  C 8.52430555555556 16.7447916666667  8.32899305555556 16.6623263888889  8.1640625 16.4973958333333  L 6.8359375 15.1692708333333  C 6.67100694444444 15.0043402777778  6.58854166666667 14.8090277777778  6.58854166666667 14.5833333333333  C 6.58854166666667 14.3576388888889  6.67100694444444 14.1623263888889  6.8359375 13.9973958333333  L 10.8333333333333 10  L 6.8359375 6.00260416666667  C 6.67100694444444 5.83767361111111  6.58854166666667 5.64236111111111  6.58854166666667 5.41666666666667  C 6.58854166666667 5.19097222222222  6.67100694444444 4.99565972222222  6.8359375 4.83072916666667  L 8.1640625 3.50260416666667  C 8.32899305555556 3.33767361111111  8.52430555555556 3.25520833333333  8.75 3.25520833333333  C 8.97569444444444 3.25520833333333  9.17100694444444 3.33767361111111  9.3359375 3.50260416666667  L 15.2473958333333 9.4140625  C 15.4123263888889 9.57899305555556  15.4947916666667 9.77430555555556  15.4947916666667 10  C 15.4947916666667 10.2256944444444  15.4123263888889 10.4210069444444  15.2473958333333 10.5859375  L 9.3359375 16.4973958333333  C 9.17100694444444 16.6623263888889  8.97569444444444 16.7447916666667  8.75 16.7447916666667  Z M 1.34114583333333 4.98046875  C 0.447048611111114 6.51258680555555  0 8.18576388888889  0 10  C 0 11.8142361111111  0.447048611111114 13.4874131944444  1.34114583333333 15.01953125  C 2.23524305555555 16.5516493055556  3.44835069444444 17.7647569444444  4.98046875 18.6588541666667  C 6.51258680555555 19.5529513888889  8.18576388888889 20  10 20  C 11.8142361111111 20  13.4874131944444 19.5529513888889  15.01953125 18.6588541666667  C 16.5516493055556 17.7647569444444  17.7647569444444 16.5516493055556  18.6588541666667 15.01953125  C 19.5529513888889 13.4874131944444  20 11.8142361111111  20 10  C 20 8.18576388888889  19.5529513888889 6.51258680555555  18.6588541666667 4.98046875  C 17.7647569444444 3.44835069444444  16.5516493055556 2.23524305555555  15.01953125 1.34114583333333  C 13.4874131944444 0.447048611111109  11.8142361111111 0  10 0  C 8.18576388888889 0  6.51258680555555 0.447048611111109  4.98046875 1.34114583333333  C 3.44835069444444 2.23524305555555  2.23524305555555 3.44835069444444  1.34114583333333 4.98046875  Z " fill-rule="nonzero" fill="#7f7f7f" stroke="none" transform="matrix(1 0 0 1 1018 105 )" />
  </g>
</svg>