<?xml version="1.0" encoding="utf-8"?>
<svg version="1.1" xmlns:xlink="http://www.w3.org/1999/xlink" width="334px" height="50px" xmlns="http://www.w3.org/2000/svg">
  <g transform="matrix(1 0 0 1 -486 -207 )">
    <path d="M 486 236.422391343351  C 486 236.422391343351  486 212  486 212  C 486 209.238576250846  488.238576250846 207  491 207  C 491 207  815 207  815 207  C 817.761423749154 207  820 209.238576250846  820 212  C 820 212  820 236.422391343351  820 236.422391343351  C 820 239.183815092505  817.761423749154 241.422391343351  815 241.422391343351  C 815 241.422391343351  561.140372670807 241.422391343351  561.140372670807 241.422391343351  C 561.140372670807 241.422391343351  553.125 256.875  553.125 256.875  C 553.125 256.875  541.140372670807 241.422391343351  541.140372670807 241.422391343351  C 541.140372670807 241.422391343351  491 241.422391343351  491 241.422391343351  C 488.238576250846 241.422391343351  486 239.183815092505  486 236.422391343351  Z " fill-rule="nonzero" fill="#000000" stroke="none" fill-opacity="0.8" />
  </g>
</svg>