<?xml version="1.0" encoding="utf-8"?>
<svg version="1.1" xmlns:xlink="http://www.w3.org/1999/xlink" width="16px" height="16px" viewBox="69 216  16 16" xmlns="http://www.w3.org/2000/svg">
  <path d="M 69.5 219  A 2.5 2.5 0 0 1 72 216.5 L 82 216.5  A 2.5 2.5 0 0 1 84.5 219 L 84.5 229  A 2.5 2.5 0 0 1 82 231.5 L 72 231.5  A 2.5 2.5 0 0 1 69.5 229 L 69.5 219  Z " fill-rule="nonzero" fill="#f0f0f0" stroke="none" />
  <path d="M 69.5 219  A 2.5 2.5 0 0 1 72 216.5 L 82 216.5  A 2.5 2.5 0 0 1 84.5 219 L 84.5 229  A 2.5 2.5 0 0 1 82 231.5 L 72 231.5  A 2.5 2.5 0 0 1 69.5 229 L 69.5 219  Z " stroke-width="1" stroke="#797979" fill="none" />
  <path d="M 72.4285714285714 224  L 75.8571428571429 227.428571428571  " stroke-width="3.42857142857143" stroke="#797979" fill="none" />
  <path d="M 75.8571428571429 227.428571428571  L 81.5714285714286 219.428571428571  " stroke-width="3.42857142857143" stroke="#797979" fill="none" />
</svg>