<?xml version="1.0" encoding="utf-8"?>
<svg version="1.1" xmlns:xlink="http://www.w3.org/1999/xlink" width="104px" height="100px" xmlns="http://www.w3.org/2000/svg">
  <g transform="matrix(1 0 0 1 -251 -412 )">
    <path d="M 252 416  A 3 3 0 0 1 255 413 L 351 413  A 3 3 0 0 1 354 416 L 354 508  A 3 3 0 0 1 351 511 L 255 511  A 3 3 0 0 1 252 508 L 252 416  Z " fill-rule="nonzero" fill="#ffffff" stroke="none" />
    <path d="M 251.5 416  A 3.5 3.5 0 0 1 255 412.5 L 351 412.5  A 3.5 3.5 0 0 1 354.5 416 L 354.5 508  A 3.5 3.5 0 0 1 351 511.5 L 255 511.5  A 3.5 3.5 0 0 1 251.5 508 L 251.5 416  Z " stroke-width="1" stroke-dasharray="9,4" stroke="#d9d9d9" fill="none" stroke-dashoffset="0.5" />
  </g>
</svg>