<?xml version="1.0" encoding="utf-8"?>
<svg version="1.1" xmlns:xlink="http://www.w3.org/1999/xlink" width="12px" height="12px" viewBox="137 315  12 12" xmlns="http://www.w3.org/2000/svg">
  <path d="M 143 315  C 146.36 315  149 317.64  149 321  C 149 324.36  146.36 327  143 327  C 139.64 327  137 324.36  137 321  C 137 317.64  139.64 315  143 315  Z " fill-rule="nonzero" fill="#f0f0f0" stroke="none" />
  <path d="M 143 315.5  C 146.08 315.5  148.5 317.92  148.5 321  C 148.5 324.08  146.08 326.5  143 326.5  C 139.92 326.5  137.5 324.08  137.5 321  C 137.5 317.92  139.92 315.5  143 315.5  Z " stroke-width="1" stroke="#797979" fill="none" />
  <path d="M 143 324  C 141.32 324  140 322.68  140 321  C 140 319.32  141.32 318  143 318  C 144.68 318  146 319.32  146 321  C 146 322.68  144.68 324  143 324  " fill-rule="nonzero" fill="#797979" stroke="none" />
</svg>