<?xml version="1.0" encoding="utf-8"?>
<svg version="1.1" xmlns:xlink="http://www.w3.org/1999/xlink" width="16px" height="16px" viewBox="71 262  16 16" xmlns="http://www.w3.org/2000/svg">
  <path d="M 71.5 265  A 2.5 2.5 0 0 1 74 262.5 L 84 262.5  A 2.5 2.5 0 0 1 86.5 265 L 86.5 275  A 2.5 2.5 0 0 1 84 277.5 L 74 277.5  A 2.5 2.5 0 0 1 71.5 275 L 71.5 265  Z " fill-rule="nonzero" fill="#f0f0f0" stroke="none" />
  <path d="M 71.5 265  A 2.5 2.5 0 0 1 74 262.5 L 84 262.5  A 2.5 2.5 0 0 1 86.5 265 L 86.5 275  A 2.5 2.5 0 0 1 84 277.5 L 74 277.5  A 2.5 2.5 0 0 1 71.5 275 L 71.5 265  Z " stroke-width="1" stroke="#797979" fill="none" />
</svg>