<?xml version="1.0" encoding="utf-8"?>
<svg version="1.1" xmlns:xlink="http://www.w3.org/1999/xlink" width="16px" height="16px" viewBox="71 299  16 16" xmlns="http://www.w3.org/2000/svg">
  <path d="M 71.5 302  A 2.5 2.5 0 0 1 74 299.5 L 84 299.5  A 2.5 2.5 0 0 1 86.5 302 L 86.5 312  A 2.5 2.5 0 0 1 84 314.5 L 74 314.5  A 2.5 2.5 0 0 1 71.5 312 L 71.5 302  Z " fill-rule="nonzero" fill="#f0f0f0" stroke="none" />
  <path d="M 71.5 302  A 2.5 2.5 0 0 1 74 299.5 L 84 299.5  A 2.5 2.5 0 0 1 86.5 302 L 86.5 312  A 2.5 2.5 0 0 1 84 314.5 L 74 314.5  A 2.5 2.5 0 0 1 71.5 312 L 71.5 302  Z " stroke-width="1" stroke="#797979" fill="none" />
  <path d="M 74.4285714285714 307  L 77.8571428571429 310.428571428571  " stroke-width="3.42857142857143" stroke="#797979" fill="none" />
  <path d="M 77.8571428571429 310.428571428571  L 83.5714285714286 302.428571428571  " stroke-width="3.42857142857143" stroke="#797979" fill="none" />
</svg>