<?xml version="1.0" encoding="utf-8"?>
<svg version="1.1" xmlns:xlink="http://www.w3.org/1999/xlink" width="40px" height="40px" xmlns="http://www.w3.org/2000/svg">
  <defs>
    <filter x="1184px" y="222px" width="40px" height="40px" filterUnits="userSpaceOnUse" id="filter332">
      <feOffset dx="1" dy="1" in="SourceAlpha" result="shadowOffsetInner" />
      <feGaussianBlur stdDeviation="2.5" in="shadowOffsetInner" result="shadowGaussian" />
      <feComposite in2="shadowGaussian" operator="atop" in="SourceAlpha" result="shadowComposite" />
      <feColorMatrix type="matrix" values="0 0 0 0 0  0 0 0 0 0  0 0 0 0 0  0 0 0 0.698039215686274 0  " in="shadowComposite" />
    </filter>
    <g id="widget333">
      <path d="M 1203 226  C 1211.4 226  1218 232.6  1218 241  C 1218 249.4  1211.4 256  1203 256  C 1194.6 256  1188 249.4  1188 241  C 1188 232.6  1194.6 226  1203 226  Z " fill-rule="nonzero" fill="#f59a23" stroke="none" />
      <path d="M 1203 226.5  C 1211.12 226.5  1217.5 232.88  1217.5 241  C 1217.5 249.12  1211.12 255.5  1203 255.5  C 1194.88 255.5  1188.5 249.12  1188.5 241  C 1188.5 232.88  1194.88 226.5  1203 226.5  Z " stroke-width="1" stroke="#ffffff" fill="none" />
    </g>
  </defs>
  <g transform="matrix(1 0 0 1 -1184 -222 )">
    <use xlink:href="#widget333" filter="url(#filter332)" />
    <use xlink:href="#widget333" />
  </g>
</svg>