<?xml version="1.0" encoding="utf-8"?>
<svg version="1.1" xmlns:xlink="http://www.w3.org/1999/xlink" width="232px" height="83px" xmlns="http://www.w3.org/2000/svg">
  <defs>
    <mask fill="white" id="clip255">
      <path d="M 227 17  C 229.761423749154 16.5567795000434  232 20.2728160764478  232 24.8567795000434  L 232 74.7  C 232 79.2839634235956  229.761423749154 83  227 83  L 5 83  C 2.23857625084602 83  0 79.2839634235956  0 74.7  L 0 24.8567795000434  C 0 20.2728160764478  2.23857625084602 16.5567795000434  5 17  L 35.232298136646 17  L 45.857225672878 0.731404593478856  L 56.7463354037266 17  L 227 17  Z " fill-rule="evenodd" />
    </mask>
  </defs>
  <g transform="matrix(1 0 0 1 -895 -197 )">
    <path d="M 227 17  C 229.761423749154 16.5567795000434  232 20.2728160764478  232 24.8567795000434  L 232 74.7  C 232 79.2839634235956  229.761423749154 83  227 83  L 5 83  C 2.23857625084602 83  0 79.2839634235956  0 74.7  L 0 24.8567795000434  C 0 20.2728160764478  2.23857625084602 16.5567795000434  5 17  L 35.232298136646 17  L 45.857225672878 0.731404593478856  L 56.7463354037266 17  L 227 17  Z " fill-rule="nonzero" fill="#ffffff" stroke="none" fill-opacity="0.8" transform="matrix(1 0 0 1 895 197 )" />
    <path d="M 227 17  C 229.761423749154 16.5567795000434  232 20.2728160764478  232 24.8567795000434  L 232 74.7  C 232 79.2839634235956  229.761423749154 83  227 83  L 5 83  C 2.23857625084602 83  0 79.2839634235956  0 74.7  L 0 24.8567795000434  C 0 20.2728160764478  2.23857625084602 16.5567795000434  5 17  L 35.232298136646 17  L 45.857225672878 0.731404593478856  L 56.7463354037266 17  L 227 17  Z " stroke-width="2" stroke="#e4e4e4" fill="none" transform="matrix(1 0 0 1 895 197 )" mask="url(#clip255)" />
  </g>
</svg>