<?xml version="1.0" encoding="utf-8"?>
<svg version="1.1" xmlns:xlink="http://www.w3.org/1999/xlink" width="16px" height="17px" xmlns="http://www.w3.org/2000/svg">
  <g transform="matrix(1 0 0 1 -462 -186 )">
    <path d="M 15.6818181818182 6.51988636363636  C 15.8939393939394 6.74526515151515  16 7.01893939393939  16 7.34090909090909  L 16 9.65909090909091  C 16 9.98106060606061  15.8939393939394 10.2547348484848  15.6818181818182 10.4801136363636  C 15.469696969697 10.7054924242424  15.2121212121212 10.8181818181818  14.9090909090909 10.8181818181818  L 10.1818181818182 10.8181818181818  L 10.1818181818182 15.8409090909091  C 10.1818181818182 16.1628787878788  10.0757575757576 16.436553030303  9.86363636363636 16.6619318181818  C 9.65151515151515 16.8873106060606  9.39393939393939 17  9.09090909090909 17  L 6.90909090909091 17  C 6.60606060606061 17  6.34848484848485 16.8873106060606  6.13636363636364 16.6619318181818  C 5.92424242424242 16.436553030303  5.81818181818182 16.1628787878788  5.81818181818182 15.8409090909091  L 5.81818181818182 10.8181818181818  L 1.09090909090909 10.8181818181818  C 0.787878787878788 10.8181818181818  0.53030303030303 10.7054924242424  0.318181818181818 10.4801136363636  C 0.106060606060606 10.2547348484848  0 9.98106060606061  0 9.65909090909091  L 0 7.34090909090909  C 0 7.01893939393939  0.106060606060606 6.74526515151515  0.318181818181818 6.51988636363636  C 0.53030303030303 6.29450757575758  0.787878787878788 6.18181818181818  1.09090909090909 6.18181818181818  L 5.81818181818182 6.18181818181818  L 5.81818181818182 1.15909090909091  C 5.81818181818182 0.837121212121211  5.92424242424242 0.563446969696969  6.13636363636364 0.338068181818182  C 6.34848484848485 0.112689393939393  6.60606060606061 0  6.90909090909091 0  L 9.09090909090909 0  C 9.39393939393939 0  9.65151515151515 0.112689393939393  9.86363636363636 0.338068181818182  C 10.0757575757576 0.563446969696969  10.1818181818182 0.837121212121211  10.1818181818182 1.15909090909091  L 10.1818181818182 6.18181818181818  L 14.9090909090909 6.18181818181818  C 15.2121212121212 6.18181818181818  15.469696969697 6.29450757575758  15.6818181818182 6.51988636363636  Z " fill-rule="nonzero" fill="#81d3f8" stroke="none" transform="matrix(1 0 0 1 462 186 )" />
  </g>
</svg>