<?xml version="1.0" encoding="utf-8"?>
<svg version="1.1" xmlns:xlink="http://www.w3.org/1999/xlink" width="16px" height="16px" viewBox="62 257  16 16" xmlns="http://www.w3.org/2000/svg">
  <path d="M 62.5 260  A 2.5 2.5 0 0 1 65 257.5 L 75 257.5  A 2.5 2.5 0 0 1 77.5 260 L 77.5 270  A 2.5 2.5 0 0 1 75 272.5 L 65 272.5  A 2.5 2.5 0 0 1 62.5 270 L 62.5 260  Z " fill-rule="nonzero" fill="#f0f0f0" stroke="none" />
  <path d="M 62.5 260  A 2.5 2.5 0 0 1 65 257.5 L 75 257.5  A 2.5 2.5 0 0 1 77.5 260 L 77.5 270  A 2.5 2.5 0 0 1 75 272.5 L 65 272.5  A 2.5 2.5 0 0 1 62.5 270 L 62.5 260  Z " stroke-width="1" stroke="#797979" fill="none" />
  <path d="M 65.4285714285714 265  L 68.8571428571429 268.428571428571  " stroke-width="3.42857142857143" stroke="#797979" fill="none" />
  <path d="M 68.8571428571429 268.428571428571  L 74.5714285714286 260.428571428571  " stroke-width="3.42857142857143" stroke="#797979" fill="none" />
</svg>