<?xml version="1.0" encoding="utf-8"?>
<svg version="1.1" xmlns:xlink="http://www.w3.org/1999/xlink" width="16px" height="16px" viewBox="62 316  16 16" xmlns="http://www.w3.org/2000/svg">
  <path d="M 62.5 319  A 2.5 2.5 0 0 1 65 316.5 L 75 316.5  A 2.5 2.5 0 0 1 77.5 319 L 77.5 329  A 2.5 2.5 0 0 1 75 331.5 L 65 331.5  A 2.5 2.5 0 0 1 62.5 329 L 62.5 319  Z " fill-rule="nonzero" fill="#f0f0f0" stroke="none" />
  <path d="M 62.5 319  A 2.5 2.5 0 0 1 65 316.5 L 75 316.5  A 2.5 2.5 0 0 1 77.5 319 L 77.5 329  A 2.5 2.5 0 0 1 75 331.5 L 65 331.5  A 2.5 2.5 0 0 1 62.5 329 L 62.5 319  Z " stroke-width="1" stroke="#797979" fill="none" />
  <path d="M 65.4285714285714 324  L 68.8571428571429 327.428571428571  " stroke-width="3.42857142857143" stroke="#797979" fill="none" />
  <path d="M 68.8571428571429 327.428571428571  L 74.5714285714286 319.428571428571  " stroke-width="3.42857142857143" stroke="#797979" fill="none" />
</svg>