<?xml version="1.0" encoding="utf-8"?>
<svg version="1.1" xmlns:xlink="http://www.w3.org/1999/xlink" width="16px" height="16px" viewBox="62 227  16 16" xmlns="http://www.w3.org/2000/svg">
  <path d="M 62.5 230  A 2.5 2.5 0 0 1 65 227.5 L 75 227.5  A 2.5 2.5 0 0 1 77.5 230 L 77.5 240  A 2.5 2.5 0 0 1 75 242.5 L 65 242.5  A 2.5 2.5 0 0 1 62.5 240 L 62.5 230  Z " fill-rule="nonzero" fill="#f0f0f0" stroke="none" />
  <path d="M 62.5 230  A 2.5 2.5 0 0 1 65 227.5 L 75 227.5  A 2.5 2.5 0 0 1 77.5 230 L 77.5 240  A 2.5 2.5 0 0 1 75 242.5 L 65 242.5  A 2.5 2.5 0 0 1 62.5 240 L 62.5 230  Z " stroke-width="1" stroke="#797979" fill="none" />
</svg>