<?xml version="1.0" encoding="utf-8"?>
<svg version="1.1" xmlns:xlink="http://www.w3.org/1999/xlink" width="16px" height="16px" viewBox="62 344  16 16" xmlns="http://www.w3.org/2000/svg">
  <path d="M 62.5 347  A 2.5 2.5 0 0 1 65 344.5 L 75 344.5  A 2.5 2.5 0 0 1 77.5 347 L 77.5 357  A 2.5 2.5 0 0 1 75 359.5 L 65 359.5  A 2.5 2.5 0 0 1 62.5 357 L 62.5 347  Z " fill-rule="nonzero" fill="#ffffff" stroke="none" />
  <path d="M 62.5 347  A 2.5 2.5 0 0 1 65 344.5 L 75 344.5  A 2.5 2.5 0 0 1 77.5 347 L 77.5 357  A 2.5 2.5 0 0 1 75 359.5 L 65 359.5  A 2.5 2.5 0 0 1 62.5 357 L 62.5 347  Z " stroke-width="1" stroke="#797979" fill="none" />
</svg>