<?xml version="1.0" encoding="utf-8"?>
<svg version="1.1" xmlns:xlink="http://www.w3.org/1999/xlink" width="16px" height="16px" viewBox="60 284  16 16" xmlns="http://www.w3.org/2000/svg">
  <path d="M 60.5 287  A 2.5 2.5 0 0 1 63 284.5 L 73 284.5  A 2.5 2.5 0 0 1 75.5 287 L 75.5 297  A 2.5 2.5 0 0 1 73 299.5 L 63 299.5  A 2.5 2.5 0 0 1 60.5 297 L 60.5 287  Z " fill-rule="nonzero" fill="#ffffff" stroke="none" />
  <path d="M 60.5 287  A 2.5 2.5 0 0 1 63 284.5 L 73 284.5  A 2.5 2.5 0 0 1 75.5 287 L 75.5 297  A 2.5 2.5 0 0 1 73 299.5 L 63 299.5  A 2.5 2.5 0 0 1 60.5 297 L 60.5 287  Z " stroke-width="1" stroke="#797979" fill="none" />
</svg>