<?xml version="1.0" encoding="utf-8"?>
<svg version="1.1" xmlns:xlink="http://www.w3.org/1999/xlink" width="297px" height="22px" xmlns="http://www.w3.org/2000/svg">
  <defs>
    <mask fill="white" id="clip314">
      <path d="M 0 20  L 0 2  C 0 0.880000000000003  0.879999999999995 0  2 0  L 77.672131147541 0  L 295 0  C 296.12 0  297 0.880000000000003  297 2  L 297 20  C 297 21.12  296.12 22  295 22  L 2 22  C 0.879999999999995 22  0 21.12  0 20  Z " fill-rule="evenodd" />
    </mask>
  </defs>
  <g transform="matrix(1 0 0 1 -93 -61 )">
    <path d="M 0 20  L 0 2  C 0 0.880000000000003  0.879999999999995 0  2 0  L 77.672131147541 0  L 295 0  C 296.12 0  297 0.880000000000003  297 2  L 297 20  C 297 21.12  296.12 22  295 22  L 2 22  C 0.879999999999995 22  0 21.12  0 20  Z " fill-rule="nonzero" fill="#ffffff" stroke="none" transform="matrix(1 0 0 1 93 61 )" />
    <path d="M 0 20  L 0 2  C 0 0.880000000000003  0.879999999999995 0  2 0  L 77.672131147541 0  L 295 0  C 296.12 0  297 0.880000000000003  297 2  L 297 20  C 297 21.12  296.12 22  295 22  L 2 22  C 0.879999999999995 22  0 21.12  0 20  Z " stroke-width="2" stroke="#e6e6e6" fill="none" transform="matrix(1 0 0 1 93 61 )" mask="url(#clip314)" />
  </g>
</svg>