<?xml version="1.0" encoding="utf-8"?>
<svg version="1.1" xmlns:xlink="http://www.w3.org/1999/xlink" width="18px" height="18px" preserveAspectRatio="xMinYMid meet" viewBox="310 135  18 16" xmlns="http://www.w3.org/2000/svg">
  <path d="M 937.5 87  L 937.5 143.5  L 317.5 143.5  " stroke-width="1" stroke-dasharray="3,1" stroke="#00ffff" fill="none" />
  <path d="M 937.5 86  A 3 3 0 0 0 934.5 89 A 3 3 0 0 0 937.5 92 A 3 3 0 0 0 940.5 89 A 3 3 0 0 0 937.5 86 Z M 319.5 140.5  A 3 3 0 0 0 316.5 143.5 A 3 3 0 0 0 319.5 146.5 A 3 3 0 0 0 322.5 143.5 A 3 3 0 0 0 319.5 140.5 Z " fill-rule="nonzero" fill="#00ffff" stroke="none" />
</svg>