<?xml version="1.0" encoding="utf-8"?>
<svg version="1.1" xmlns:xlink="http://www.w3.org/1999/xlink" width="32px" height="32px" xmlns="http://www.w3.org/2000/svg">
  <defs>
    <mask fill="white" id="clip311">
      <path d="M 0 11  C 0 4.84000000000003  4.83999999999992 0  11 0  C 17.1600000000001 0  22 4.84000000000003  22 11  C 22 17.16  17.1600000000001 22  11 22  C 9.21148591333076 22  7.53424673290738 21.5919920104318  6.05443689046729 20.8621304630329  C 2.43748585337357 19.0782029575596  0 15.3714859133307  0 11  Z " fill-rule="evenodd" />
    </mask>
    <filter x="1110px" y="986px" width="32px" height="32px" filterUnits="userSpaceOnUse" id="filter312">
      <feOffset dx="1" dy="1" in="SourceAlpha" result="shadowOffsetInner" />
      <feGaussianBlur stdDeviation="2.5" in="shadowOffsetInner" result="shadowGaussian" />
      <feComposite in2="shadowGaussian" operator="atop" in="SourceAlpha" result="shadowComposite" />
      <feColorMatrix type="matrix" values="0 0 0 0 0  0 0 0 0 0  0 0 0 0 0  0 0 0 0.698039215686274 0  " in="shadowComposite" />
    </filter>
    <g id="widget313">
      <path d="M 0 11  C 0 4.84000000000003  4.83999999999992 0  11 0  C 17.1600000000001 0  22 4.84000000000003  22 11  C 22 17.16  17.1600000000001 22  11 22  C 9.21148591333076 22  7.53424673290738 21.5919920104318  6.05443689046729 20.8621304630329  C 2.43748585337357 19.0782029575596  0 15.3714859133307  0 11  Z " fill-rule="nonzero" fill="#f59a23" stroke="none" transform="matrix(1 0 0 1 1114 990 )" />
      <path d="M 0 11  C 0 4.84000000000003  4.83999999999992 0  11 0  C 17.1600000000001 0  22 4.84000000000003  22 11  C 22 17.16  17.1600000000001 22  11 22  C 9.21148591333076 22  7.53424673290738 21.5919920104318  6.05443689046729 20.8621304630329  C 2.43748585337357 19.0782029575596  0 15.3714859133307  0 11  Z " stroke-width="2" stroke="#ffffff" fill="none" transform="matrix(1 0 0 1 1114 990 )" mask="url(#clip311)" />
    </g>
  </defs>
  <g transform="matrix(1 0 0 1 -1110 -986 )">
    <use xlink:href="#widget313" filter="url(#filter312)" />
    <use xlink:href="#widget313" />
  </g>
</svg>