<?xml version="1.0" encoding="utf-8"?>
<svg version="1.1" xmlns:xlink="http://www.w3.org/1999/xlink" width="16px" height="16px" viewBox="55 257  16 16" xmlns="http://www.w3.org/2000/svg">
  <path d="M 55.5 260  A 2.5 2.5 0 0 1 58 257.5 L 68 257.5  A 2.5 2.5 0 0 1 70.5 260 L 70.5 270  A 2.5 2.5 0 0 1 68 272.5 L 58 272.5  A 2.5 2.5 0 0 1 55.5 270 L 55.5 260  Z " fill-rule="nonzero" fill="#f0f0f0" stroke="none" />
  <path d="M 55.5 260  A 2.5 2.5 0 0 1 58 257.5 L 68 257.5  A 2.5 2.5 0 0 1 70.5 260 L 70.5 270  A 2.5 2.5 0 0 1 68 272.5 L 58 272.5  A 2.5 2.5 0 0 1 55.5 270 L 55.5 260  Z " stroke-width="1" stroke="#797979" fill="none" />
</svg>