<?xml version="1.0" encoding="utf-8"?>
<svg version="1.1" xmlns:xlink="http://www.w3.org/1999/xlink" width="16px" height="16px" viewBox="55 228  16 16" xmlns="http://www.w3.org/2000/svg">
  <path d="M 55.5 231  A 2.5 2.5 0 0 1 58 228.5 L 68 228.5  A 2.5 2.5 0 0 1 70.5 231 L 70.5 241  A 2.5 2.5 0 0 1 68 243.5 L 58 243.5  A 2.5 2.5 0 0 1 55.5 241 L 55.5 231  Z " fill-rule="nonzero" fill="#ffffff" stroke="none" />
  <path d="M 55.5 231  A 2.5 2.5 0 0 1 58 228.5 L 68 228.5  A 2.5 2.5 0 0 1 70.5 231 L 70.5 241  A 2.5 2.5 0 0 1 68 243.5 L 58 243.5  A 2.5 2.5 0 0 1 55.5 241 L 55.5 231  Z " stroke-width="1" stroke="#797979" fill="none" />
</svg>