<?xml version="1.0" encoding="utf-8"?>
<svg version="1.1" xmlns:xlink="http://www.w3.org/1999/xlink" width="16px" height="16px" viewBox="55 285  16 16" xmlns="http://www.w3.org/2000/svg">
  <path d="M 55.5 288  A 2.5 2.5 0 0 1 58 285.5 L 68 285.5  A 2.5 2.5 0 0 1 70.5 288 L 70.5 298  A 2.5 2.5 0 0 1 68 300.5 L 58 300.5  A 2.5 2.5 0 0 1 55.5 298 L 55.5 288  Z " fill-rule="nonzero" fill="#f0f0f0" stroke="none" />
  <path d="M 55.5 288  A 2.5 2.5 0 0 1 58 285.5 L 68 285.5  A 2.5 2.5 0 0 1 70.5 288 L 70.5 298  A 2.5 2.5 0 0 1 68 300.5 L 58 300.5  A 2.5 2.5 0 0 1 55.5 298 L 55.5 288  Z " stroke-width="1" stroke="#797979" fill="none" />
  <path d="M 58.4285714285714 293  L 61.8571428571429 296.428571428571  " stroke-width="3.42857142857143" stroke="#797979" fill="none" />
  <path d="M 61.8571428571429 296.428571428571  L 67.5714285714286 288.428571428571  " stroke-width="3.42857142857143" stroke="#797979" fill="none" />
</svg>