<?xml version="1.0" encoding="utf-8"?>
<svg version="1.1" xmlns:xlink="http://www.w3.org/1999/xlink" width="18px" height="18px" preserveAspectRatio="xMinYMid meet" viewBox="340 169  18 16" xmlns="http://www.w3.org/2000/svg">
  <path d="M 931.5 72  L 931.5 120.5  L 349.5 120.5  L 349.5 180  " stroke-width="1" stroke-dasharray="3,1" stroke="#00ffff" fill="none" />
  <path d="M 931.5 71  A 3 3 0 0 0 928.5 74 A 3 3 0 0 0 931.5 77 A 3 3 0 0 0 934.5 74 A 3 3 0 0 0 931.5 71 Z M 349.5 175  A 3 3 0 0 0 346.5 178 A 3 3 0 0 0 349.5 181 A 3 3 0 0 0 352.5 178 A 3 3 0 0 0 349.5 175 Z " fill-rule="nonzero" fill="#00ffff" stroke="none" />
</svg>