<?xml version="1.0" encoding="utf-8"?>
<svg version="1.1" xmlns:xlink="http://www.w3.org/1999/xlink" width="16px" height="16px" viewBox="51 287  16 16" xmlns="http://www.w3.org/2000/svg">
  <path d="M 51.5 290  A 2.5 2.5 0 0 1 54 287.5 L 64 287.5  A 2.5 2.5 0 0 1 66.5 290 L 66.5 300  A 2.5 2.5 0 0 1 64 302.5 L 54 302.5  A 2.5 2.5 0 0 1 51.5 300 L 51.5 290  Z " fill-rule="nonzero" fill="#f0f0f0" stroke="none" />
  <path d="M 51.5 290  A 2.5 2.5 0 0 1 54 287.5 L 64 287.5  A 2.5 2.5 0 0 1 66.5 290 L 66.5 300  A 2.5 2.5 0 0 1 64 302.5 L 54 302.5  A 2.5 2.5 0 0 1 51.5 300 L 51.5 290  Z " stroke-width="1" stroke="#797979" fill="none" />
</svg>