<?xml version="1.0" encoding="utf-8"?>
<svg version="1.1" xmlns:xlink="http://www.w3.org/1999/xlink" width="16px" height="16px" viewBox="49 224  16 16" xmlns="http://www.w3.org/2000/svg">
  <path d="M 49.5 227  A 2.5 2.5 0 0 1 52 224.5 L 62 224.5  A 2.5 2.5 0 0 1 64.5 227 L 64.5 237  A 2.5 2.5 0 0 1 62 239.5 L 52 239.5  A 2.5 2.5 0 0 1 49.5 237 L 49.5 227  Z " fill-rule="nonzero" fill="#f0f0f0" stroke="none" />
  <path d="M 49.5 227  A 2.5 2.5 0 0 1 52 224.5 L 62 224.5  A 2.5 2.5 0 0 1 64.5 227 L 64.5 237  A 2.5 2.5 0 0 1 62 239.5 L 52 239.5  A 2.5 2.5 0 0 1 49.5 237 L 49.5 227  Z " stroke-width="1" stroke="#797979" fill="none" />
</svg>