<?xml version="1.0" encoding="utf-8"?>
<svg version="1.1" xmlns:xlink="http://www.w3.org/1999/xlink" width="16px" height="16px" viewBox="49 258  16 16" xmlns="http://www.w3.org/2000/svg">
  <path d="M 49.5 261  A 2.5 2.5 0 0 1 52 258.5 L 62 258.5  A 2.5 2.5 0 0 1 64.5 261 L 64.5 271  A 2.5 2.5 0 0 1 62 273.5 L 52 273.5  A 2.5 2.5 0 0 1 49.5 271 L 49.5 261  Z " fill-rule="nonzero" fill="#f0f0f0" stroke="none" />
  <path d="M 49.5 261  A 2.5 2.5 0 0 1 52 258.5 L 62 258.5  A 2.5 2.5 0 0 1 64.5 261 L 64.5 271  A 2.5 2.5 0 0 1 62 273.5 L 52 273.5  A 2.5 2.5 0 0 1 49.5 271 L 49.5 261  Z " stroke-width="1" stroke="#797979" fill="none" />
  <path d="M 52.4285714285714 266  L 55.8571428571429 269.428571428571  " stroke-width="3.42857142857143" stroke="#797979" fill="none" />
  <path d="M 55.8571428571429 269.428571428571  L 61.5714285714286 261.428571428571  " stroke-width="3.42857142857143" stroke="#797979" fill="none" />
</svg>