<?xml version="1.0" encoding="utf-8"?>
<svg version="1.1" xmlns:xlink="http://www.w3.org/1999/xlink" width="16px" height="16px" viewBox="49 323  16 16" xmlns="http://www.w3.org/2000/svg">
  <path d="M 49.5 326  A 2.5 2.5 0 0 1 52 323.5 L 62 323.5  A 2.5 2.5 0 0 1 64.5 326 L 64.5 336  A 2.5 2.5 0 0 1 62 338.5 L 52 338.5  A 2.5 2.5 0 0 1 49.5 336 L 49.5 326  Z " fill-rule="nonzero" fill="#f0f0f0" stroke="none" />
  <path d="M 49.5 326  A 2.5 2.5 0 0 1 52 323.5 L 62 323.5  A 2.5 2.5 0 0 1 64.5 326 L 64.5 336  A 2.5 2.5 0 0 1 62 338.5 L 52 338.5  A 2.5 2.5 0 0 1 49.5 336 L 49.5 326  Z " stroke-width="1" stroke="#797979" fill="none" />
</svg>