<?xml version="1.0" encoding="utf-8"?>
<svg version="1.1" xmlns:xlink="http://www.w3.org/1999/xlink" width="16px" height="16px" viewBox="61 236  16 16" xmlns="http://www.w3.org/2000/svg">
  <path d="M 61.5 239  A 2.5 2.5 0 0 1 64 236.5 L 74 236.5  A 2.5 2.5 0 0 1 76.5 239 L 76.5 249  A 2.5 2.5 0 0 1 74 251.5 L 64 251.5  A 2.5 2.5 0 0 1 61.5 249 L 61.5 239  Z " fill-rule="nonzero" fill="#f0f0f0" stroke="none" />
  <path d="M 61.5 239  A 2.5 2.5 0 0 1 64 236.5 L 74 236.5  A 2.5 2.5 0 0 1 76.5 239 L 76.5 249  A 2.5 2.5 0 0 1 74 251.5 L 64 251.5  A 2.5 2.5 0 0 1 61.5 249 L 61.5 239  Z " stroke-width="1" stroke="#797979" fill="none" />
</svg>