<?xml version="1.0" encoding="utf-8"?>
<svg version="1.1" xmlns:xlink="http://www.w3.org/1999/xlink" width="16px" height="16px" viewBox="61 293  16 16" xmlns="http://www.w3.org/2000/svg">
  <path d="M 61.5 296  A 2.5 2.5 0 0 1 64 293.5 L 74 293.5  A 2.5 2.5 0 0 1 76.5 296 L 76.5 306  A 2.5 2.5 0 0 1 74 308.5 L 64 308.5  A 2.5 2.5 0 0 1 61.5 306 L 61.5 296  Z " fill-rule="nonzero" fill="#ffffff" stroke="none" />
  <path d="M 61.5 296  A 2.5 2.5 0 0 1 64 293.5 L 74 293.5  A 2.5 2.5 0 0 1 76.5 296 L 76.5 306  A 2.5 2.5 0 0 1 74 308.5 L 64 308.5  A 2.5 2.5 0 0 1 61.5 306 L 61.5 296  Z " stroke-width="1" stroke="#797979" fill="none" />
</svg>