<?xml version="1.0" encoding="utf-8"?>
<svg version="1.1" xmlns:xlink="http://www.w3.org/1999/xlink" width="16px" height="16px" viewBox="61 265  16 16" xmlns="http://www.w3.org/2000/svg">
  <path d="M 61.5 268  A 2.5 2.5 0 0 1 64 265.5 L 74 265.5  A 2.5 2.5 0 0 1 76.5 268 L 76.5 278  A 2.5 2.5 0 0 1 74 280.5 L 64 280.5  A 2.5 2.5 0 0 1 61.5 278 L 61.5 268  Z " fill-rule="nonzero" fill="#f0f0f0" stroke="none" />
  <path d="M 61.5 268  A 2.5 2.5 0 0 1 64 265.5 L 74 265.5  A 2.5 2.5 0 0 1 76.5 268 L 76.5 278  A 2.5 2.5 0 0 1 74 280.5 L 64 280.5  A 2.5 2.5 0 0 1 61.5 278 L 61.5 268  Z " stroke-width="1" stroke="#797979" fill="none" />
  <path d="M 64.4285714285714 273  L 67.8571428571429 276.428571428571  " stroke-width="3.42857142857143" stroke="#797979" fill="none" />
  <path d="M 67.8571428571429 276.428571428571  L 73.5714285714286 268.428571428571  " stroke-width="3.42857142857143" stroke="#797979" fill="none" />
</svg>