<?xml version="1.0" encoding="utf-8"?>
<svg version="1.1" xmlns:xlink="http://www.w3.org/1999/xlink" width="24px" height="24px" xmlns="http://www.w3.org/2000/svg">
  <g transform="matrix(1 0 0 1 -548 -176 )">
    <path d="M 23.4609375 14.1484375  C 23.5598958333333 14.2473958333333  23.609375 14.3645833333333  23.609375 14.5  C 23.609375 14.5520833333333  23.6041666666667 14.5885416666667  23.59375 14.609375  C 22.9270833333333 17.4010416666667  21.53125 19.6640625  19.40625 21.3984375  C 17.28125 23.1328125  14.7916666666667 24  11.9375 24  C 10.4166666666667 24  8.9453125 23.7135416666667  7.5234375 23.140625  C 6.1015625 22.5677083333333  4.83333333333333 21.75  3.71875 20.6875  L 1.703125 22.703125  C 1.50520833333333 22.9010416666667  1.27083333333333 23  1 23  C 0.729166666666667 23  0.494791666666667 22.9010416666667  0.296875 22.703125  C 0.0989583333333333 22.5052083333333  0 22.2708333333333  0 22  L 0 15  C 0 14.7291666666667  0.0989583333333333 14.4947916666667  0.296875 14.296875  C 0.494791666666667 14.0989583333333  0.729166666666667 14  1 14  L 8 14  C 8.27083333333333 14  8.50520833333333 14.0989583333333  8.703125 14.296875  C 8.90104166666667 14.4947916666667  9 14.7291666666667  9 15  C 9 15.2708333333333  8.90104166666667 15.5052083333333  8.703125 15.703125  L 6.5625 17.84375  C 7.30208333333333 18.53125  8.140625 19.0625  9.078125 19.4375  C 10.015625 19.8125  10.9895833333333 20  12 20  C 13.3958333333333 20  14.6979166666667 19.6614583333333  15.90625 18.984375  C 17.1145833333333 18.3072916666667  18.0833333333333 17.375  18.8125 16.1875  C 18.9270833333333 16.0104166666667  19.203125 15.4010416666667  19.640625 14.359375  C 19.7239583333333 14.1197916666667  19.8802083333333 14  20.109375 14  L 23.109375 14  C 23.2447916666667 14  23.3619791666667 14.0494791666667  23.4609375 14.1484375  Z M 23.703125 1.296875  C 23.9010416666667 1.49479166666667  24 1.72916666666667  24 2  L 24 9  C 24 9.27083333333333  23.9010416666667 9.50520833333333  23.703125 9.703125  C 23.5052083333333 9.90104166666667  23.2708333333333 10  23 10  L 16 10  C 15.7291666666667 10  15.4947916666667 9.90104166666667  15.296875 9.703125  C 15.0989583333333 9.50520833333333  15 9.27083333333333  15 9  C 15 8.72916666666666  15.0989583333333 8.49479166666666  15.296875 8.296875  L 17.453125 6.140625  C 15.9114583333333 4.71354166666666  14.09375 4  12 4  C 10.6041666666667 4  9.30208333333333 4.33854166666666  8.09375 5.015625  C 6.88541666666667 5.69270833333333  5.91666666666667 6.625  5.1875 7.8125  C 5.07291666666667 7.98958333333333  4.796875 8.59895833333333  4.359375 9.640625  C 4.27604166666667 9.88020833333333  4.11979166666667 10  3.890625 10  L 0.78125 10  C 0.645833333333333 10  0.528645833333333 9.95052083333333  0.4296875 9.8515625  C 0.330729166666667 9.75260416666667  0.28125 9.63541666666667  0.28125 9.5  L 0.28125 9.390625  C 0.958333333333333 6.59895833333333  2.36458333333333 4.3359375  4.5 2.6015625  C 6.63541666666667 0.8671875  9.13541666666667 0  12 0  C 13.5208333333333 0  15 0.289062500000001  16.4375 0.8671875  C 17.875 1.4453125  19.1510416666667 2.26041666666666  20.265625 3.3125  L 22.296875 1.296875  C 22.4947916666667 1.09895833333333  22.7291666666667 0.999999999999999  23 0.999999999999999  C 23.2708333333333 0.999999999999999  23.5052083333333 1.09895833333333  23.703125 1.296875  Z " fill-rule="nonzero" fill="#000000" stroke="none" transform="matrix(1 0 0 1 548 176 )" />
  </g>
</svg>