<?xml version="1.0" encoding="utf-8"?>
<svg version="1.1" xmlns:xlink="http://www.w3.org/1999/xlink" width="16px" height="16px" viewBox="60 255  16 16" xmlns="http://www.w3.org/2000/svg">
  <path d="M 60.5 258  A 2.5 2.5 0 0 1 63 255.5 L 73 255.5  A 2.5 2.5 0 0 1 75.5 258 L 75.5 268  A 2.5 2.5 0 0 1 73 270.5 L 63 270.5  A 2.5 2.5 0 0 1 60.5 268 L 60.5 258  Z " fill-rule="nonzero" fill="#ffffff" stroke="none" />
  <path d="M 60.5 258  A 2.5 2.5 0 0 1 63 255.5 L 73 255.5  A 2.5 2.5 0 0 1 75.5 258 L 75.5 268  A 2.5 2.5 0 0 1 73 270.5 L 63 270.5  A 2.5 2.5 0 0 1 60.5 268 L 60.5 258  Z " stroke-width="1" stroke="#797979" fill="none" />
  <path d="M 63.4285714285714 263  L 66.8571428571429 266.428571428571  " stroke-width="3.42857142857143" stroke="#797979" fill="none" />
  <path d="M 66.8571428571429 266.428571428571  L 72.5714285714286 258.428571428571  " stroke-width="3.42857142857143" stroke="#797979" fill="none" />
</svg>