<?xml version="1.0" encoding="utf-8"?>
<svg version="1.1" xmlns:xlink="http://www.w3.org/1999/xlink" width="16px" height="16px" viewBox="60 226  16 16" xmlns="http://www.w3.org/2000/svg">
  <path d="M 60.5 229  A 2.5 2.5 0 0 1 63 226.5 L 73 226.5  A 2.5 2.5 0 0 1 75.5 229 L 75.5 239  A 2.5 2.5 0 0 1 73 241.5 L 63 241.5  A 2.5 2.5 0 0 1 60.5 239 L 60.5 229  Z " fill-rule="nonzero" fill="#ffffff" stroke="none" />
  <path d="M 60.5 229  A 2.5 2.5 0 0 1 63 226.5 L 73 226.5  A 2.5 2.5 0 0 1 75.5 229 L 75.5 239  A 2.5 2.5 0 0 1 73 241.5 L 63 241.5  A 2.5 2.5 0 0 1 60.5 239 L 60.5 229  Z " stroke-width="1" stroke="#797979" fill="none" />
  <path d="M 63.4285714285714 234  L 66.8571428571429 237.428571428571  " stroke-width="3.42857142857143" stroke="#797979" fill="none" />
  <path d="M 66.8571428571429 237.428571428571  L 72.5714285714286 229.428571428571  " stroke-width="3.42857142857143" stroke="#797979" fill="none" />
</svg>