<?xml version="1.0" encoding="utf-8"?>
<svg version="1.1" xmlns:xlink="http://www.w3.org/1999/xlink" width="16px" height="16px" viewBox="49 239  16 16" xmlns="http://www.w3.org/2000/svg">
  <path d="M 49.5 242  A 2.5 2.5 0 0 1 52 239.5 L 62 239.5  A 2.5 2.5 0 0 1 64.5 242 L 64.5 252  A 2.5 2.5 0 0 1 62 254.5 L 52 254.5  A 2.5 2.5 0 0 1 49.5 252 L 49.5 242  Z " fill-rule="nonzero" fill="#f0f0f0" stroke="none" />
  <path d="M 49.5 242  A 2.5 2.5 0 0 1 52 239.5 L 62 239.5  A 2.5 2.5 0 0 1 64.5 242 L 64.5 252  A 2.5 2.5 0 0 1 62 254.5 L 52 254.5  A 2.5 2.5 0 0 1 49.5 252 L 49.5 242  Z " stroke-width="1" stroke="#797979" fill="none" />
  <path d="M 52.4285714285714 247  L 55.8571428571429 250.428571428571  " stroke-width="3.42857142857143" stroke="#797979" fill="none" />
  <path d="M 55.8571428571429 250.428571428571  L 61.5714285714286 242.428571428571  " stroke-width="3.42857142857143" stroke="#797979" fill="none" />
</svg>