<?xml version="1.0" encoding="utf-8"?>
<svg version="1.1" xmlns:xlink="http://www.w3.org/1999/xlink" width="16px" height="16px" viewBox="49 208  16 16" xmlns="http://www.w3.org/2000/svg">
  <path d="M 49.5 211  A 2.5 2.5 0 0 1 52 208.5 L 62 208.5  A 2.5 2.5 0 0 1 64.5 211 L 64.5 221  A 2.5 2.5 0 0 1 62 223.5 L 52 223.5  A 2.5 2.5 0 0 1 49.5 221 L 49.5 211  Z " fill-rule="nonzero" fill="#ffffff" stroke="none" />
  <path d="M 49.5 211  A 2.5 2.5 0 0 1 52 208.5 L 62 208.5  A 2.5 2.5 0 0 1 64.5 211 L 64.5 221  A 2.5 2.5 0 0 1 62 223.5 L 52 223.5  A 2.5 2.5 0 0 1 49.5 221 L 49.5 211  Z " stroke-width="1" stroke="#797979" fill="none" />
  <path d="M 52.4285714285714 216  L 55.8571428571429 219.428571428571  " stroke-width="3.42857142857143" stroke="#797979" fill="none" />
  <path d="M 55.8571428571429 219.428571428571  L 61.5714285714286 211.428571428571  " stroke-width="3.42857142857143" stroke="#797979" fill="none" />
</svg>