<?xml version="1.0" encoding="utf-8"?>
<svg version="1.1" xmlns:xlink="http://www.w3.org/1999/xlink" width="40px" height="50px" xmlns="http://www.w3.org/2000/svg">
  <defs>
    <mask fill="white" id="clip371">
      <path d="M 30 14  C 30 24  21 30  15 40  C 9 30  0 24  0 14  C 0 8.80000000000001  3 0  15 0  C 19.1907590473401 0  22.2838642576262 1.07326152956384  24.5348713391074 2.69163612497698  C 28.7294949113187 5.70738506794387  30 10.6159955871807  30 14  Z " fill-rule="evenodd" />
    </mask>
    <filter x="886px" y="-4px" width="40px" height="50px" filterUnits="userSpaceOnUse" id="filter372">
      <feOffset dx="1" dy="1" in="SourceAlpha" result="shadowOffsetInner" />
      <feGaussianBlur stdDeviation="2.5" in="shadowOffsetInner" result="shadowGaussian" />
      <feComposite in2="shadowGaussian" operator="atop" in="SourceAlpha" result="shadowComposite" />
      <feColorMatrix type="matrix" values="0 0 0 0 0  0 0 0 0 0  0 0 0 0 0  0 0 0 0.698039215686274 0  " in="shadowComposite" />
    </filter>
    <g id="widget373">
      <path d="M 30 14  C 30 24  21 30  15 40  C 9 30  0 24  0 14  C 0 8.80000000000001  3 0  15 0  C 19.1907590473401 0  22.2838642576262 1.07326152956384  24.5348713391074 2.69163612497698  C 28.7294949113187 5.70738506794387  30 10.6159955871807  30 14  Z " fill-rule="nonzero" fill="#f59a23" stroke="none" transform="matrix(1 0 0 1 890 0 )" />
      <path d="M 30 14  C 30 24  21 30  15 40  C 9 30  0 24  0 14  C 0 8.80000000000001  3 0  15 0  C 19.1907590473401 0  22.2838642576262 1.07326152956384  24.5348713391074 2.69163612497698  C 28.7294949113187 5.70738506794387  30 10.6159955871807  30 14  Z " stroke-width="2" stroke="#ffffff" fill="none" transform="matrix(1 0 0 1 890 0 )" mask="url(#clip371)" />
    </g>
  </defs>
  <g transform="matrix(1 0 0 1 -886 4 )">
    <use xlink:href="#widget373" filter="url(#filter372)" />
    <use xlink:href="#widget373" />
  </g>
</svg>