<?xml version="1.0" encoding="utf-8"?>
<svg version="1.1" xmlns:xlink="http://www.w3.org/1999/xlink" width="16px" height="16px" viewBox="51 255  16 16" xmlns="http://www.w3.org/2000/svg">
  <path d="M 51.5 258  A 2.5 2.5 0 0 1 54 255.5 L 64 255.5  A 2.5 2.5 0 0 1 66.5 258 L 66.5 268  A 2.5 2.5 0 0 1 64 270.5 L 54 270.5  A 2.5 2.5 0 0 1 51.5 268 L 51.5 258  Z " fill-rule="nonzero" fill="#ffffff" stroke="none" />
  <path d="M 51.5 258  A 2.5 2.5 0 0 1 54 255.5 L 64 255.5  A 2.5 2.5 0 0 1 66.5 258 L 66.5 268  A 2.5 2.5 0 0 1 64 270.5 L 54 270.5  A 2.5 2.5 0 0 1 51.5 268 L 51.5 258  Z " stroke-width="1" stroke="#797979" fill="none" />
</svg>