<?xml version="1.0" encoding="utf-8"?>
<svg version="1.1" xmlns:xlink="http://www.w3.org/1999/xlink" width="16px" height="16px" viewBox="51 283  16 16" xmlns="http://www.w3.org/2000/svg">
  <path d="M 51.5 286  A 2.5 2.5 0 0 1 54 283.5 L 64 283.5  A 2.5 2.5 0 0 1 66.5 286 L 66.5 296  A 2.5 2.5 0 0 1 64 298.5 L 54 298.5  A 2.5 2.5 0 0 1 51.5 296 L 51.5 286  Z " fill-rule="nonzero" fill="#ffffff" stroke="none" />
  <path d="M 51.5 286  A 2.5 2.5 0 0 1 54 283.5 L 64 283.5  A 2.5 2.5 0 0 1 66.5 286 L 66.5 296  A 2.5 2.5 0 0 1 64 298.5 L 54 298.5  A 2.5 2.5 0 0 1 51.5 296 L 51.5 286  Z " stroke-width="1" stroke="#797979" fill="none" />
  <path d="M 54.4285714285714 291  L 57.8571428571429 294.428571428571  " stroke-width="3.42857142857143" stroke="#797979" fill="none" />
  <path d="M 57.8571428571429 294.428571428571  L 63.5714285714286 286.428571428571  " stroke-width="3.42857142857143" stroke="#797979" fill="none" />
</svg>