<?xml version="1.0" encoding="utf-8"?>
<svg version="1.1" xmlns:xlink="http://www.w3.org/1999/xlink" width="16px" height="16px" viewBox="51 226  16 16" xmlns="http://www.w3.org/2000/svg">
  <path d="M 51.5 229  A 2.5 2.5 0 0 1 54 226.5 L 64 226.5  A 2.5 2.5 0 0 1 66.5 229 L 66.5 239  A 2.5 2.5 0 0 1 64 241.5 L 54 241.5  A 2.5 2.5 0 0 1 51.5 239 L 51.5 229  Z " fill-rule="nonzero" fill="#f0f0f0" stroke="none" />
  <path d="M 51.5 229  A 2.5 2.5 0 0 1 54 226.5 L 64 226.5  A 2.5 2.5 0 0 1 66.5 229 L 66.5 239  A 2.5 2.5 0 0 1 64 241.5 L 54 241.5  A 2.5 2.5 0 0 1 51.5 239 L 51.5 229  Z " stroke-width="1" stroke="#797979" fill="none" />
</svg>