<?xml version="1.0" encoding="utf-8"?>
<svg version="1.1" xmlns:xlink="http://www.w3.org/1999/xlink" width="16px" height="16px" viewBox="51 226  16 16" xmlns="http://www.w3.org/2000/svg">
  <path d="M 51.5 229  A 2.5 2.5 0 0 1 54 226.5 L 64 226.5  A 2.5 2.5 0 0 1 66.5 229 L 66.5 239  A 2.5 2.5 0 0 1 64 241.5 L 54 241.5  A 2.5 2.5 0 0 1 51.5 239 L 51.5 229  Z " fill-rule="nonzero" fill="#ffffff" stroke="none" />
  <path d="M 51.5 229  A 2.5 2.5 0 0 1 54 226.5 L 64 226.5  A 2.5 2.5 0 0 1 66.5 229 L 66.5 239  A 2.5 2.5 0 0 1 64 241.5 L 54 241.5  A 2.5 2.5 0 0 1 51.5 239 L 51.5 229  Z " stroke-width="1" stroke="#797979" fill="none" />
  <path d="M 54.4285714285714 234  L 57.8571428571429 237.428571428571  " stroke-width="3.42857142857143" stroke="#797979" fill="none" />
  <path d="M 57.8571428571429 237.428571428571  L 63.5714285714286 229.428571428571  " stroke-width="3.42857142857143" stroke="#797979" fill="none" />
</svg>