<?xml version="1.0" encoding="utf-8"?>
<svg version="1.1" xmlns:xlink="http://www.w3.org/1999/xlink" width="40px" height="50px" xmlns="http://www.w3.org/2000/svg">
  <defs>
    <filter x="542px" y="82px" width="40px" height="50px" filterUnits="userSpaceOnUse" id="filter317">
      <feOffset dx="1" dy="1" in="SourceAlpha" result="shadowOffsetInner" />
      <feGaussianBlur stdDeviation="2.5" in="shadowOffsetInner" result="shadowGaussian" />
      <feComposite in2="shadowGaussian" operator="atop" in="SourceAlpha" result="shadowComposite" />
      <feColorMatrix type="matrix" values="0 0 0 0 0  0 0 0 0 0  0 0 0 0 0  0 0 0 0.698039215686274 0  " in="shadowComposite" />
    </filter>
    <g id="widget318">
      <path d="M 561 125.036928468354  C 555.2 115.40734059591  546.5 109.629587872444  546.5 100  C 546.5 94.9857142857143  549.4 86.5  561 86.5  C 572.6 86.5  575.5 94.9857142857143  575.5 100  C 575.5 109.629587872444  566.8 115.40734059591  561 125.036928468354  Z " fill-rule="nonzero" fill="#009dd9" stroke="none" />
      <path d="M 561 126  C 555 116  546 110  546 100  C 546 94.8  549 86  561 86  C 573 86  576 94.8  576 100  C 576 110  567 116  561 126  Z M 561 124.073856936707  C 566.6 114.81468119182  575 109.259175744887  575 100  C 575 95.1714285714286  572.2 87  561 87  C 549.8 87  547 95.1714285714286  547 100  C 547 109.259175744887  555.4 114.81468119182  561 124.073856936707  Z " fill-rule="nonzero" fill="#ffffff" stroke="none" />
    </g>
  </defs>
  <g transform="matrix(1 0 0 1 -542 -82 )">
    <use xlink:href="#widget318" filter="url(#filter317)" />
    <use xlink:href="#widget318" />
  </g>
</svg>