<?xml version="1.0" encoding="utf-8"?>
<svg version="1.1" xmlns:xlink="http://www.w3.org/1999/xlink" width="40px" height="40px" xmlns="http://www.w3.org/2000/svg">
  <defs>
    <filter x="1835px" y="72px" width="40px" height="40px" filterUnits="userSpaceOnUse" id="filter319">
      <feOffset dx="1" dy="1" in="SourceAlpha" result="shadowOffsetInner" />
      <feGaussianBlur stdDeviation="2.5" in="shadowOffsetInner" result="shadowGaussian" />
      <feComposite in2="shadowGaussian" operator="atop" in="SourceAlpha" result="shadowComposite" />
      <feColorMatrix type="matrix" values="0 0 0 0 0  0 0 0 0 0  0 0 0 0 0  0 0 0 0.698039215686274 0  " in="shadowComposite" />
    </filter>
    <g id="widget320">
      <path d="M 1854 76  C 1862.4 76  1869 82.6  1869 91  C 1869 99.4  1862.4 106  1854 106  C 1845.6 106  1839 99.4  1839 91  C 1839 82.6  1845.6 76  1854 76  Z " fill-rule="nonzero" fill="#009dd9" stroke="none" />
      <path d="M 1854 76.5  C 1862.12 76.5  1868.5 82.88  1868.5 91  C 1868.5 99.12  1862.12 105.5  1854 105.5  C 1845.88 105.5  1839.5 99.12  1839.5 91  C 1839.5 82.88  1845.88 76.5  1854 76.5  Z " stroke-width="1" stroke="#ffffff" fill="none" />
    </g>
  </defs>
  <g transform="matrix(1 0 0 1 -1835 -72 )">
    <use xlink:href="#widget320" filter="url(#filter319)" />
    <use xlink:href="#widget320" />
  </g>
</svg>