<?xml version="1.0" encoding="utf-8"?>
<svg version="1.1" xmlns:xlink="http://www.w3.org/1999/xlink" width="40px" height="50px" xmlns="http://www.w3.org/2000/svg">
  <defs>
    <mask fill="white" id="clip321">
      <path d="M 30 14  C 30 24  21 30  15 40  C 9 30  0 24  0 14  C 0 12.8377829866345  0.149861137517291 11.4957326082482  0.516572321653939 10.1122926103183  C 1.79060304335837 5.30593508635218  5.68203926161277 0  15 0  C 27 0  30 8.79999999999995  30 14  Z " fill-rule="evenodd" />
    </mask>
    <filter x="617px" y="631px" width="40px" height="50px" filterUnits="userSpaceOnUse" id="filter322">
      <feOffset dx="1" dy="1" in="SourceAlpha" result="shadowOffsetInner" />
      <feGaussianBlur stdDeviation="2.5" in="shadowOffsetInner" result="shadowGaussian" />
      <feComposite in2="shadowGaussian" operator="atop" in="SourceAlpha" result="shadowComposite" />
      <feColorMatrix type="matrix" values="0 0 0 0 0  0 0 0 0 0  0 0 0 0 0  0 0 0 0.698039215686274 0  " in="shadowComposite" />
    </filter>
    <g id="widget323">
      <path d="M 30 14  C 30 24  21 30  15 40  C 9 30  0 24  0 14  C 0 12.8377829866345  0.149861137517291 11.4957326082482  0.516572321653939 10.1122926103183  C 1.79060304335837 5.30593508635218  5.68203926161277 0  15 0  C 27 0  30 8.79999999999995  30 14  Z " fill-rule="nonzero" fill="#009dd9" stroke="none" transform="matrix(1 0 0 1 621 635 )" />
      <path d="M 30 14  C 30 24  21 30  15 40  C 9 30  0 24  0 14  C 0 12.8377829866345  0.149861137517291 11.4957326082482  0.516572321653939 10.1122926103183  C 1.79060304335837 5.30593508635218  5.68203926161277 0  15 0  C 27 0  30 8.79999999999995  30 14  Z " stroke-width="2" stroke="#ffffff" fill="none" transform="matrix(1 0 0 1 621 635 )" mask="url(#clip321)" />
    </g>
  </defs>
  <g transform="matrix(1 0 0 1 -617 -631 )">
    <use xlink:href="#widget323" filter="url(#filter322)" />
    <use xlink:href="#widget323" />
  </g>
</svg>