<?xml version="1.0" encoding="utf-8"?>
<svg version="1.1" xmlns:xlink="http://www.w3.org/1999/xlink" width="5px" height="5px" xmlns="http://www.w3.org/2000/svg">
  <g transform="matrix(1 0 0 1 -1160 94 )">
    <path d="M 4.90722656250002 0.164930555555548  C 4.96907552083332 0.274884259259262  5 0.405092592592595  5 0.555555555555548  C 5 0.706018518518524  4.96907552083332 0.836226851851857  4.90722656250002 0.946180555555548  L 2.7197265625 4.83506944444445  C 2.65787760416665 4.94502314814814  2.58463541666665 5  2.5 5  C 2.41536458333335 5  2.34212239583335 4.94502314814814  2.2802734375 4.83506944444445  L 0.0927734374999793 0.946180555555548  C 0.0309244791666773 0.836226851851857  0 0.706018518518524  0 0.555555555555548  C 0 0.405092592592595  0.0309244791666773 0.274884259259262  0.0927734374999793 0.164930555555548  C 0.154622395833334 0.0549768518518571  0.227864583333334 0  0.31249999999998 0  L 4.68750000000002 0  C 4.77213541666667 0  4.84537760416667 0.0549768518518571  4.90722656250002 0.164930555555548  Z " fill-rule="nonzero" fill="#cccccc" stroke="none" transform="matrix(1 0 0 1 1160 -94 )" />
  </g>
</svg>