<?xml version="1.0" encoding="utf-8"?>
<svg version="1.1" xmlns:xlink="http://www.w3.org/1999/xlink" width="18px" height="16px" xmlns="http://www.w3.org/2000/svg">
  <g transform="matrix(1 0 0 1 -297 -9 )">
    <path d="M 10.39453125 13.2395833333333  C 10.46484375 13.1770833333333  10.5 13.0972222222222  10.5 13  L 10.5 11  C 10.5 10.9027777777778  10.46484375 10.8229166666667  10.39453125 10.7604166666667  C 10.32421875 10.6979166666667  10.234375 10.6666666666667  10.125 10.6666666666667  L 7.875 10.6666666666667  C 7.765625 10.6666666666667  7.67578125 10.6979166666667  7.60546875 10.7604166666667  C 7.53515625 10.8229166666667  7.5 10.9027777777778  7.5 11  L 7.5 13  C 7.5 13.0972222222222  7.53515625 13.1770833333333  7.60546875 13.2395833333333  C 7.67578125 13.3020833333333  7.765625 13.3333333333333  7.875 13.3333333333333  L 10.125 13.3333333333333  C 10.234375 13.3333333333333  10.32421875 13.3020833333333  10.39453125 13.2395833333333  Z M 13.353515625 6.84375  C 13.451171875 6.58680555555556  13.5 6.30555555555556  13.5 6  C 13.5 5.38888888888889  13.283203125 4.82291666666667  12.849609375 4.30208333333333  C 12.416015625 3.78125  11.875 3.37847222222222  11.2265625 3.09375  C 10.578125 2.80902777777778  9.9140625 2.66666666666667  9.234375 2.66666666666667  C 7.3359375 2.66666666666667  5.88671875 3.40625  4.88671875 4.88541666666667  C 4.76953125 5.05208333333333  4.80078125 5.19791666666667  4.98046875 5.32291666666667  L 6.52734375 6.36458333333333  C 6.58203125 6.40625  6.65625 6.42708333333333  6.75 6.42708333333333  C 6.875 6.42708333333333  6.97265625 6.38541666666667  7.04296875 6.30208333333333  C 7.45703125 5.82986111111111  7.79296875 5.51041666666667  8.05078125 5.34375  C 8.31640625 5.17708333333333  8.65234375 5.09375  9.05859375 5.09375  C 9.43359375 5.09375  9.767578125 5.18402777777778  10.060546875 5.36458333333333  C 10.353515625 5.54513888888889  10.5 5.75  10.5 5.97916666666667  C 10.5 6.24305555555556  10.421875 6.45486111111111  10.265625 6.61458333333333  C 10.109375 6.77430555555556  9.84375 6.93055555555556  9.46875 7.08333333333333  C 8.9765625 7.27777777777778  8.525390625 7.578125  8.115234375 7.984375  C 7.705078125 8.390625  7.5 8.82638888888889  7.5 9.29166666666667  L 7.5 9.66666666666667  C 7.5 9.76388888888889  7.53515625 9.84375  7.60546875 9.90625  C 7.67578125 9.96875  7.765625 10  7.875 10  L 10.125 10  C 10.234375 10  10.32421875 9.96875  10.39453125 9.90625  C 10.46484375 9.84375  10.5 9.76388888888889  10.5 9.66666666666667  C 10.5 9.53472222222222  10.583984375 9.36284722222222  10.751953125 9.15104166666667  C 10.919921875 8.93923611111111  11.1328125 8.76736111111111  11.390625 8.63541666666667  C 11.640625 8.51041666666667  11.83203125 8.41145833333333  11.96484375 8.33854166666667  C 12.09765625 8.265625  12.27734375 8.14409722222222  12.50390625 7.97395833333333  C 12.73046875 7.80381944444444  12.904296875 7.63715277777778  13.025390625 7.47395833333333  C 13.146484375 7.31076388888889  13.255859375 7.10069444444444  13.353515625 6.84375  Z M 16.79296875 3.984375  C 17.59765625 5.21006944444444  18 6.54861111111111  18 8  C 18 9.45138888888889  17.59765625 10.7899305555556  16.79296875 12.015625  C 15.98828125 13.2413194444444  14.896484375 14.2118055555556  13.517578125 14.9270833333333  C 12.138671875 15.6423611111111  10.6328125 16  9 16  C 7.3671875 16  5.861328125 15.6423611111111  4.482421875 14.9270833333333  C 3.103515625 14.2118055555556  2.01171875 13.2413194444444  1.20703125 12.015625  C 0.40234375 10.7899305555556  0 9.45138888888889  0 8  C 0 6.54861111111111  0.40234375 5.21006944444444  1.20703125 3.984375  C 2.01171875 2.75868055555556  3.103515625 1.78819444444444  4.482421875 1.07291666666667  C 5.861328125 0.357638888888888  7.3671875 0  9 0  C 10.6328125 0  12.138671875 0.357638888888888  13.517578125 1.07291666666667  C 14.896484375 1.78819444444444  15.98828125 2.75868055555556  16.79296875 3.984375  Z " fill-rule="nonzero" fill="#000000" stroke="none" transform="matrix(1 0 0 1 297 9 )" />
  </g>
</svg>