<?xml version="1.0" encoding="utf-8"?>
<svg version="1.1" xmlns:xlink="http://www.w3.org/1999/xlink" width="226px" height="108px" xmlns="http://www.w3.org/2000/svg">
  <g transform="matrix(1 0 0 1 -77 -94 )">
    <path d="M 78 98  A 3 3 0 0 1 81 95 L 299 95  A 3 3 0 0 1 302 98 L 302 198  A 3 3 0 0 1 299 201 L 81 201  A 3 3 0 0 1 78 198 L 78 98  Z " fill-rule="nonzero" fill="#ffffff" stroke="none" />
    <path d="M 77.5 98  A 3.5 3.5 0 0 1 81 94.5 L 299 94.5  A 3.5 3.5 0 0 1 302.5 98 L 302.5 198  A 3.5 3.5 0 0 1 299 201.5 L 81 201.5  A 3.5 3.5 0 0 1 77.5 198 L 77.5 98  Z " stroke-width="1" stroke-dasharray="3,1" stroke="#000000" fill="none" stroke-opacity="0.149019607843137" stroke-dashoffset="0.5" />
  </g>
</svg>