<?xml version="1.0" encoding="utf-8"?>
<svg version="1.1" xmlns:xlink="http://www.w3.org/1999/xlink" width="7px" height="4px" xmlns="http://www.w3.org/2000/svg">
  <g transform="matrix(1 0 0 1 -188 -137 )">
    <path d="M 6.64602272727272 3.7285714285714  C 6.47897727272728 3.87857142857143  6.26221590909092 3.95178571428573  6.04545454545455 3.95178571428573  C 5.82869318181819 3.95178571428573  5.61193181818182 3.87678571428569  5.44488636363635 3.7285714285714  L 3.5 1.98214285714283  L 1.55511363636365 3.7285714285714  C 1.22500000000001 4.02678571428572  0.686079545454551 4.02678571428572  0.355965909090917 3.7285714285714  C 0.0238636363636478 3.43035714285713  0.0238636363636478 2.9482142857143  0.355965909090917 2.65178571428572  L 2.90142045454547 0.366071428571445  C 3.2315340909091 0.0678571428571217  3.77045454545453 0.0678571428571217  4.10056818181817 0.366071428571445  L 6.64602272727272 2.65178571428572  C 6.97812499999999 2.94999999999999  6.97812499999999 3.43214285714288  6.64602272727272 3.7285714285714  Z " fill-rule="nonzero" fill="#aeaeae" stroke="none" transform="matrix(1 0 0 1 188 137 )" />
  </g>
</svg>