<?xml version="1.0" encoding="utf-8"?>
<svg version="1.1" xmlns:xlink="http://www.w3.org/1999/xlink" width="22px" height="16px" xmlns="http://www.w3.org/2000/svg">
  <g transform="matrix(1 0 0 1 -179 -128 )">
    <path d="M 22 9.9232558139535  C 22 13.2046511627907  19.53359375 15.8767441860465  16.5 15.8767441860465  C 15.99296875 15.8767441860465  15.5826171875 15.4325581395349  15.5826171875 14.8837209302326  C 15.5826171875 14.3348837209302  15.99296875 13.8906976744186  16.5 13.8906976744186  C 18.5216796875 13.8906976744186  20.1673828125 12.1093023255814  20.1673828125 9.92093023255817  C 20.1673828125 7.83720930232554  18.661328125 6.09999999999998  16.740625 5.96511627906974  L 16.19921875 5.93023255813955  L 15.9693359375 5.40232558139534  C 15.0626953125 3.32558139534884  13.1119140625 1.98372093023257  11 1.98372093023257  C 8.88808593750001 1.98372093023257  6.93730468750001 3.32558139534884  6.03066406250001 5.40232558139534  L 5.80078125 5.93023255813955  L 5.26152343750001 5.96744186046514  C 3.33867187500001 6.10232558139539  1.83476562500001 7.83953488372094  1.83476562500001 9.9232558139535  C 1.83476562500001 12.1116279069768  3.48046875 13.893023255814  5.50214843749999 13.893023255814  C 6.00917968750001 13.893023255814  6.41953124999999 14.3372093023256  6.41953124999999 14.8860465116279  C 6.41953124999999 15.4348837209302  6.00917968750001 15.8790697674419  5.50214843749999 15.8790697674419  C 2.46855468750001 15.8790697674419  0.00214843749998611 13.2093023255814  0.00214843749998611 9.92558139534882  C 0.00214843749998611 6.99302325581395  1.98945312499999 4.51860465116283  4.61484374999999 4.05581395348834  C 5.90390624999999 1.57441860465118  8.35527343750001 0  11 0  C 13.6447265625 0  16.09609375 1.57441860465118  17.3873046875 4.05116279069769  C 20.0126953125 4.51395348837211  22 6.99069767441862  22 9.9232558139535  Z " fill-rule="nonzero" fill="#aeaeae" stroke="none" transform="matrix(1 0 0 1 179 128 )" />
  </g>
</svg>