<?xml version="1.0" encoding="utf-8"?>
<svg version="1.1" xmlns:xlink="http://www.w3.org/1999/xlink" width="37px" height="37px" xmlns="http://www.w3.org/2000/svg">
  <g transform="matrix(1 0 0 1 -54 -128 )">
    <path d="M 9.2138671875 2.48111979166667  C 12.0482855902778 0.827039930555552  15.1436631944444 0  18.5 0  C 21.8563368055556 0  24.9517144097222 0.827039930555552  27.7861328125 2.48111979166667  C 30.6205512152778 4.13519965277777  32.8648003472222 6.37944878472222  34.5188802083333 9.2138671875  C 36.1729600694444 12.0482855902778  37 15.1436631944444  37 18.5  C 37 21.8563368055556  36.1729600694444 24.9517144097222  34.5188802083333 27.7861328125  C 32.8648003472222 30.6205512152778  30.6205512152778 32.8648003472222  27.7861328125 34.5188802083333  C 24.9517144097222 36.1729600694444  21.8563368055556 37  18.5 37  C 15.1436631944444 37  12.0482855902778 36.1729600694444  9.2138671875 34.5188802083333  C 6.37944878472222 32.8648003472222  4.13519965277778 30.6205512152778  2.48111979166667 27.7861328125  C 0.827039930555555 24.9517144097222  0 21.8563368055556  0 18.5  C 0 15.1436631944444  0.827039930555555 12.0482855902778  2.48111979166667 9.2138671875  C 4.13519965277778 6.37944878472222  6.37944878472222 4.13519965277777  9.2138671875 2.48111979166667  Z M 21.3665364583333 30.6044921875  C 21.5110677083333 30.4519314236111  21.5833333333333 30.2632378472222  21.5833333333333 30.0384114583333  L 21.5833333333333 25.4615885416667  C 21.5833333333333 25.2367621527778  21.5110677083333 25.0480685763889  21.3665364583333 24.8955078125  C 21.2220052083333 24.7429470486111  21.0453559027778 24.6666666666667  20.8365885416667 24.6666666666667  L 16.2115885416667 24.6666666666667  C 16.0028211805556 24.6666666666667  15.8181423611111 24.7469618055556  15.6575520833333 24.9075520833333  C 15.4969618055556 25.0681423611111  15.4166666666667 25.2528211805556  15.4166666666667 25.4615885416667  L 15.4166666666667 30.0384114583333  C 15.4166666666667 30.2471788194444  15.4969618055556 30.4318576388889  15.6575520833333 30.5924479166667  C 15.8181423611111 30.7530381944444  16.0028211805556 30.8333333333333  16.2115885416667 30.8333333333333  L 20.8365885416667 30.8333333333333  C 21.0453559027778 30.8333333333333  21.2220052083333 30.7570529513889  21.3665364583333 30.6044921875  Z M 21.2822265625 22.1735026041667  C 21.4347873263889 22.0530598958333  21.5190972222222 21.9125434027778  21.53515625 21.751953125  L 21.96875 6.79296875  C 21.96875 6.60026041666667  21.8884548611111 6.45572916666667  21.7278645833333 6.359375  C 21.5672743055556 6.23090277777777  21.3745659722222 6.16666666666667  21.1497395833333 6.16666666666667  L 15.8502604166667 6.16666666666667  C 15.6254340277778 6.16666666666667  15.4327256944444 6.23090277777777  15.2721354166667 6.359375  C 15.1115451388889 6.45572916666667  15.03125 6.60026041666667  15.03125 6.79296875  L 15.4407552083333 21.751953125  C 15.4407552083333 21.9125434027778  15.5210503472222 22.0530598958333  15.681640625 22.1735026041667  C 15.8422309027778 22.2939453125  16.0349392361111 22.3541666666667  16.259765625 22.3541666666667  L 20.7161458333333 22.3541666666667  C 20.9409722222222 22.3541666666667  21.1296657986111 22.2939453125  21.2822265625 22.1735026041667  Z " fill-rule="nonzero" fill="#f59a23" stroke="none" transform="matrix(1 0 0 1 54 128 )" />
  </g>
</svg>