<?xml version="1.0" encoding="utf-8"?>
<svg version="1.1" xmlns:xlink="http://www.w3.org/1999/xlink" width="12px" height="12px" viewBox="42 44  12 12" xmlns="http://www.w3.org/2000/svg">
  <path d="M 48 44  C 51.36 44  54 46.64  54 50  C 54 53.36  51.36 56  48 56  C 44.64 56  42 53.36  42 50  C 42 46.64  44.64 44  48 44  Z " fill-rule="nonzero" fill="#ffffff" stroke="none" />
  <path d="M 48 44.5  C 51.08 44.5  53.5 46.92  53.5 50  C 53.5 53.08  51.08 55.5  48 55.5  C 44.92 55.5  42.5 53.08  42.5 50  C 42.5 46.92  44.92 44.5  48 44.5  Z " stroke-width="1" stroke="#797979" fill="none" />
  <path d="M 48 53  C 46.32 53  45 51.68  45 50  C 45 48.32  46.32 47  48 47  C 49.68 47  51 48.32  51 50  C 51 51.68  49.68 53  48 53  " fill-rule="nonzero" fill="#797979" stroke="none" />
</svg>