<?xml version="1.0" encoding="utf-8"?>
<svg version="1.1" xmlns:xlink="http://www.w3.org/1999/xlink" width="13px" height="14px" xmlns="http://www.w3.org/2000/svg">
  <g transform="matrix(1 0 0 1 -550 -167 )">
    <path d="M 11.4272164101063 14  L 1.57246902334676 14  C 0.703663366089574 14  0 13.2420252624303  0 12.3061619692438  L 0 2.86078707567647  C 0 1.92492376660712  0.703663380834421 1.16627136887741  1.57246902334676 1.16627136887741  L 11.4269018583043 1.16627136887741  C 12.2957075155615 1.16627136887741  13 1.92492376660712  13 2.86078707567647  L 13 12.3061619692438  C 13 13.2420252624303  12.2957075008166 14  11.4272164101063 14  Z M 12.4665117981453 3.37378382175528  C 12.4665117981453 2.43859818872881  11.7628484173109 1.6799457909991  10.8940427747986 1.6799457909991  L 2.10595721045659 1.6799457909991  C 1.2371515531994 1.6799457909991  0.532859068760889 2.43859818872881  0.532859068760889 3.37378382175528  L 0.532859068760889 11.7924875312392  C 0.532859068760889 12.7283508403086  1.2371515531994 13.4870032380383  2.10595721045659 13.4870032380383  L 10.8940427747986 13.4870032380383  C 11.7628484320557 13.4870032380383  12.4665117981453 12.7283508403086  12.4665117981453 11.7924875312392  L 12.4665117981453 3.37378382175528  Z M 3.34405244855183 3.79156783824863  L 2.7149390096454 3.79156783824863  C 2.55388596562863 3.79156783824863  2.42365948479239 3.65061231725178  2.42365948479239 3.47780627636646  L 2.42365949953724 0.313761561882169  C 2.42365949953724 0.14027784495397  2.55388598037347 0  2.71493902439024 0  L 3.34405246329667 0  C 3.50510550731344 0  3.63533198814968 0.14027784495397  3.63533198814968 0.313761561882169  L 3.63533198814968 3.47814512232935  C 3.63564652520688 3.65095116321467  3.5051054925686 3.79156783824863  3.34405244855183 3.79156783824863  Z M 6.97969898850356 3.79156783824863  L 6.35058554959712 3.79156783824863  C 6.18953250558036 3.79156783824863  6.05930602474412 3.65061231725178  6.05930602474412 3.47780627636646  L 6.05930603948897 0.313761561882169  C 6.05930603948897 0.14027784495397  6.1895325203252 0  6.35058556434197 0  L 6.9796990032484 0  C 7.14075204726517 0  7.27097852810141 0.14027784495397  7.27097852810141 0.313761561882169  L 7.27097852810141 3.47814512232935  C 7.27097851335656 3.65095116321467  7.14075203252032 3.79156783824863  6.97969898850356 3.79156783824863  Z M 10.3555216703869 3.79156783824863  L 9.72640823148047 3.79156783824863  C 9.58989061138937 3.79156783824863  9.47853753357288 3.67162011575175  9.47853753357288 3.52388789785781  L 9.47853754831772 0.267002280230845  C 9.47853754831772 0.119947722496873  9.58989062613422 0  9.72640824622531 0  L 10.3555216851317 0  C 10.4926684088269 0  10.6040214866434 0.119947722496873  10.6040214866434 0.267002280230845  L 10.6040214866434 3.5242267279378  C 10.6037069200965 3.67195896171464  10.4926684088269 3.79156783824863  10.3555216703869 3.79156783824863  Z M 2.42365949953724 6.41652549342276  L 2.42365949953724 4.95817803720602  L 4.24116821033863 4.95817803720602  L 4.24116821033863 6.41652549342276  L 2.42365949953724 6.41652549342276  Z M 5.45346980255517 6.41652549342276  L 5.45346980255517 4.95817803720602  L 7.27097851335656 4.95817803720602  L 7.27097851335656 6.41652549342276  L 5.45346980255517 6.41652549342276  Z M 8.7858836574931 6.41652549342276  L 8.7858836574931 4.95817803720602  L 10.6037069200965 4.95817803720602  L 10.6037069200965 6.41652549342276  L 8.7858836574931 6.41652549342276  Z M 2.42365949953724 8.75008470553463  L 2.42365949953724 7.29139841923791  L 4.24116821033863 7.29139841923791  L 4.24116821033863 8.75008470553463  L 2.42365949953724 8.75008470553463  Z M 5.45346980255517 8.75008470553463  L 5.45346980255517 7.29139841923791  L 7.27097851335656 7.29139841923791  L 7.27097851335656 8.75008470553463  L 5.45346980255517 8.75008470553463  Z M 8.7858836574931 8.75008470553463  L 8.7858836574931 7.29139841923791  L 10.6037069200965 7.29139841923791  L 10.6037069200965 8.75008470553463  L 8.7858836574931 8.75008470553463  Z M 2.42365949953724 11.0833051034494  L 2.42365949953724 9.62495764723269  L 4.24116821033863 9.62495764723269  L 4.24116821033863 11.0833051034494  L 2.42365949953724 11.0833051034494  Z M 5.45346980255517 11.0833051034494  L 5.45346980255517 9.62495764723269  L 7.27097851335656 9.62495764723269  L 7.27097851335656 11.0833051034494  L 5.45346980255517 11.0833051034494  Z M 8.7858836574931 11.0833051034494  L 8.7858836574931 9.62495764723269  L 10.6037069200965 9.62495764723269  L 10.6037069200965 11.0833051034494  L 8.7858836574931 11.0833051034494  Z " fill-rule="nonzero" fill="#666666" stroke="none" transform="matrix(1 0 0 1 550 167 )" />
  </g>
</svg>