<?xml version="1.0" encoding="utf-8"?>
<svg version="1.1" xmlns:xlink="http://www.w3.org/1999/xlink" width="10px" height="8px" xmlns="http://www.w3.org/2000/svg">
  <g transform="matrix(1 0 0 1 -138 -10 )">
    <path d="M 0.3515625 0  L 0.3515625 8  L 0 8  L 0 0  L 0.3515625 0  Z M 0.703125 0  L 0.703125 7.99431818181818  L 0.524553571428571 7.99431818181818  L 0.524553571428571 0  L 0.703125 0  Z M 1.22767857142857 0  L 1.22767857142857 7.99431818181818  L 1.0546875 7.99431818181818  L 1.0546875 0  L 1.22767857142857 0  Z M 2.10379464285714 0  L 2.10379464285714 7.99431818181818  L 1.93080357142857 7.99431818181818  L 1.93080357142857 0  L 2.10379464285714 0  Z M 2.97991071428571 0  L 2.97991071428571 7.99431818181818  L 2.63392857142857 7.99431818181818  L 2.63392857142857 0  L 2.97991071428571 0  Z M 3.68303571428571 0  L 3.68303571428571 7.99431818181818  L 3.51004464285714 7.99431818181818  L 3.51004464285714 0  L 3.68303571428571 0  Z M 4.03459821428571 0  L 4.03459821428571 7.99431818181818  L 3.86160714285714 7.99431818181818  L 3.86160714285714 0  L 4.03459821428571 0  Z M 4.38616071428571 0  L 4.38616071428571 7.99431818181818  L 4.21316964285714 7.99431818181818  L 4.21316964285714 0  L 4.38616071428571 0  Z M 5.26227678571429 0  L 5.26227678571429 7.99431818181818  L 4.91071428571429 7.99431818181818  L 4.91071428571429 0  L 5.26227678571429 0  Z M 6.13839285714286 0  L 6.13839285714286 7.99431818181818  L 5.78683035714286 7.99431818181818  L 5.78683035714286 0  L 6.13839285714286 0  Z M 6.84151785714286 0  L 6.84151785714286 7.99431818181818  L 6.48995535714286 7.99431818181818  L 6.48995535714286 0  L 6.84151785714286 0  Z M 7.54464285714286 0  L 7.54464285714286 7.99431818181818  L 7.19308035714286 7.99431818181818  L 7.19308035714286 0  L 7.54464285714286 0  Z M 8.06919642857143 0  L 8.06919642857143 7.99431818181818  L 7.71763392857143 7.99431818181818  L 7.71763392857143 0  L 8.06919642857143 0  Z M 9.12388392857143 0  L 9.12388392857143 7.99431818181818  L 8.59933035714286 7.99431818181818  L 8.59933035714286 0  L 9.12388392857143 0  Z M 9.47544642857143 0  L 9.47544642857143 7.99431818181818  L 9.296875 7.99431818181818  L 9.296875 0  L 9.47544642857143 0  Z M 10 0  L 10 8  L 9.6484375 8  L 9.6484375 0  L 10 0  Z " fill-rule="nonzero" fill="#21b5ff" stroke="none" transform="matrix(1 0 0 1 138 10 )" />
  </g>
</svg>