<?xml version="1.0" encoding="utf-8"?>
<svg version="1.1" xmlns:xlink="http://www.w3.org/1999/xlink" width="199px" height="10px" preserveAspectRatio="xMinYMid meet" viewBox="231 619  199 8" xmlns="http://www.w3.org/2000/svg">
  <defs>
    <mask fill="white" id="clip303">
      <path d="M 463 640  L 583 640  L 583 684  L 463 684  Z M 222 614  L 791 614  L 791 728  L 222 728  Z " fill-rule="evenodd" />
    </mask>
  </defs>
  <path d="M 792 725.5  L 781.5 725.5  L 781.5 662.5  L 723 662.5  A 3 3 0 0 0 720 659.5 A 3 3 0 0 0 717 662.5 L 683 662.5  A 3 3 0 0 0 680 659.5 A 3 3 0 0 0 677 662.5 L 559 662.5  A 3 3 0 0 0 556 659.5 A 3 3 0 0 0 553 662.5 L 425.5 662.5  L 425.5 623.5  L 373 623.5  A 3 3 0 0 0 370 620.5 A 3 3 0 0 0 367 623.5 L 303 623.5  A 3 3 0 0 0 300 620.5 A 3 3 0 0 0 297 623.5 L 232.5 623.5  " stroke-width="1" stroke-dasharray="3,1" stroke="#eb3223" fill="none" mask="url(#clip303)" />
  <path d="M 237.553553390593 628.146446609407  L 232.907106781186 623.5  L 237.553553390593 618.853553390593  L 236.846446609407 618.146446609407  L 231.846446609407 623.146446609407  L 231.492893218813 623.5  L 231.846446609407 623.853553390593  L 236.846446609407 628.853553390593  L 237.553553390593 628.146446609407  Z " fill-rule="nonzero" fill="#eb3223" stroke="none" mask="url(#clip303)" />
</svg>