<?xml version="1.0" encoding="utf-8"?>
<svg version="1.1" xmlns:xlink="http://www.w3.org/1999/xlink" width="47px" height="10px" preserveAspectRatio="xMinYMid meet" viewBox="231 414  47 8" xmlns="http://www.w3.org/2000/svg">
  <defs>
    <mask fill="white" id="clip309">
      <path d="M 734.5 456  L 839.5 456  L 839.5 483  L 734.5 483  Z M 222 409  L 1137 409  L 1137 728  L 222 728  Z " fill-rule="evenodd" />
    </mask>
  </defs>
  <path d="M 1138 725.5  L 1115.5 725.5  L 1115.5 469.5  L 1063 469.5  A 3 3 0 0 0 1060 466.5 A 3 3 0 0 0 1057 469.5 L 1023 469.5  A 3 3 0 0 0 1020 466.5 A 3 3 0 0 0 1017 469.5 L 904 469.5  A 3 3 0 0 0 901 466.5 A 3 3 0 0 0 898 469.5 L 723 469.5  A 3 3 0 0 0 720 466.5 A 3 3 0 0 0 717 469.5 L 683 469.5  A 3 3 0 0 0 680 466.5 A 3 3 0 0 0 677 469.5 L 559 469.5  A 3 3 0 0 0 556 466.5 A 3 3 0 0 0 553 469.5 L 373 469.5  A 3 3 0 0 0 370 466.5 A 3 3 0 0 0 367 469.5 L 303 469.5  A 3 3 0 0 0 300 466.5 A 3 3 0 0 0 297 469.5 L 273.5 469.5  L 273.5 418.5  L 232.5 418.5  " stroke-width="1" stroke-dasharray="3,1" stroke="#eb3223" fill="none" mask="url(#clip309)" />
  <path d="M 237.553553390593 423.146446609407  L 232.907106781187 418.5  L 237.553553390593 413.853553390593  L 236.846446609407 413.146446609407  L 231.846446609407 418.146446609407  L 231.492893218813 418.5  L 231.846446609407 418.853553390593  L 236.846446609407 423.853553390593  L 237.553553390593 423.146446609407  Z " fill-rule="nonzero" fill="#eb3223" stroke="none" mask="url(#clip309)" />
</svg>