<?xml version="1.0" encoding="utf-8"?>
<svg version="1.1" xmlns:xlink="http://www.w3.org/1999/xlink" width="16px" height="16px" viewBox="69 300  16 16" xmlns="http://www.w3.org/2000/svg">
  <path d="M 69.5 303  A 2.5 2.5 0 0 1 72 300.5 L 82 300.5  A 2.5 2.5 0 0 1 84.5 303 L 84.5 313  A 2.5 2.5 0 0 1 82 315.5 L 72 315.5  A 2.5 2.5 0 0 1 69.5 313 L 69.5 303  Z " fill-rule="nonzero" fill="#ffffff" stroke="none" />
  <path d="M 69.5 303  A 2.5 2.5 0 0 1 72 300.5 L 82 300.5  A 2.5 2.5 0 0 1 84.5 303 L 84.5 313  A 2.5 2.5 0 0 1 82 315.5 L 72 315.5  A 2.5 2.5 0 0 1 69.5 313 L 69.5 303  Z " stroke-width="1" stroke="#797979" fill="none" />
</svg>