<?xml version="1.0" encoding="utf-8"?>
<svg version="1.1" xmlns:xlink="http://www.w3.org/1999/xlink" width="16px" height="16px" viewBox="69 376  16 16" xmlns="http://www.w3.org/2000/svg">
  <path d="M 69.5 379  A 2.5 2.5 0 0 1 72 376.5 L 82 376.5  A 2.5 2.5 0 0 1 84.5 379 L 84.5 389  A 2.5 2.5 0 0 1 82 391.5 L 72 391.5  A 2.5 2.5 0 0 1 69.5 389 L 69.5 379  Z " fill-rule="nonzero" fill="#ffffff" stroke="none" />
  <path d="M 69.5 379  A 2.5 2.5 0 0 1 72 376.5 L 82 376.5  A 2.5 2.5 0 0 1 84.5 379 L 84.5 389  A 2.5 2.5 0 0 1 82 391.5 L 72 391.5  A 2.5 2.5 0 0 1 69.5 389 L 69.5 379  Z " stroke-width="1" stroke="#797979" fill="none" />
</svg>