<?xml version="1.0" encoding="utf-8"?>
<svg version="1.1" xmlns:xlink="http://www.w3.org/1999/xlink" width="16px" height="16px" viewBox="69 413  16 16" xmlns="http://www.w3.org/2000/svg">
  <path d="M 69.5 416  A 2.5 2.5 0 0 1 72 413.5 L 82 413.5  A 2.5 2.5 0 0 1 84.5 416 L 84.5 426  A 2.5 2.5 0 0 1 82 428.5 L 72 428.5  A 2.5 2.5 0 0 1 69.5 426 L 69.5 416  Z " fill-rule="nonzero" fill="#ffffff" stroke="none" />
  <path d="M 69.5 416  A 2.5 2.5 0 0 1 72 413.5 L 82 413.5  A 2.5 2.5 0 0 1 84.5 416 L 84.5 426  A 2.5 2.5 0 0 1 82 428.5 L 72 428.5  A 2.5 2.5 0 0 1 69.5 426 L 69.5 416  Z " stroke-width="1" stroke="#797979" fill="none" />
  <path d="M 72.4285714285714 421  L 75.8571428571429 424.428571428571  " stroke-width="3.42857142857143" stroke="#797979" fill="none" />
  <path d="M 75.8571428571429 424.428571428571  L 81.5714285714286 416.428571428571  " stroke-width="3.42857142857143" stroke="#797979" fill="none" />
</svg>