<?xml version="1.0" encoding="utf-8"?>
<svg version="1.1" xmlns:xlink="http://www.w3.org/1999/xlink" width="16px" height="16px" viewBox="69 448  16 16" xmlns="http://www.w3.org/2000/svg">
  <path d="M 69.5 451  A 2.5 2.5 0 0 1 72 448.5 L 82 448.5  A 2.5 2.5 0 0 1 84.5 451 L 84.5 461  A 2.5 2.5 0 0 1 82 463.5 L 72 463.5  A 2.5 2.5 0 0 1 69.5 461 L 69.5 451  Z " fill-rule="nonzero" fill="#ffffff" stroke="none" />
  <path d="M 69.5 451  A 2.5 2.5 0 0 1 72 448.5 L 82 448.5  A 2.5 2.5 0 0 1 84.5 451 L 84.5 461  A 2.5 2.5 0 0 1 82 463.5 L 72 463.5  A 2.5 2.5 0 0 1 69.5 461 L 69.5 451  Z " stroke-width="1" stroke="#797979" fill="none" />
</svg>