<?xml version="1.0" encoding="utf-8"?>
<svg version="1.1" xmlns:xlink="http://www.w3.org/1999/xlink" width="16px" height="16px" viewBox="69 518  16 16" xmlns="http://www.w3.org/2000/svg">
  <path d="M 69.5 521  A 2.5 2.5 0 0 1 72 518.5 L 82 518.5  A 2.5 2.5 0 0 1 84.5 521 L 84.5 531  A 2.5 2.5 0 0 1 82 533.5 L 72 533.5  A 2.5 2.5 0 0 1 69.5 531 L 69.5 521  Z " fill-rule="nonzero" fill="#f0f0f0" stroke="none" />
  <path d="M 69.5 521  A 2.5 2.5 0 0 1 72 518.5 L 82 518.5  A 2.5 2.5 0 0 1 84.5 521 L 84.5 531  A 2.5 2.5 0 0 1 82 533.5 L 72 533.5  A 2.5 2.5 0 0 1 69.5 531 L 69.5 521  Z " stroke-width="1" stroke="#797979" fill="none" />
</svg>