<?xml version="1.0" encoding="utf-8"?>
<svg version="1.1" xmlns:xlink="http://www.w3.org/1999/xlink" width="16px" height="16px" viewBox="69 555  16 16" xmlns="http://www.w3.org/2000/svg">
  <path d="M 69.5 558  A 2.5 2.5 0 0 1 72 555.5 L 82 555.5  A 2.5 2.5 0 0 1 84.5 558 L 84.5 568  A 2.5 2.5 0 0 1 82 570.5 L 72 570.5  A 2.5 2.5 0 0 1 69.5 568 L 69.5 558  Z " fill-rule="nonzero" fill="#ffffff" stroke="none" />
  <path d="M 69.5 558  A 2.5 2.5 0 0 1 72 555.5 L 82 555.5  A 2.5 2.5 0 0 1 84.5 558 L 84.5 568  A 2.5 2.5 0 0 1 82 570.5 L 72 570.5  A 2.5 2.5 0 0 1 69.5 568 L 69.5 558  Z " stroke-width="1" stroke="#797979" fill="none" />
</svg>