<?xml version="1.0" encoding="utf-8"?>
<svg version="1.1" xmlns:xlink="http://www.w3.org/1999/xlink" width="16px" height="16px" viewBox="69 627  16 16" xmlns="http://www.w3.org/2000/svg">
  <path d="M 69.5 630  A 2.5 2.5 0 0 1 72 627.5 L 82 627.5  A 2.5 2.5 0 0 1 84.5 630 L 84.5 640  A 2.5 2.5 0 0 1 82 642.5 L 72 642.5  A 2.5 2.5 0 0 1 69.5 640 L 69.5 630  Z " fill-rule="nonzero" fill="#f0f0f0" stroke="none" />
  <path d="M 69.5 630  A 2.5 2.5 0 0 1 72 627.5 L 82 627.5  A 2.5 2.5 0 0 1 84.5 630 L 84.5 640  A 2.5 2.5 0 0 1 82 642.5 L 72 642.5  A 2.5 2.5 0 0 1 69.5 640 L 69.5 630  Z " stroke-width="1" stroke="#797979" fill="none" />
</svg>