<?xml version="1.0" encoding="utf-8"?>
<svg version="1.1" xmlns:xlink="http://www.w3.org/1999/xlink" width="32px" height="32px" xmlns="http://www.w3.org/2000/svg">
  <g transform="matrix(1 0 0 1 -82 -144 )">
    <path d="M 7.96875 2.14583333333333  C 10.4201388888889 0.715277777777775  13.0972222222222 0  16 0  C 18.9027777777778 0  21.5798611111111 0.715277777777775  24.03125 2.14583333333333  C 26.4826388888889 3.57638888888889  28.4236111111111 5.51736111111111  29.8541666666667 7.96875  C 31.2847222222222 10.4201388888889  32 13.0972222222222  32 16  C 32 18.9027777777778  31.2847222222222 21.5798611111111  29.8541666666667 24.03125  C 28.4236111111111 26.4826388888889  26.4826388888889 28.4236111111111  24.03125 29.8541666666667  C 21.5798611111111 31.2847222222222  18.9027777777778 32  16 32  C 13.0972222222222 32  10.4201388888889 31.2847222222222  7.96875 29.8541666666667  C 5.51736111111111 28.4236111111111  3.57638888888889 26.4826388888889  2.14583333333333 24.03125  C 0.715277777777778 21.5798611111111  0 18.9027777777778  0 16  C 0 13.0972222222222  0.715277777777778 10.4201388888889  2.14583333333333 7.96875  C 3.57638888888889 5.51736111111111  5.51736111111111 3.57638888888889  7.96875 2.14583333333333  Z M 18.4791666666667 26.46875  C 18.6041666666667 26.3368055555556  18.6666666666667 26.1736111111111  18.6666666666667 25.9791666666667  L 18.6666666666667 22.0208333333333  C 18.6666666666667 21.8263888888889  18.6041666666667 21.6631944444444  18.4791666666667 21.53125  C 18.3541666666667 21.3993055555556  18.2013888888889 21.3333333333333  18.0208333333333 21.3333333333333  L 14.0208333333333 21.3333333333333  C 13.8402777777778 21.3333333333333  13.6805555555556 21.4027777777778  13.5416666666667 21.5416666666667  C 13.4027777777778 21.6805555555556  13.3333333333333 21.8402777777778  13.3333333333333 22.0208333333333  L 13.3333333333333 25.9791666666667  C 13.3333333333333 26.1597222222222  13.4027777777778 26.3194444444444  13.5416666666667 26.4583333333333  C 13.6805555555556 26.5972222222222  13.8402777777778 26.6666666666667  14.0208333333333 26.6666666666667  L 18.0208333333333 26.6666666666667  C 18.2013888888889 26.6666666666667  18.3541666666667 26.6006944444444  18.4791666666667 26.46875  Z M 18.40625 19.1770833333333  C 18.5381944444444 19.0729166666667  18.6111111111111 18.9513888888889  18.625 18.8125  L 19 5.875  C 19 5.70833333333333  18.9305555555556 5.58333333333333  18.7916666666667 5.5  C 18.6527777777778 5.38888888888889  18.4861111111111 5.33333333333333  18.2916666666667 5.33333333333333  L 13.7083333333333 5.33333333333333  C 13.5138888888889 5.33333333333333  13.3472222222222 5.38888888888889  13.2083333333333 5.5  C 13.0694444444444 5.58333333333333  13 5.70833333333333  13 5.875  L 13.3541666666667 18.8125  C 13.3541666666667 18.9513888888889  13.4236111111111 19.0729166666667  13.5625 19.1770833333333  C 13.7013888888889 19.28125  13.8680555555556 19.3333333333333  14.0625 19.3333333333333  L 17.9166666666667 19.3333333333333  C 18.1111111111111 19.3333333333333  18.2743055555556 19.28125  18.40625 19.1770833333333  Z " fill-rule="nonzero" fill="#d9001b" stroke="none" transform="matrix(1 0 0 1 82 144 )" />
  </g>
</svg>