<?xml version="1.0" encoding="utf-8"?>
<svg version="1.1" xmlns:xlink="http://www.w3.org/1999/xlink" width="277px" height="10px" preserveAspectRatio="xMinYMid meet" viewBox="825 276  277 8" xmlns="http://www.w3.org/2000/svg">
  <path d="M 1097.5 262  L 1097.5 280.5  L 830.5 280.5  L 830.5 190.5  L 788.5 190.5  L 788.5 208  " stroke-width="1" stroke-dasharray="3,1" stroke="#00ffff" fill="none" />
  <path d="M 1097.5 261  A 3 3 0 0 0 1094.5 264 A 3 3 0 0 0 1097.5 267 A 3 3 0 0 0 1100.5 264 A 3 3 0 0 0 1097.5 261 Z M 788.5 203  A 3 3 0 0 0 785.5 206 A 3 3 0 0 0 788.5 209 A 3 3 0 0 0 791.5 206 A 3 3 0 0 0 788.5 203 Z " fill-rule="nonzero" fill="#00ffff" stroke="none" />
</svg>