<?xml version="1.0" encoding="utf-8"?>
<svg version="1.1" xmlns:xlink="http://www.w3.org/1999/xlink" width="16px" height="16px" viewBox="39 223  16 16" xmlns="http://www.w3.org/2000/svg">
  <path d="M 39.5 226  A 2.5 2.5 0 0 1 42 223.5 L 52 223.5  A 2.5 2.5 0 0 1 54.5 226 L 54.5 236  A 2.5 2.5 0 0 1 52 238.5 L 42 238.5  A 2.5 2.5 0 0 1 39.5 236 L 39.5 226  Z " fill-rule="nonzero" fill="#f0f0f0" stroke="none" />
  <path d="M 39.5 226  A 2.5 2.5 0 0 1 42 223.5 L 52 223.5  A 2.5 2.5 0 0 1 54.5 226 L 54.5 236  A 2.5 2.5 0 0 1 52 238.5 L 42 238.5  A 2.5 2.5 0 0 1 39.5 236 L 39.5 226  Z " stroke-width="1" stroke="#797979" fill="none" />
  <path d="M 42.4285714285714 231  L 45.8571428571429 234.428571428571  " stroke-width="3.42857142857143" stroke="#797979" fill="none" />
  <path d="M 45.8571428571429 234.428571428571  L 51.5714285714286 226.428571428571  " stroke-width="3.42857142857143" stroke="#797979" fill="none" />
</svg>