<?xml version="1.0" encoding="utf-8"?>
<svg version="1.1" xmlns:xlink="http://www.w3.org/1999/xlink" width="16px" height="16px" viewBox="41 286  16 16" xmlns="http://www.w3.org/2000/svg">
  <path d="M 41.5 289  A 2.5 2.5 0 0 1 44 286.5 L 54 286.5  A 2.5 2.5 0 0 1 56.5 289 L 56.5 299  A 2.5 2.5 0 0 1 54 301.5 L 44 301.5  A 2.5 2.5 0 0 1 41.5 299 L 41.5 289  Z " fill-rule="nonzero" fill="#f0f0f0" stroke="none" />
  <path d="M 41.5 289  A 2.5 2.5 0 0 1 44 286.5 L 54 286.5  A 2.5 2.5 0 0 1 56.5 289 L 56.5 299  A 2.5 2.5 0 0 1 54 301.5 L 44 301.5  A 2.5 2.5 0 0 1 41.5 299 L 41.5 289  Z " stroke-width="1" stroke="#797979" fill="none" />
</svg>