<?xml version="1.0" encoding="utf-8"?>
<svg version="1.1" xmlns:xlink="http://www.w3.org/1999/xlink" width="16px" height="16px" viewBox="39 190  16 16" xmlns="http://www.w3.org/2000/svg">
  <path d="M 39.5 193  A 2.5 2.5 0 0 1 42 190.5 L 52 190.5  A 2.5 2.5 0 0 1 54.5 193 L 54.5 203  A 2.5 2.5 0 0 1 52 205.5 L 42 205.5  A 2.5 2.5 0 0 1 39.5 203 L 39.5 193  Z " fill-rule="nonzero" fill="#f0f0f0" stroke="none" />
  <path d="M 39.5 193  A 2.5 2.5 0 0 1 42 190.5 L 52 190.5  A 2.5 2.5 0 0 1 54.5 193 L 54.5 203  A 2.5 2.5 0 0 1 52 205.5 L 42 205.5  A 2.5 2.5 0 0 1 39.5 203 L 39.5 193  Z " stroke-width="1" stroke="#797979" fill="none" />
</svg>