<?xml version="1.0" encoding="utf-8"?>
<svg version="1.1" xmlns:xlink="http://www.w3.org/1999/xlink" width="68px" height="28px" xmlns="http://www.w3.org/2000/svg">
  <defs>
    <mask fill="white" id="clip352">
      <path d="M 0 25  L 0 3  C 0 1.31999999999999  1.60285714285713 0  3.64285714285714 0  L 21.8571428571429 0  L 64.3571428571429 0  C 66.3971428571429 0  68 1.31999999999999  68 3  L 68 25  C 68 26.68  66.3971428571429 28  64.3571428571429 28  L 3.64285714285714 28  C 1.60285714285713 28  0 26.68  0 25  Z " fill-rule="evenodd" />
    </mask>
  </defs>
  <g transform="matrix(1 0 0 1 -142 -98 )">
    <path d="M 0 25  L 0 3  C 0 1.31999999999999  1.60285714285713 0  3.64285714285714 0  L 21.8571428571429 0  L 64.3571428571429 0  C 66.3971428571429 0  68 1.31999999999999  68 3  L 68 25  C 68 26.68  66.3971428571429 28  64.3571428571429 28  L 3.64285714285714 28  C 1.60285714285713 28  0 26.68  0 25  Z " fill-rule="nonzero" fill="#ffffff" stroke="none" transform="matrix(1 0 0 1 142 98 )" />
    <path d="M 0 25  L 0 3  C 0 1.31999999999999  1.60285714285713 0  3.64285714285714 0  L 21.8571428571429 0  L 64.3571428571429 0  C 66.3971428571429 0  68 1.31999999999999  68 3  L 68 25  C 68 26.68  66.3971428571429 28  64.3571428571429 28  L 3.64285714285714 28  C 1.60285714285713 28  0 26.68  0 25  Z " stroke-width="2" stroke="#81d3f8" fill="none" transform="matrix(1 0 0 1 142 98 )" mask="url(#clip352)" />
  </g>
</svg>