<?xml version="1.0" encoding="utf-8"?>
<svg version="1.1" xmlns:xlink="http://www.w3.org/1999/xlink" width="16px" height="16px" viewBox="50 159  16 16" xmlns="http://www.w3.org/2000/svg">
  <path d="M 50.5 162  A 2.5 2.5 0 0 1 53 159.5 L 63 159.5  A 2.5 2.5 0 0 1 65.5 162 L 65.5 172  A 2.5 2.5 0 0 1 63 174.5 L 53 174.5  A 2.5 2.5 0 0 1 50.5 172 L 50.5 162  Z " fill-rule="nonzero" fill="#ffffff" stroke="none" />
  <path d="M 50.5 162  A 2.5 2.5 0 0 1 53 159.5 L 63 159.5  A 2.5 2.5 0 0 1 65.5 162 L 65.5 172  A 2.5 2.5 0 0 1 63 174.5 L 53 174.5  A 2.5 2.5 0 0 1 50.5 172 L 50.5 162  Z " stroke-width="1" stroke="#797979" fill="none" />
  <path d="M 53.4285714285714 167  L 56.8571428571429 170.428571428571  " stroke-width="3.42857142857143" stroke="#797979" fill="none" />
  <path d="M 56.8571428571429 170.428571428571  L 62.5714285714286 162.428571428571  " stroke-width="3.42857142857143" stroke="#797979" fill="none" />
</svg>