<?xml version="1.0" encoding="utf-8"?>
<svg version="1.1" xmlns:xlink="http://www.w3.org/1999/xlink" width="16px" height="16px" viewBox="50 131  16 16" xmlns="http://www.w3.org/2000/svg">
  <path d="M 50.5 134  A 2.5 2.5 0 0 1 53 131.5 L 63 131.5  A 2.5 2.5 0 0 1 65.5 134 L 65.5 144  A 2.5 2.5 0 0 1 63 146.5 L 53 146.5  A 2.5 2.5 0 0 1 50.5 144 L 50.5 134  Z " fill-rule="nonzero" fill="#ffffff" stroke="none" />
  <path d="M 50.5 134  A 2.5 2.5 0 0 1 53 131.5 L 63 131.5  A 2.5 2.5 0 0 1 65.5 134 L 65.5 144  A 2.5 2.5 0 0 1 63 146.5 L 53 146.5  A 2.5 2.5 0 0 1 50.5 144 L 50.5 134  Z " stroke-width="1" stroke="#797979" fill="none" />
  <path d="M 53.4285714285714 139  L 56.8571428571429 142.428571428571  " stroke-width="3.42857142857143" stroke="#797979" fill="none" />
  <path d="M 56.8571428571429 142.428571428571  L 62.5714285714286 134.428571428571  " stroke-width="3.42857142857143" stroke="#797979" fill="none" />
</svg>