<?xml version="1.0" encoding="utf-8"?>
<svg version="1.1" xmlns:xlink="http://www.w3.org/1999/xlink" width="32px" height="39px" xmlns="http://www.w3.org/2000/svg">
  <defs>
    <mask fill="white" id="clip277">
      <path d="M 22 10.15  C 22 17.4  15.4 21.75  11 29  C 6.6 21.75  0 17.4  0 10.15  C 0 6.98657147177585  1.54901646511278 1.98544613721336  7.2466265181111 0.458032708523291  C 8.33959002456122 0.165095812503125  9.58440062650314 0  11 0  C 19.8 0  22 6.38  22 10.15  Z " fill-rule="evenodd" />
    </mask>
    <filter x="74px" y="278px" width="32px" height="39px" filterUnits="userSpaceOnUse" id="filter278">
      <feOffset dx="1" dy="1" in="SourceAlpha" result="shadowOffsetInner" />
      <feGaussianBlur stdDeviation="2.5" in="shadowOffsetInner" result="shadowGaussian" />
      <feComposite in2="shadowGaussian" operator="atop" in="SourceAlpha" result="shadowComposite" />
      <feColorMatrix type="matrix" values="0 0 0 0 0  0 0 0 0 0  0 0 0 0 0  0 0 0 0.698039215686274 0  " in="shadowComposite" />
    </filter>
    <g id="widget279">
      <path d="M 22 10.15  C 22 17.4  15.4 21.75  11 29  C 6.6 21.75  0 17.4  0 10.15  C 0 6.98657147177585  1.54901646511278 1.98544613721336  7.2466265181111 0.458032708523291  C 8.33959002456122 0.165095812503125  9.58440062650314 0  11 0  C 19.8 0  22 6.38  22 10.15  Z " fill-rule="nonzero" fill="#009dd9" stroke="none" transform="matrix(1 0 0 1 78 282 )" />
      <path d="M 22 10.15  C 22 17.4  15.4 21.75  11 29  C 6.6 21.75  0 17.4  0 10.15  C 0 6.98657147177585  1.54901646511278 1.98544613721336  7.2466265181111 0.458032708523291  C 8.33959002456122 0.165095812503125  9.58440062650314 0  11 0  C 19.8 0  22 6.38  22 10.15  Z " stroke-width="2" stroke="#ffffff" fill="none" transform="matrix(1 0 0 1 78 282 )" mask="url(#clip277)" />
    </g>
  </defs>
  <g transform="matrix(1 0 0 1 -74 -278 )">
    <use xlink:href="#widget279" filter="url(#filter278)" />
    <use xlink:href="#widget279" />
  </g>
</svg>