<?xml version="1.0" encoding="utf-8"?>
<svg version="1.1" xmlns:xlink="http://www.w3.org/1999/xlink" width="30px" height="39px" xmlns="http://www.w3.org/2000/svg">
  <defs>
    <mask fill="white" id="clip274">
      <path d="M 20 10.15  C 20 12.8628107385186  19.1599324115457 15.1695888092843  17.898913441541 17.3741934623025  C 17.4416189058652 18.1736688747515  16.9289663278787 18.9597077702282  16.3809431686623 19.7468010580162  C 14.4014619322279 22.5898130152615  11.9605067871983 25.4465814482031  10 29  C 7.12159186003669 23.7828852463164  3.20752954254726 20.0674690500455  1.23884846230999 15.6925007354733  C 0.991005812282992 15.1417239988285  0.773995473107334 14.5804940329941  0.593765420201407 14.004498555792  C 0.430294542612955 13.4820635643628  0.297081752424901 12.947481409907  0.198565268520042 12.3975343837349  C 0.0695138618027613 11.6771327358651  0 10.9303655512016  0 10.15  C 0 6.38  2 0  10 0  C 15.4873803306882 0  18.1518222650991 3.00172449470801  19.2842038557726 6.10392506104131  C 19.8027134904555 7.52441381475489  20 8.9659279808368  20 10.15  Z " fill-rule="evenodd" />
    </mask>
    <filter x="1079px" y="373px" width="30px" height="39px" filterUnits="userSpaceOnUse" id="filter275">
      <feOffset dx="1" dy="1" in="SourceAlpha" result="shadowOffsetInner" />
      <feGaussianBlur stdDeviation="2.5" in="shadowOffsetInner" result="shadowGaussian" />
      <feComposite in2="shadowGaussian" operator="atop" in="SourceAlpha" result="shadowComposite" />
      <feColorMatrix type="matrix" values="0 0 0 0 0  0 0 0 0 0  0 0 0 0 0  0 0 0 0.698039215686274 0  " in="shadowComposite" />
    </filter>
    <g id="widget276">
      <path d="M 20 10.15  C 20 12.8628107385186  19.1599324115457 15.1695888092843  17.898913441541 17.3741934623025  C 17.4416189058652 18.1736688747515  16.9289663278787 18.9597077702282  16.3809431686623 19.7468010580162  C 14.4014619322279 22.5898130152615  11.9605067871983 25.4465814482031  10 29  C 7.12159186003669 23.7828852463164  3.20752954254726 20.0674690500455  1.23884846230999 15.6925007354733  C 0.991005812282992 15.1417239988285  0.773995473107334 14.5804940329941  0.593765420201407 14.004498555792  C 0.430294542612955 13.4820635643628  0.297081752424901 12.947481409907  0.198565268520042 12.3975343837349  C 0.0695138618027613 11.6771327358651  0 10.9303655512016  0 10.15  C 0 6.38  2 0  10 0  C 15.4873803306882 0  18.1518222650991 3.00172449470801  19.2842038557726 6.10392506104131  C 19.8027134904555 7.52441381475489  20 8.9659279808368  20 10.15  Z " fill-rule="nonzero" fill="#009dd9" stroke="none" transform="matrix(1 0 0 1 1083 377 )" />
      <path d="M 20 10.15  C 20 12.8628107385186  19.1599324115457 15.1695888092843  17.898913441541 17.3741934623025  C 17.4416189058652 18.1736688747515  16.9289663278787 18.9597077702282  16.3809431686623 19.7468010580162  C 14.4014619322279 22.5898130152615  11.9605067871983 25.4465814482031  10 29  C 7.12159186003669 23.7828852463164  3.20752954254726 20.0674690500455  1.23884846230999 15.6925007354733  C 0.991005812282992 15.1417239988285  0.773995473107334 14.5804940329941  0.593765420201407 14.004498555792  C 0.430294542612955 13.4820635643628  0.297081752424901 12.947481409907  0.198565268520042 12.3975343837349  C 0.0695138618027613 11.6771327358651  0 10.9303655512016  0 10.15  C 0 6.38  2 0  10 0  C 15.4873803306882 0  18.1518222650991 3.00172449470801  19.2842038557726 6.10392506104131  C 19.8027134904555 7.52441381475489  20 8.9659279808368  20 10.15  Z " stroke-width="2" stroke="#ffffff" fill="none" transform="matrix(1 0 0 1 1083 377 )" mask="url(#clip274)" />
    </g>
  </defs>
  <g transform="matrix(1 0 0 1 -1079 -373 )">
    <use xlink:href="#widget276" filter="url(#filter275)" />
    <use xlink:href="#widget276" />
  </g>
</svg>