<?xml version="1.0" encoding="utf-8"?>
<svg version="1.1" xmlns:xlink="http://www.w3.org/1999/xlink" width="32px" height="39px" xmlns="http://www.w3.org/2000/svg">
  <defs>
    <mask fill="white" id="clip359">
      <path d="M 22 10.15  C 22 13.8039395305354  20.3235498879897 16.7212570421572  18.0972054957383 19.6444552421678  C 15.906126800132 22.5213494555561  13.1824366987096 25.4039395305354  11 29  C 6.60000000000002 21.75  0 17.4  0 10.15  C 0 6.98657147177585  1.5490164651128 1.98544613721336  7.24662651811104 0.458032708523291  C 8.33959002456118 0.165095812503125  9.58440062650311 0  11 0  C 19.8 0  22 6.38  22 10.15  Z " fill-rule="evenodd" />
    </mask>
    <filter x="962px" y="0px" width="32px" height="39px" filterUnits="userSpaceOnUse" id="filter360">
      <feOffset dx="1" dy="1" in="SourceAlpha" result="shadowOffsetInner" />
      <feGaussianBlur stdDeviation="2.5" in="shadowOffsetInner" result="shadowGaussian" />
      <feComposite in2="shadowGaussian" operator="atop" in="SourceAlpha" result="shadowComposite" />
      <feColorMatrix type="matrix" values="0 0 0 0 0  0 0 0 0 0  0 0 0 0 0  0 0 0 0.698039215686274 0  " in="shadowComposite" />
    </filter>
    <g id="widget361">
      <path d="M 22 10.15  C 22 13.8039395305354  20.3235498879897 16.7212570421572  18.0972054957383 19.6444552421678  C 15.906126800132 22.5213494555561  13.1824366987096 25.4039395305354  11 29  C 6.60000000000002 21.75  0 17.4  0 10.15  C 0 6.98657147177585  1.5490164651128 1.98544613721336  7.24662651811104 0.458032708523291  C 8.33959002456118 0.165095812503125  9.58440062650311 0  11 0  C 19.8 0  22 6.38  22 10.15  Z " fill-rule="nonzero" fill="#009dd9" stroke="none" transform="matrix(1 0 0 1 966 4 )" />
      <path d="M 22 10.15  C 22 13.8039395305354  20.3235498879897 16.7212570421572  18.0972054957383 19.6444552421678  C 15.906126800132 22.5213494555561  13.1824366987096 25.4039395305354  11 29  C 6.60000000000002 21.75  0 17.4  0 10.15  C 0 6.98657147177585  1.5490164651128 1.98544613721336  7.24662651811104 0.458032708523291  C 8.33959002456118 0.165095812503125  9.58440062650311 0  11 0  C 19.8 0  22 6.38  22 10.15  Z " stroke-width="2" stroke="#ffffff" fill="none" transform="matrix(1 0 0 1 966 4 )" mask="url(#clip359)" />
    </g>
  </defs>
  <g transform="matrix(1 0 0 1 -962 0 )">
    <use xlink:href="#widget361" filter="url(#filter360)" />
    <use xlink:href="#widget361" />
  </g>
</svg>