<?xml version="1.0" encoding="utf-8"?>
<svg version="1.1" xmlns:xlink="http://www.w3.org/1999/xlink" width="30px" height="38px" xmlns="http://www.w3.org/2000/svg">
  <defs>
    <mask fill="white" id="clip362">
      <path d="M 20 9.79999999999998  C 20 12.4192655406387  19.1599324115457 14.6464995399986  17.898913441541 16.7750833429127  C 17.4416189058652 17.5469906376911  16.9289663278787 18.3059247436686  16.3809431686623 19.0658768836019  C 14.4014619322279 21.8108539457698  11.9605067871983 24.5691131224029  10 28  C 7.12159186003669 22.9627857550642  3.20752954254726 19.3754873586646  1.23884846230999 15.1513800204569  C 0.991005812282992 14.6195955850758  0.773995473107334 14.077718376684  0.593765420201407 13.5215848124888  C 0.430294542612955 13.017164820764  0.297081752424901 12.5010165337033  0.198565268520042 11.9700331980888  C 0.0695138618027613 11.2744729863526  0 10.5534563942636  0 9.79999999999998  C 0 6.60453727377805  1.54132683774219 1.46700273200105  7.33016318296836 0.259812768009146  C 8.13569412698098 0.091851985993689  9.02311395342872 0  10 0  C 15.4873803306882 0  18.1518222650991 2.89821675351119  19.2842038557726 5.89344488652264  C 19.8027134904555 7.26495126941852  20 8.65675805046311  20 9.79999999999998  Z " fill-rule="evenodd" />
    </mask>
    <filter x="1079px" y="741px" width="30px" height="38px" filterUnits="userSpaceOnUse" id="filter363">
      <feOffset dx="1" dy="1" in="SourceAlpha" result="shadowOffsetInner" />
      <feGaussianBlur stdDeviation="2.5" in="shadowOffsetInner" result="shadowGaussian" />
      <feComposite in2="shadowGaussian" operator="atop" in="SourceAlpha" result="shadowComposite" />
      <feColorMatrix type="matrix" values="0 0 0 0 0  0 0 0 0 0  0 0 0 0 0  0 0 0 0.698039215686274 0  " in="shadowComposite" />
    </filter>
    <g id="widget364">
      <path d="M 20 9.79999999999998  C 20 12.4192655406387  19.1599324115457 14.6464995399986  17.898913441541 16.7750833429127  C 17.4416189058652 17.5469906376911  16.9289663278787 18.3059247436686  16.3809431686623 19.0658768836019  C 14.4014619322279 21.8108539457698  11.9605067871983 24.5691131224029  10 28  C 7.12159186003669 22.9627857550642  3.20752954254726 19.3754873586646  1.23884846230999 15.1513800204569  C 0.991005812282992 14.6195955850758  0.773995473107334 14.077718376684  0.593765420201407 13.5215848124888  C 0.430294542612955 13.017164820764  0.297081752424901 12.5010165337033  0.198565268520042 11.9700331980888  C 0.0695138618027613 11.2744729863526  0 10.5534563942636  0 9.79999999999998  C 0 6.60453727377805  1.54132683774219 1.46700273200105  7.33016318296836 0.259812768009146  C 8.13569412698098 0.091851985993689  9.02311395342872 0  10 0  C 15.4873803306882 0  18.1518222650991 2.89821675351119  19.2842038557726 5.89344488652264  C 19.8027134904555 7.26495126941852  20 8.65675805046311  20 9.79999999999998  Z " fill-rule="nonzero" fill="#009dd9" stroke="none" transform="matrix(1 0 0 1 1083 745 )" />
      <path d="M 20 9.79999999999998  C 20 12.4192655406387  19.1599324115457 14.6464995399986  17.898913441541 16.7750833429127  C 17.4416189058652 17.5469906376911  16.9289663278787 18.3059247436686  16.3809431686623 19.0658768836019  C 14.4014619322279 21.8108539457698  11.9605067871983 24.5691131224029  10 28  C 7.12159186003669 22.9627857550642  3.20752954254726 19.3754873586646  1.23884846230999 15.1513800204569  C 0.991005812282992 14.6195955850758  0.773995473107334 14.077718376684  0.593765420201407 13.5215848124888  C 0.430294542612955 13.017164820764  0.297081752424901 12.5010165337033  0.198565268520042 11.9700331980888  C 0.0695138618027613 11.2744729863526  0 10.5534563942636  0 9.79999999999998  C 0 6.60453727377805  1.54132683774219 1.46700273200105  7.33016318296836 0.259812768009146  C 8.13569412698098 0.091851985993689  9.02311395342872 0  10 0  C 15.4873803306882 0  18.1518222650991 2.89821675351119  19.2842038557726 5.89344488652264  C 19.8027134904555 7.26495126941852  20 8.65675805046311  20 9.79999999999998  Z " stroke-width="2" stroke="#ffffff" fill="none" transform="matrix(1 0 0 1 1083 745 )" mask="url(#clip362)" />
    </g>
  </defs>
  <g transform="matrix(1 0 0 1 -1079 -741 )">
    <use xlink:href="#widget364" filter="url(#filter363)" />
    <use xlink:href="#widget364" />
  </g>
</svg>