<?xml version="1.0" encoding="utf-8"?>
<svg version="1.1" xmlns:xlink="http://www.w3.org/1999/xlink" width="30px" height="38px" xmlns="http://www.w3.org/2000/svg">
  <defs>
    <mask fill="white" id="clip365">
      <path d="M 20 9.79999999999995  C 20 12.4192655406387  19.1599324115457 14.6464995399986  17.898913441541 16.7750833429127  C 17.4416189058652 17.546990637691  16.9289663278787 18.3059247436686  16.3809431686623 19.0658768836018  C 14.4014619322279 21.8108539457698  11.9605067871983 24.5691131224029  10 28  C 8.05603528524853 24.5980617491849  5.63969571897223 21.8574482905046  3.66926134467121 19.1353635935089  C 3.02882992308218 18.2506145934652  2.43571489709529 17.3681524788736  1.92116956241625 16.4655971316821  C 1.67449332312549 16.0329024190361  1.44591057098296 15.5956635468699  1.23884846230999 15.1513800204569  C 0.991005812282992 14.6195955850758  0.773995473107334 14.0777183766839  0.593765420201407 13.5215848124889  C 0.430294542612955 13.017164820764  0.297081752424901 12.5010165337034  0.198565268520042 11.9700331980888  C 0.0695138618027613 11.2744729863525  0 10.5534563942635  0 9.79999999999995  C 0 6.60453727377808  1.54132683774219 1.46700273200099  7.33016318296836 0.259812768009169  C 8.13569412698098 0.091851985993685  9.02311395342872 0  10 0  C 15.4873803306882 0  18.1518222650991 2.89821675351118  19.2842038557726 5.89344488652262  C 19.8027134904555 7.26495126941847  20 8.65675805046317  20 9.79999999999995  Z " fill-rule="evenodd" />
    </mask>
    <filter x="1079px" y="925px" width="30px" height="38px" filterUnits="userSpaceOnUse" id="filter366">
      <feOffset dx="1" dy="1" in="SourceAlpha" result="shadowOffsetInner" />
      <feGaussianBlur stdDeviation="2.5" in="shadowOffsetInner" result="shadowGaussian" />
      <feComposite in2="shadowGaussian" operator="atop" in="SourceAlpha" result="shadowComposite" />
      <feColorMatrix type="matrix" values="0 0 0 0 0  0 0 0 0 0  0 0 0 0 0  0 0 0 0.698039215686274 0  " in="shadowComposite" />
    </filter>
    <g id="widget367">
      <path d="M 20 9.79999999999995  C 20 12.4192655406387  19.1599324115457 14.6464995399986  17.898913441541 16.7750833429127  C 17.4416189058652 17.546990637691  16.9289663278787 18.3059247436686  16.3809431686623 19.0658768836018  C 14.4014619322279 21.8108539457698  11.9605067871983 24.5691131224029  10 28  C 8.05603528524853 24.5980617491849  5.63969571897223 21.8574482905046  3.66926134467121 19.1353635935089  C 3.02882992308218 18.2506145934652  2.43571489709529 17.3681524788736  1.92116956241625 16.4655971316821  C 1.67449332312549 16.0329024190361  1.44591057098296 15.5956635468699  1.23884846230999 15.1513800204569  C 0.991005812282992 14.6195955850758  0.773995473107334 14.0777183766839  0.593765420201407 13.5215848124889  C 0.430294542612955 13.017164820764  0.297081752424901 12.5010165337034  0.198565268520042 11.9700331980888  C 0.0695138618027613 11.2744729863525  0 10.5534563942635  0 9.79999999999995  C 0 6.60453727377808  1.54132683774219 1.46700273200099  7.33016318296836 0.259812768009169  C 8.13569412698098 0.091851985993685  9.02311395342872 0  10 0  C 15.4873803306882 0  18.1518222650991 2.89821675351118  19.2842038557726 5.89344488652262  C 19.8027134904555 7.26495126941847  20 8.65675805046317  20 9.79999999999995  Z " fill-rule="nonzero" fill="#009dd9" stroke="none" transform="matrix(1 0 0 1 1083 929 )" />
      <path d="M 20 9.79999999999995  C 20 12.4192655406387  19.1599324115457 14.6464995399986  17.898913441541 16.7750833429127  C 17.4416189058652 17.546990637691  16.9289663278787 18.3059247436686  16.3809431686623 19.0658768836018  C 14.4014619322279 21.8108539457698  11.9605067871983 24.5691131224029  10 28  C 8.05603528524853 24.5980617491849  5.63969571897223 21.8574482905046  3.66926134467121 19.1353635935089  C 3.02882992308218 18.2506145934652  2.43571489709529 17.3681524788736  1.92116956241625 16.4655971316821  C 1.67449332312549 16.0329024190361  1.44591057098296 15.5956635468699  1.23884846230999 15.1513800204569  C 0.991005812282992 14.6195955850758  0.773995473107334 14.0777183766839  0.593765420201407 13.5215848124889  C 0.430294542612955 13.017164820764  0.297081752424901 12.5010165337034  0.198565268520042 11.9700331980888  C 0.0695138618027613 11.2744729863525  0 10.5534563942635  0 9.79999999999995  C 0 6.60453727377808  1.54132683774219 1.46700273200099  7.33016318296836 0.259812768009169  C 8.13569412698098 0.091851985993685  9.02311395342872 0  10 0  C 15.4873803306882 0  18.1518222650991 2.89821675351118  19.2842038557726 5.89344488652262  C 19.8027134904555 7.26495126941847  20 8.65675805046317  20 9.79999999999995  Z " stroke-width="2" stroke="#ffffff" fill="none" transform="matrix(1 0 0 1 1083 929 )" mask="url(#clip365)" />
    </g>
  </defs>
  <g transform="matrix(1 0 0 1 -1079 -925 )">
    <use xlink:href="#widget367" filter="url(#filter366)" />
    <use xlink:href="#widget367" />
  </g>
</svg>