<?xml version="1.0" encoding="utf-8"?>
<svg version="1.1" xmlns:xlink="http://www.w3.org/1999/xlink" width="17px" height="13px" xmlns="http://www.w3.org/2000/svg">
  <g transform="matrix(1 0 0 1 -807 -18 )">
    <path d="M 16.5993265993266 9.71717171717169  C 16.8664421997756 9.92143658810329  17 10.1694725028059  17 10.4612794612795  C 17 10.7530864197531  16.8664421997756 11.0011223344556  16.5993265993266 11.2053872053872  L 14.6531986531985 12.6936026936027  C 14.3860830527497 12.8978675645342  14.0617283950617 13  13.6801346801347 13  C 13.2985409652077 13  12.9741863075196 12.8978675645342  12.7070707070707 12.6936026936027  L 8.5 9.47643097643099  L 4.2929292929293 12.6936026936027  C 4.02581369248039 12.8978675645342  3.70145903479237 13  3.31986531986534 13  C 2.93827160493816 13  2.61391694725029 12.8978675645342  2.34680134680145 12.6936026936027  L 0.400673400673375 11.2053872053872  C 0.133557800224458 11.0011223344556  0 10.7530864197531  0 10.4612794612795  C 0 10.1694725028059  0.133557800224458 9.92143658810329  0.400673400673375 9.71717171717169  L 4.60774410774415 6.5  L 0.400673400673375 3.2828282828283  C 0.133557800224458 3.07856341189671  0 2.83052749719415  0 2.53872053872054  C 0 2.24691358024693  0.133557800224458 1.99887766554436  0.400673400673375 1.79461279461277  L 2.34680134680145 0.306397306397315  C 2.61391694725029 0.102132435465794  2.93827160493816 0  3.31986531986534 0  C 3.70145903479237 0  4.02581369248039 0.102132435465794  4.2929292929293 0.306397306397315  L 8.5 3.52356902356901  L 12.7070707070707 0.306397306397315  C 12.9741863075196 0.102132435465794  13.2985409652077 0  13.6801346801347 0  C 14.0617283950617 0  14.3860830527497 0.102132435465794  14.6531986531985 0.306397306397315  L 16.5993265993266 1.79461279461277  C 16.8664421997756 1.99887766554436  17 2.24691358024693  17 2.53872053872054  C 17 2.83052749719415  16.8664421997756 3.07856341189671  16.5993265993266 3.2828282828283  L 12.3922558922559 6.5  L 16.5993265993266 9.71717171717169  Z " fill-rule="nonzero" fill="#169bd5" stroke="none" transform="matrix(1 0 0 1 807 18 )" />
  </g>
</svg>