<?xml version="1.0" encoding="utf-8"?>
<svg version="1.1" xmlns:xlink="http://www.w3.org/1999/xlink" width="16px" height="16px" viewBox="60 279  16 16" xmlns="http://www.w3.org/2000/svg">
  <path d="M 60.5 282  A 2.5 2.5 0 0 1 63 279.5 L 73 279.5  A 2.5 2.5 0 0 1 75.5 282 L 75.5 292  A 2.5 2.5 0 0 1 73 294.5 L 63 294.5  A 2.5 2.5 0 0 1 60.5 292 L 60.5 282  Z " fill-rule="nonzero" fill="#f0f0f0" stroke="none" />
  <path d="M 60.5 282  A 2.5 2.5 0 0 1 63 279.5 L 73 279.5  A 2.5 2.5 0 0 1 75.5 282 L 75.5 292  A 2.5 2.5 0 0 1 73 294.5 L 63 294.5  A 2.5 2.5 0 0 1 60.5 292 L 60.5 282  Z " stroke-width="1" stroke="#797979" fill="none" />
</svg>