<?xml version="1.0" encoding="utf-8"?>
<svg version="1.1" xmlns:xlink="http://www.w3.org/1999/xlink" width="16px" height="16px" viewBox="59 182  16 16" xmlns="http://www.w3.org/2000/svg">
  <path d="M 59.5 185  A 2.5 2.5 0 0 1 62 182.5 L 72 182.5  A 2.5 2.5 0 0 1 74.5 185 L 74.5 195  A 2.5 2.5 0 0 1 72 197.5 L 62 197.5  A 2.5 2.5 0 0 1 59.5 195 L 59.5 185  Z " fill-rule="nonzero" fill="#ffffff" stroke="none" />
  <path d="M 59.5 185  A 2.5 2.5 0 0 1 62 182.5 L 72 182.5  A 2.5 2.5 0 0 1 74.5 185 L 74.5 195  A 2.5 2.5 0 0 1 72 197.5 L 62 197.5  A 2.5 2.5 0 0 1 59.5 195 L 59.5 185  Z " stroke-width="1" stroke="#797979" fill="none" />
  <path d="M 62.4285714285714 190  L 65.8571428571429 193.428571428571  " stroke-width="3.42857142857143" stroke="#797979" fill="none" />
  <path d="M 65.8571428571429 193.428571428571  L 71.5714285714286 185.428571428571  " stroke-width="3.42857142857143" stroke="#797979" fill="none" />
</svg>