<?xml version="1.0" encoding="utf-8"?>
<svg version="1.1" xmlns:xlink="http://www.w3.org/1999/xlink" width="16px" height="16px" viewBox="59 217  16 16" xmlns="http://www.w3.org/2000/svg">
  <path d="M 59.5 220  A 2.5 2.5 0 0 1 62 217.5 L 72 217.5  A 2.5 2.5 0 0 1 74.5 220 L 74.5 230  A 2.5 2.5 0 0 1 72 232.5 L 62 232.5  A 2.5 2.5 0 0 1 59.5 230 L 59.5 220  Z " fill-rule="nonzero" fill="#f0f0f0" stroke="none" />
  <path d="M 59.5 220  A 2.5 2.5 0 0 1 62 217.5 L 72 217.5  A 2.5 2.5 0 0 1 74.5 220 L 74.5 230  A 2.5 2.5 0 0 1 72 232.5 L 62 232.5  A 2.5 2.5 0 0 1 59.5 230 L 59.5 220  Z " stroke-width="1" stroke="#797979" fill="none" />
</svg>