<?xml version="1.0" encoding="utf-8"?>
<svg version="1.1" xmlns:xlink="http://www.w3.org/1999/xlink" width="16px" height="16px" viewBox="59 252  16 16" xmlns="http://www.w3.org/2000/svg">
  <path d="M 59.5 255  A 2.5 2.5 0 0 1 62 252.5 L 72 252.5  A 2.5 2.5 0 0 1 74.5 255 L 74.5 265  A 2.5 2.5 0 0 1 72 267.5 L 62 267.5  A 2.5 2.5 0 0 1 59.5 265 L 59.5 255  Z " fill-rule="nonzero" fill="#f0f0f0" stroke="none" />
  <path d="M 59.5 255  A 2.5 2.5 0 0 1 62 252.5 L 72 252.5  A 2.5 2.5 0 0 1 74.5 255 L 74.5 265  A 2.5 2.5 0 0 1 72 267.5 L 62 267.5  A 2.5 2.5 0 0 1 59.5 265 L 59.5 255  Z " stroke-width="1" stroke="#797979" fill="none" />
</svg>