<?xml version="1.0" encoding="utf-8"?>
<svg version="1.1" xmlns:xlink="http://www.w3.org/1999/xlink" width="306px" height="72px" xmlns="http://www.w3.org/2000/svg">
  <defs>
    <filter x="-3px" y="-3px" width="306px" height="72px" filterUnits="userSpaceOnUse" id="filter335">
      <feOffset dx="0" dy="0" in="SourceAlpha" result="shadowOffsetInner" />
      <feGaussianBlur stdDeviation="1.5" in="shadowOffsetInner" result="shadowGaussian" />
      <feComposite in2="shadowGaussian" operator="atop" in="SourceAlpha" result="shadowComposite" />
      <feColorMatrix type="matrix" values="0 0 0 0 0.6  0 0 0 0 0.6  0 0 0 0 0.6  0 0 0 0.349019607843137 0  " in="shadowComposite" />
    </filter>
    <g id="widget336">
      <path d="M 0 45.9800163659072  C 0 45.9800163659072  0 10  0 10  C 0 4.47715250169207  4.47715250169207 0  10 0  C 10 0  290 0  290 0  C 295.522847498308 0  300 4.47715250169207  300 10  C 300 10  300 45.9800163659072  300 45.9800163659072  C 300 51.5028638642152  295.522847498308 55.9800163659072  290 55.9800163659072  C 290 55.9800163659072  119.457142857143 55.9800163659072  119.457142857143 55.9800163659072  C 119.457142857143 55.9800163659072  109.032467532468 65.468253968254  109.032467532468 65.468253968254  C 109.032467532468 65.468253968254  99.4571428571429 55.9800163659072  99.4571428571429 55.9800163659072  C 99.4571428571429 55.9800163659072  10 55.9800163659072  10 55.9800163659072  C 4.47715250169207 55.9800163659072  0 51.5028638642152  0 45.9800163659072  Z " fill-rule="nonzero" fill="#000000" stroke="none" fill-opacity="0.8" />
    </g>
  </defs>
  <g transform="matrix(1 0 0 1 3 3 )">
    <use xlink:href="#widget336" filter="url(#filter335)" />
    <use xlink:href="#widget336" />
  </g>
</svg>