<?xml version="1.0" encoding="utf-8"?>
<svg version="1.1" xmlns:xlink="http://www.w3.org/1999/xlink" width="12px" height="12px" viewBox="132 361  12 12" xmlns="http://www.w3.org/2000/svg">
  <path d="M 138 361  C 141.36 361  144 363.64  144 367  C 144 370.36  141.36 373  138 373  C 134.64 373  132 370.36  132 367  C 132 363.64  134.64 361  138 361  Z " fill-rule="nonzero" fill="#f0f0f0" stroke="none" />
  <path d="M 138 361.5  C 141.08 361.5  143.5 363.92  143.5 367  C 143.5 370.08  141.08 372.5  138 372.5  C 134.92 372.5  132.5 370.08  132.5 367  C 132.5 363.92  134.92 361.5  138 361.5  Z " stroke-width="1" stroke="#797979" fill="none" />
  <path d="M 138 370  C 136.32 370  135 368.68  135 367  C 135 365.32  136.32 364  138 364  C 139.68 364  141 365.32  141 367  C 141 368.68  139.68 370  138 370  " fill-rule="nonzero" fill="#797979" stroke="none" />
</svg>