<?xml version="1.0" encoding="utf-8"?>
<svg version="1.1" xmlns:xlink="http://www.w3.org/1999/xlink" width="12px" height="12px" viewBox="236 361  12 12" xmlns="http://www.w3.org/2000/svg">
  <path d="M 242 361  C 245.36 361  248 363.64  248 367  C 248 370.36  245.36 373  242 373  C 238.64 373  236 370.36  236 367  C 236 363.64  238.64 361  242 361  Z " fill-rule="nonzero" fill="#f0f0f0" stroke="none" />
  <path d="M 242 361.5  C 245.08 361.5  247.5 363.92  247.5 367  C 247.5 370.08  245.08 372.5  242 372.5  C 238.92 372.5  236.5 370.08  236.5 367  C 236.5 363.92  238.92 361.5  242 361.5  Z " stroke-width="1" stroke="#797979" fill="none" />
  <path d="M 242 370  C 240.32 370  239 368.68  239 367  C 239 365.32  240.32 364  242 364  C 243.68 364  245 365.32  245 367  C 245 368.68  243.68 370  242 370  " fill-rule="nonzero" fill="#797979" stroke="none" />
</svg>