<?xml version="1.0" encoding="utf-8"?>
<svg version="1.1" xmlns:xlink="http://www.w3.org/1999/xlink" width="15px" height="13px" xmlns="http://www.w3.org/2000/svg">
  <g transform="matrix(1 0 0 1 -1030 -253 )">
    <path d="M 9.19921875 7.97265625  C 9.98948317307692 7.28776041666667  10.3846153846154 6.46354166666667  10.3846153846154 5.5  C 10.3846153846154 4.53645833333333  9.98948317307692 3.71223958333333  9.19921875 3.02734375  C 8.40895432692308 2.34244791666667  7.45793269230769 2  6.34615384615385 2  C 5.234375 2  4.28335336538462 2.34244791666667  3.49308894230769 3.02734375  C 2.70282451923077 3.71223958333333  2.30769230769231 4.53645833333333  2.30769230769231 5.5  C 2.30769230769231 6.46354166666667  2.70282451923077 7.28776041666667  3.49308894230769 7.97265625  C 4.28335336538462 8.65755208333333  5.234375 9  6.34615384615385 9  C 7.45793269230769 9  8.40895432692308 8.65755208333333  9.19921875 7.97265625  Z M 14.6664663461538 11.296875  C 14.8888221153846 11.4895833333333  15 11.7239583333333  15 12  C 15 12.2708333333333  14.8858173076923 12.5052083333333  14.6574519230769 12.703125  C 14.4290865384615 12.9010416666667  14.1586538461538 13  13.8461538461538 13  C 13.5216346153846 13  13.2512019230769 12.9010416666667  13.0348557692308 12.703125  L 9.94290865384615 10.03125  C 8.8671875 10.6770833333333  7.66826923076923 11  6.34615384615385 11  C 5.48677884615385 11  4.66496394230769 10.85546875  3.88070913461538 10.56640625  C 3.09645432692308 10.27734375  2.42037259615385 9.88671875  1.85246394230769 9.39453125  C 1.28455528846154 8.90234375  0.833834134615385 8.31640625  0.500300480769231 7.63671875  C 0.166766826923077 6.95703125  0 6.24479166666667  0 5.5  C 0 4.75520833333333  0.166766826923077 4.04296875  0.500300480769231 3.36328125  C 0.833834134615385 2.68359375  1.28455528846154 2.09765625  1.85246394230769 1.60546875  C 2.42037259615385 1.11328125  3.09645432692308 0.72265625  3.88070913461538 0.43359375  C 4.66496394230769 0.14453125  5.48677884615385 0  6.34615384615385 0  C 7.20552884615385 0  8.02734375 0.14453125  8.81159855769231 0.43359375  C 9.59585336538461 0.72265625  10.2719350961538 1.11328125  10.83984375 1.60546875  C 11.4077524038462 2.09765625  11.8584735576923 2.68359375  12.1920072115385 3.36328125  C 12.5255408653846 4.04296875  12.6923076923077 4.75520833333333  12.6923076923077 5.5  C 12.6923076923077 6.64583333333333  12.3197115384615 7.68489583333333  11.5745192307692 8.6171875  L 14.6664663461538 11.296875  Z " fill-rule="nonzero" fill="#02a7f0" stroke="none" transform="matrix(1 0 0 1 1030 253 )" />
  </g>
</svg>