<?xml version="1.0" encoding="utf-8"?>
<svg version="1.1" xmlns:xlink="http://www.w3.org/1999/xlink" width="26px" height="26px" xmlns="http://www.w3.org/2000/svg">
  <g transform="matrix(1 0 0 1 -87 -242 )">
    <path d="M 6.474609375 1.74348958333333  C 8.46636284722222 0.581163194444442  10.6414930555556 0  13 0  C 15.3585069444444 0  17.5336371527778 0.581163194444442  19.525390625 1.74348958333333  C 21.5171440972222 2.90581597222222  23.0941840277778 4.48285590277778  24.2565104166667 6.474609375  C 25.4188368055556 8.46636284722222  26 10.6414930555556  26 13  C 26 15.3585069444444  25.4188368055556 17.5336371527778  24.2565104166667 19.525390625  C 23.0941840277778 21.5171440972222  21.5171440972222 23.0941840277778  19.525390625 24.2565104166667  C 17.5336371527778 25.4188368055556  15.3585069444444 26  13 26  C 10.6414930555556 26  8.46636284722222 25.4188368055556  6.474609375 24.2565104166667  C 4.48285590277778 23.0941840277778  2.90581597222222 21.5171440972222  1.74348958333333 19.525390625  C 0.581163194444444 17.5336371527778  0 15.3585069444444  0 13  C 0 10.6414930555556  0.581163194444444 8.46636284722222  1.74348958333333 6.474609375  C 2.90581597222222 4.48285590277778  4.48285590277778 2.90581597222222  6.474609375 1.74348958333333  Z M 15.0143229166667 21.505859375  C 15.1158854166667 21.3986545138889  15.1666666666667 21.2660590277778  15.1666666666667 21.1080729166667  L 15.1666666666667 17.8919270833333  C 15.1666666666667 17.7339409722222  15.1158854166667 17.6013454861111  15.0143229166667 17.494140625  C 14.9127604166667 17.3869357638889  14.7886284722222 17.3333333333333  14.6419270833333 17.3333333333333  L 11.3919270833333 17.3333333333333  C 11.2452256944444 17.3333333333333  11.1154513888889 17.3897569444444  11.0026041666667 17.5026041666667  C 10.8897569444444 17.6154513888889  10.8333333333333 17.7452256944444  10.8333333333333 17.8919270833333  L 10.8333333333333 21.1080729166667  C 10.8333333333333 21.2547743055556  10.8897569444444 21.3845486111111  11.0026041666667 21.4973958333333  C 11.1154513888889 21.6102430555556  11.2452256944444 21.6666666666667  11.3919270833333 21.6666666666667  L 14.6419270833333 21.6666666666667  C 14.7886284722222 21.6666666666667  14.9127604166667 21.6130642361111  15.0143229166667 21.505859375  Z M 14.955078125 15.5813802083333  C 15.0622829861111 15.4967447916667  15.1215277777778 15.3980034722222  15.1328125 15.28515625  L 15.4375 4.7734375  C 15.4375 4.63802083333333  15.3810763888889 4.53645833333333  15.2682291666667 4.46875  C 15.1553819444444 4.37847222222222  15.0199652777778 4.33333333333333  14.8619791666667 4.33333333333333  L 11.1380208333333 4.33333333333333  C 10.9800347222222 4.33333333333333  10.8446180555556 4.37847222222222  10.7317708333333 4.46875  C 10.6189236111111 4.53645833333333  10.5625 4.63802083333333  10.5625 4.7734375  L 10.8502604166667 15.28515625  C 10.8502604166667 15.3980034722222  10.9066840277778 15.4967447916667  11.01953125 15.5813802083333  C 11.1323784722222 15.666015625  11.2677951388889 15.7083333333333  11.42578125 15.7083333333333  L 14.5572916666667 15.7083333333333  C 14.7152777777778 15.7083333333333  14.8478732638889 15.666015625  14.955078125 15.5813802083333  Z " fill-rule="nonzero" fill="#d9001b" stroke="none" transform="matrix(1 0 0 1 87 242 )" />
  </g>
</svg>