<?xml version="1.0" encoding="utf-8"?>
<svg version="1.1" xmlns:xlink="http://www.w3.org/1999/xlink" width="14px" height="14px" xmlns="http://www.w3.org/2000/svg">
  <g transform="matrix(1 0 0 1 -482 -14 )">
    <path d="M 13.6700336700337 10.4646464646464  C 13.8900112233446 10.6846240179574  14 10.9517396184063  14 11.2659932659933  C 14 11.5802469135802  13.8900112233446 11.8473625140291  13.6700336700337 12.0673400673401  L 12.06734006734 13.6700336700337  C 11.8473625140292 13.8900112233445  11.5802469135802 14  11.2659932659932 14  C 10.9517396184063 14  10.6846240179573 13.8900112233445  10.4646464646465 13.6700336700337  L 7 10.2053872053872  L 3.53535353535354 13.6700336700337  C 3.31537598204267 13.8900112233445  3.04826038159372 14  2.73400673400675 14  C 2.41975308641966 14  2.15263748597083 13.8900112233445  1.93265993266002 13.6700336700337  L 0.329966329966309 12.0673400673401  C 0.109988776655436 11.8473625140291  0 11.5802469135802  0 11.2659932659933  C 0 10.9517396184063  0.109988776655436 10.6846240179574  0.329966329966309 10.4646464646464  L 3.79461279461283 7  L 0.329966329966309 3.53535353535356  C 0.109988776655436 3.31537598204261  0 3.0482603815937  0 2.73400673400673  C 0 2.41975308641977  0.109988776655436 2.15263748597085  0.329966329966309 1.93265993265991  L 1.93265993266002 0.329966329966339  C 2.15263748597083 0.109988776655471  2.41975308641966 0  2.73400673400675 0  C 3.04826038159372 0  3.31537598204267 0.109988776655471  3.53535353535354 0.329966329966339  L 7 3.79461279461278  L 10.4646464646465 0.329966329966339  C 10.6846240179573 0.109988776655471  10.9517396184063 0  11.2659932659932 0  C 11.5802469135802 0  11.8473625140292 0.109988776655471  12.06734006734 0.329966329966339  L 13.6700336700337 1.93265993265991  C 13.8900112233446 2.15263748597085  14 2.41975308641977  14 2.73400673400673  C 14 3.0482603815937  13.8900112233446 3.31537598204261  13.6700336700337 3.53535353535356  L 10.2053872053872 7  L 13.6700336700337 10.4646464646464  Z " fill-rule="nonzero" fill="#cccccc" stroke="none" transform="matrix(1 0 0 1 482 14 )" />
  </g>
</svg>