<?xml version="1.0" encoding="utf-8"?>
<svg version="1.1" xmlns:xlink="http://www.w3.org/1999/xlink" width="16px" height="16px" viewBox="39 248  16 16" xmlns="http://www.w3.org/2000/svg">
  <path d="M 39.5 251  A 2.5 2.5 0 0 1 42 248.5 L 52 248.5  A 2.5 2.5 0 0 1 54.5 251 L 54.5 261  A 2.5 2.5 0 0 1 52 263.5 L 42 263.5  A 2.5 2.5 0 0 1 39.5 261 L 39.5 251  Z " fill-rule="nonzero" fill="#ffffff" stroke="none" />
  <path d="M 39.5 251  A 2.5 2.5 0 0 1 42 248.5 L 52 248.5  A 2.5 2.5 0 0 1 54.5 251 L 54.5 261  A 2.5 2.5 0 0 1 52 263.5 L 42 263.5  A 2.5 2.5 0 0 1 39.5 261 L 39.5 251  Z " stroke-width="1" stroke="#797979" fill="none" />
</svg>