<?xml version="1.0" encoding="utf-8"?>
<svg version="1.1" xmlns:xlink="http://www.w3.org/1999/xlink" width="18px" height="18px" preserveAspectRatio="xMinYMid meet" viewBox="987 229  18 16" xmlns="http://www.w3.org/2000/svg">
  <path d="M 1097.5 236  L 1097.5 250.5  L 996.5 250.5  L 996.5 235  " stroke-width="1" stroke-dasharray="3,1" stroke="#00ffff" fill="none" />
  <path d="M 1097.5 235  A 3 3 0 0 0 1094.5 238 A 3 3 0 0 0 1097.5 241 A 3 3 0 0 0 1100.5 238 A 3 3 0 0 0 1097.5 235 Z M 996.5 234  A 3 3 0 0 0 993.5 237 A 3 3 0 0 0 996.5 240 A 3 3 0 0 0 999.5 237 A 3 3 0 0 0 996.5 234 Z " fill-rule="nonzero" fill="#00ffff" stroke="none" />
</svg>