<?xml version="1.0" encoding="utf-8"?>
<svg version="1.1" xmlns:xlink="http://www.w3.org/1999/xlink" width="14px" height="13px" xmlns="http://www.w3.org/2000/svg">
  <g transform="matrix(1 0 0 1 -679 -18 )">
    <path d="M 13.6700336700337 9.71717171717169  C 13.8900112233446 9.92143658810329  14 10.1694725028059  14 10.4612794612795  C 14 10.7530864197531  13.8900112233446 11.0011223344556  13.6700336700337 11.2053872053872  L 12.06734006734 12.6936026936027  C 11.8473625140292 12.8978675645342  11.5802469135802 13  11.2659932659932 13  C 10.9517396184063 13  10.6846240179573 12.8978675645342  10.4646464646465 12.6936026936027  L 7 9.47643097643099  L 3.53535353535354 12.6936026936027  C 3.31537598204267 12.8978675645342  3.04826038159372 13  2.73400673400675 13  C 2.41975308641966 13  2.15263748597083 12.8978675645342  1.93265993266002 12.6936026936027  L 0.329966329966309 11.2053872053872  C 0.109988776655436 11.0011223344556  0 10.7530864197531  0 10.4612794612795  C 0 10.1694725028059  0.109988776655436 9.92143658810329  0.329966329966309 9.71717171717169  L 3.79461279461283 6.5  L 0.329966329966309 3.2828282828283  C 0.109988776655436 3.07856341189671  0 2.83052749719415  0 2.53872053872054  C 0 2.24691358024693  0.109988776655436 1.99887766554436  0.329966329966309 1.79461279461277  L 1.93265993266002 0.306397306397315  C 2.15263748597083 0.102132435465794  2.41975308641966 0  2.73400673400675 0  C 3.04826038159372 0  3.31537598204267 0.102132435465794  3.53535353535354 0.306397306397315  L 7 3.52356902356901  L 10.4646464646465 0.306397306397315  C 10.6846240179573 0.102132435465794  10.9517396184063 0  11.2659932659932 0  C 11.5802469135802 0  11.8473625140292 0.102132435465794  12.06734006734 0.306397306397315  L 13.6700336700337 1.79461279461277  C 13.8900112233446 1.99887766554436  14 2.24691358024693  14 2.53872053872054  C 14 2.83052749719415  13.8900112233446 3.07856341189671  13.6700336700337 3.2828282828283  L 10.2053872053872 6.5  L 13.6700336700337 9.71717171717169  Z " fill-rule="nonzero" fill="#cccccc" stroke="none" transform="matrix(1 0 0 1 679 18 )" />
  </g>
</svg>