<?xml version="1.0" encoding="utf-8"?>
<svg version="1.1" xmlns:xlink="http://www.w3.org/1999/xlink" width="16px" height="16px" viewBox="41 61  16 16" xmlns="http://www.w3.org/2000/svg">
  <path d="M 41.5 64  A 2.5 2.5 0 0 1 44 61.5 L 54 61.5  A 2.5 2.5 0 0 1 56.5 64 L 56.5 74  A 2.5 2.5 0 0 1 54 76.5 L 44 76.5  A 2.5 2.5 0 0 1 41.5 74 L 41.5 64  Z " fill-rule="nonzero" fill="#f0f0f0" stroke="none" />
  <path d="M 41.5 64  A 2.5 2.5 0 0 1 44 61.5 L 54 61.5  A 2.5 2.5 0 0 1 56.5 64 L 56.5 74  A 2.5 2.5 0 0 1 54 76.5 L 44 76.5  A 2.5 2.5 0 0 1 41.5 74 L 41.5 64  Z " stroke-width="1" stroke="#797979" fill="none" />
  <path d="M 44.4285714285714 69  L 47.8571428571429 72.4285714285714  " stroke-width="3.42857142857143" stroke="#797979" fill="none" />
  <path d="M 47.8571428571429 72.4285714285714  L 53.5714285714286 64.4285714285714  " stroke-width="3.42857142857143" stroke="#797979" fill="none" />
</svg>