<?xml version="1.0" encoding="utf-8"?>
<svg version="1.1" xmlns:xlink="http://www.w3.org/1999/xlink" width="16px" height="16px" viewBox="41 89  16 16" xmlns="http://www.w3.org/2000/svg">
  <path d="M 41.5 92  A 2.5 2.5 0 0 1 44 89.5 L 54 89.5  A 2.5 2.5 0 0 1 56.5 92 L 56.5 102  A 2.5 2.5 0 0 1 54 104.5 L 44 104.5  A 2.5 2.5 0 0 1 41.5 102 L 41.5 92  Z " fill-rule="nonzero" fill="#ffffff" stroke="none" />
  <path d="M 41.5 92  A 2.5 2.5 0 0 1 44 89.5 L 54 89.5  A 2.5 2.5 0 0 1 56.5 92 L 56.5 102  A 2.5 2.5 0 0 1 54 104.5 L 44 104.5  A 2.5 2.5 0 0 1 41.5 102 L 41.5 92  Z " stroke-width="1" stroke="#797979" fill="none" />
  <path d="M 44.4285714285714 97  L 47.8571428571429 100.428571428571  " stroke-width="3.42857142857143" stroke="#797979" fill="none" />
  <path d="M 47.8571428571429 100.428571428571  L 53.5714285714286 92.4285714285714  " stroke-width="3.42857142857143" stroke="#797979" fill="none" />
</svg>