<?xml version="1.0" encoding="utf-8"?>
<svg version="1.1" xmlns:xlink="http://www.w3.org/1999/xlink" width="16px" height="16px" viewBox="41 117  16 16" xmlns="http://www.w3.org/2000/svg">
  <path d="M 41.5 120  A 2.5 2.5 0 0 1 44 117.5 L 54 117.5  A 2.5 2.5 0 0 1 56.5 120 L 56.5 130  A 2.5 2.5 0 0 1 54 132.5 L 44 132.5  A 2.5 2.5 0 0 1 41.5 130 L 41.5 120  Z " fill-rule="nonzero" fill="#f0f0f0" stroke="none" />
  <path d="M 41.5 120  A 2.5 2.5 0 0 1 44 117.5 L 54 117.5  A 2.5 2.5 0 0 1 56.5 120 L 56.5 130  A 2.5 2.5 0 0 1 54 132.5 L 44 132.5  A 2.5 2.5 0 0 1 41.5 130 L 41.5 120  Z " stroke-width="1" stroke="#797979" fill="none" />
  <path d="M 44.4285714285714 125  L 47.8571428571429 128.428571428571  " stroke-width="3.42857142857143" stroke="#797979" fill="none" />
  <path d="M 47.8571428571429 128.428571428571  L 53.5714285714286 120.428571428571  " stroke-width="3.42857142857143" stroke="#797979" fill="none" />
</svg>