<?xml version="1.0" encoding="utf-8"?>
<svg version="1.1" xmlns:xlink="http://www.w3.org/1999/xlink" width="10px" height="16px" xmlns="http://www.w3.org/2000/svg">
  <g transform="matrix(1 0 0 1 -507 -290 )">
    <path d="M 0 2.28287841191067  C 0 2.45492142266336  0.0611325611325608 2.60380479735318  0.183397683397684 2.72952853598015  L 5.30888030888031 8  L 0.183397683397684 13.2704714640199  C 0.0611325611325608 13.3961952026468  0 13.5450785773366  0 13.7171215880893  C 0 13.889164598842  0.0611325611325608 14.0380479735318  0.183397683397684 14.1637717121588  L 1.78571428571429 15.8114143920596  C 1.90797940797941 15.9371381306865  2.05276705276705 16  2.22007722007722 16  C 2.38738738738739 16  2.53217503217503 15.9371381306865  2.65444015444015 15.8114143920596  L 9.81660231660232 8.44665012406948  C 9.93886743886744 8.32092638544251  10 8.17204301075269  10 8  C 10 7.82795698924731  9.93886743886744 7.67907361455748  9.81660231660232 7.55334987593052  L 2.65444015444015 0.188585607940446  C 2.53217503217503 0.0628618693134815  2.38738738738739 0  2.22007722007722 0  C 2.05276705276705 0  1.90797940797941 0.0628618693134815  1.78571428571429 0.188585607940446  L 0.183397683397684 1.83622828784119  C 0.0611325611325608 1.96195202646815  0 2.11083540115798  0 2.28287841191067  Z " fill-rule="nonzero" fill="#7f7f7f" stroke="none" transform="matrix(1 0 0 1 507 290 )" />
  </g>
</svg>