<?xml version="1.0" encoding="utf-8"?>
<svg version="1.1" xmlns:xlink="http://www.w3.org/1999/xlink" width="20px" height="14px" xmlns="http://www.w3.org/2000/svg">
  <g transform="matrix(1 0 0 1 -703 -14 )">
    <path d="M 19.5286195286196 10.4646464646464  C 19.8428731762066 10.6846240179574  20 10.9517396184063  20 11.2659932659933  C 20 11.5802469135802  19.8428731762066 11.8473625140291  19.5286195286196 12.0673400673401  L 17.2390572390571 13.6700336700337  C 16.9248035914702 13.8900112233445  16.5432098765432 14  16.0942760942761 14  C 15.6453423120091 14  15.2637485970819 13.8900112233445  14.9494949494949 13.6700336700337  L 10 10.2053872053872  L 5.05050505050506 13.6700336700337  C 4.7362514029181 13.8900112233445  4.35465768799103 14  3.90572390572393 14  C 3.45679012345665 14  3.07519640852976 13.8900112233445  2.76094276094288 13.6700336700337  L 0.471380471380441 12.0673400673401  C 0.15712682379348 11.8473625140291  0 11.5802469135802  0 11.2659932659933  C 0 10.9517396184063  0.15712682379348 10.6846240179574  0.471380471380441 10.4646464646464  L 5.42087542087547 7  L 0.471380471380441 3.53535353535356  C 0.15712682379348 3.31537598204261  0 3.0482603815937  0 2.73400673400673  C 0 2.41975308641977  0.15712682379348 2.15263748597085  0.471380471380441 1.93265993265991  L 2.76094276094288 0.329966329966339  C 3.07519640852976 0.109988776655471  3.45679012345665 0  3.90572390572393 0  C 4.35465768799103 0  4.7362514029181 0.109988776655471  5.05050505050506 0.329966329966339  L 10 3.79461279461278  L 14.9494949494949 0.329966329966339  C 15.2637485970819 0.109988776655471  15.6453423120091 0  16.0942760942761 0  C 16.5432098765432 0  16.9248035914702 0.109988776655471  17.2390572390571 0.329966329966339  L 19.5286195286196 1.93265993265991  C 19.8428731762066 2.15263748597085  20 2.41975308641977  20 2.73400673400673  C 20 3.0482603815937  19.8428731762066 3.31537598204261  19.5286195286196 3.53535353535356  L 14.5791245791245 7  L 19.5286195286196 10.4646464646464  Z " fill-rule="nonzero" fill="#169bd5" stroke="none" transform="matrix(1 0 0 1 703 14 )" />
  </g>
</svg>