<?xml version="1.0" encoding="utf-8"?>
<svg version="1.1" xmlns:xlink="http://www.w3.org/1999/xlink" width="19px" height="19px" xmlns="http://www.w3.org/2000/svg">
  <g transform="matrix(1 0 0 1 -862 -487 )">
    <path d="M 10.9720052083333 15.7220052083333  C 11.0462239583333 15.6477864583333  11.0833333333333 15.5529513888889  11.0833333333333 15.4375  L 11.0833333333333 13.0625  C 11.0833333333333 12.9470486111111  11.0462239583333 12.8522135416667  10.9720052083333 12.7779947916667  C 10.8977864583333 12.7037760416667  10.8029513888889 12.6666666666667  10.6875 12.6666666666667  L 8.3125 12.6666666666667  C 8.19704861111111 12.6666666666667  8.10221354166667 12.7037760416667  8.02799479166667 12.7779947916667  C 7.95377604166667 12.8522135416667  7.91666666666667 12.9470486111111  7.91666666666667 13.0625  L 7.91666666666667 15.4375  C 7.91666666666667 15.5529513888889  7.95377604166667 15.6477864583333  8.02799479166667 15.7220052083333  C 8.10221354166667 15.7962239583333  8.19704861111111 15.8333333333333  8.3125 15.8333333333333  L 10.6875 15.8333333333333  C 10.8029513888889 15.8333333333333  10.8977864583333 15.7962239583333  10.9720052083333 15.7220052083333  Z M 14.0953776041667 8.126953125  C 14.1984592013889 7.82183159722222  14.25 7.48784722222222  14.25 7.125  C 14.25 6.39930555555555  14.0211588541667 5.72721354166667  13.5634765625 5.10872395833333  C 13.1057942708333 4.490234375  12.5347222222222 4.01193576388889  11.8502604166667 3.673828125  C 11.1657986111111 3.33572048611111  10.46484375 3.16666666666667  9.74739583333333 3.16666666666667  C 7.74348958333333 3.16666666666667  6.21375868055556 4.044921875  5.158203125 5.80143229166667  C 5.03450520833333 5.99934895833333  5.06749131944444 6.17252604166667  5.25716145833333 6.32096354166667  L 6.88997395833333 7.55794270833333  C 6.94769965277778 7.607421875  7.02604166666667 7.63216145833333  7.125 7.63216145833333  C 7.25694444444444 7.63216145833333  7.36002604166667 7.58268229166667  7.43424479166667 7.48372395833333  C 7.87131076388889 6.92296006944444  8.22591145833333 6.54361979166667  8.498046875 6.345703125  C 8.77842881944444 6.14778645833333  9.13302951388889 6.048828125  9.56184895833333 6.048828125  C 9.95768229166667 6.048828125  10.3102213541667 6.15603298611111  10.6194661458333 6.37044270833333  C 10.9287109375 6.58485243055555  11.0833333333333 6.828125  11.0833333333333 7.10026041666667  C 11.0833333333333 7.41362847222222  11.0008680555556 7.66514756944444  10.8359375 7.85481770833333  C 10.6710069444444 8.04448784722222  10.390625 8.23003472222222  9.99479166666667 8.41145833333333  C 9.47526041666667 8.64236111111111  8.9990234375 8.9990234375  8.56608072916667 9.4814453125  C 8.13313802083333 9.9638671875  7.91666666666667 10.4813368055556  7.91666666666667 11.0338541666667  L 7.91666666666667 11.4791666666667  C 7.91666666666667 11.5946180555556  7.95377604166667 11.689453125  8.02799479166667 11.763671875  C 8.10221354166667 11.837890625  8.19704861111111 11.875  8.3125 11.875  L 10.6875 11.875  C 10.8029513888889 11.875  10.8977864583333 11.837890625  10.9720052083333 11.763671875  C 11.0462239583333 11.689453125  11.0833333333333 11.5946180555556  11.0833333333333 11.4791666666667  C 11.0833333333333 11.3224826388889  11.1719835069444 11.1183810763889  11.3492838541667 10.8668619791667  C 11.5265842013889 10.6153428819444  11.7513020833333 10.4112413194444  12.0234375 10.2545572916667  C 12.2873263888889 10.1061197916667  12.4893663194444 9.98860677083333  12.6295572916667 9.90201822916667  C 12.7697482638889 9.8154296875  12.9594184027778 9.67111545138889  13.1985677083333 9.46907552083333  C 13.4377170138889 9.26703559027778  13.6212022569444 9.06911892361111  13.7490234375 8.87532552083333  C 13.8768446180556 8.68153211805555  13.9922960069444 8.43207465277778  14.0953776041667 8.126953125  Z M 17.7259114583333 4.7314453125  C 18.5753038194444 6.18695746527778  19 7.77647569444444  19 9.5  C 19 11.2235243055556  18.5753038194444 12.8130425347222  17.7259114583333 14.2685546875  C 16.8765190972222 15.7240668402778  15.7240668402778 16.8765190972222  14.2685546875 17.7259114583333  C 12.8130425347222 18.5753038194444  11.2235243055556 19  9.5 19  C 7.77647569444444 19  6.18695746527778 18.5753038194444  4.7314453125 17.7259114583333  C 3.27593315972222 16.8765190972222  2.12348090277778 15.7240668402778  1.27408854166667 14.2685546875  C 0.424696180555555 12.8130425347222  0 11.2235243055556  0 9.5  C 0 7.77647569444444  0.424696180555555 6.18695746527778  1.27408854166667 4.7314453125  C 2.12348090277778 3.27593315972222  3.27593315972222 2.12348090277778  4.7314453125 1.27408854166667  C 6.18695746527778 0.424696180555554  7.77647569444444 0  9.5 0  C 11.2235243055556 0  12.8130425347222 0.424696180555554  14.2685546875 1.27408854166667  C 15.7240668402778 2.12348090277778  16.8765190972222 3.27593315972222  17.7259114583333 4.7314453125  Z " fill-rule="nonzero" fill="#555555" stroke="none" transform="matrix(1 0 0 1 862 487 )" />
  </g>
</svg>