<?xml version="1.0" encoding="utf-8"?>
<svg version="1.1" xmlns:xlink="http://www.w3.org/1999/xlink" width="171px" height="99px" xmlns="http://www.w3.org/2000/svg">
  <defs>
    <filter x="819px" y="386px" width="171px" height="99px" filterUnits="userSpaceOnUse" id="filter341">
      <feOffset dx="0" dy="0" in="SourceAlpha" result="shadowOffsetInner" />
      <feGaussianBlur stdDeviation="1.5" in="shadowOffsetInner" result="shadowGaussian" />
      <feComposite in2="shadowGaussian" operator="atop" in="SourceAlpha" result="shadowComposite" />
      <feColorMatrix type="matrix" values="0 0 0 0 0.6  0 0 0 0 0.6  0 0 0 0 0.6  0 0 0 0.349019607843137 0  " in="shadowComposite" />
    </filter>
    <g id="widget342">
      <path d="M 822 460.588785046729  C 822 460.588785046729  822 399  822 399  C 822 393.477152501692  826.477152501692 389  832 389  C 832 389  977 389  977 389  C 982.522847498308 389  987 393.477152501692  987 399  C 987 399  987 460.588785046729  987 460.588785046729  C 987 466.111632545037  982.522847498308 470.588785046729  977 470.588785046729  C 977 470.588785046729  882.107142857143 470.588785046729  882.107142857143 470.588785046729  C 882.107142857143 470.588785046729  870.142857142857 482  870.142857142857 482  C 870.142857142857 482  858.535714285714 470.588785046729  858.535714285714 470.588785046729  C 858.535714285714 470.588785046729  832 470.588785046729  832 470.588785046729  C 826.477152501692 470.588785046729  822 466.111632545037  822 460.588785046729  Z " fill-rule="nonzero" fill="#333333" stroke="none" />
    </g>
  </defs>
  <g transform="matrix(1 0 0 1 -819 -386 )">
    <use xlink:href="#widget342" filter="url(#filter341)" />
    <use xlink:href="#widget342" />
  </g>
</svg>