<?xml version="1.0" encoding="utf-8"?>
<svg version="1.1" xmlns:xlink="http://www.w3.org/1999/xlink" width="32px" height="40px" xmlns="http://www.w3.org/2000/svg">
  <defs>
    <filter x="62px" y="64px" width="32px" height="40px" filterUnits="userSpaceOnUse" id="filter339">
      <feOffset dx="1" dy="1" in="SourceAlpha" result="shadowOffsetInner" />
      <feGaussianBlur stdDeviation="2.5" in="shadowOffsetInner" result="shadowGaussian" />
      <feComposite in2="shadowGaussian" operator="atop" in="SourceAlpha" result="shadowComposite" />
      <feColorMatrix type="matrix" values="0 0 0 0 0  0 0 0 0 0  0 0 0 0 0  0 0 0 0.698039215686274 0  " in="shadowComposite" />
    </filter>
    <g id="widget340">
      <path d="M 77 97.0221392863566  C 72.8 89.8982395608348  66.5 85.6238997255218  66.5 78.5  C 66.5 74.7857142857143  68.6 68.5  77 68.5  C 85.4 68.5  87.5 74.7857142857143  87.5 78.5  C 87.5 85.6238997255218  81.2 89.8982395608348  77 97.0221392863566  Z " fill-rule="nonzero" fill="#f59a23" stroke="none" />
      <path d="M 77 98  C 72.6 90.5  66 86  66 78.5  C 66 74.6  68.2 68  77 68  C 85.8 68  88 74.6  88 78.5  C 88 86  81.4 90.5  77 98  Z M 77 96.0442785727131  C 81 89.2964791216696  87 85.2477994510435  87 78.5  C 87 74.9714285714286  85 69  77 69  C 69 69  67 74.9714285714286  67 78.5  C 67 85.2477994510435  73 89.2964791216696  77 96.0442785727131  Z " fill-rule="nonzero" fill="#ffffff" stroke="none" />
    </g>
  </defs>
  <g transform="matrix(1 0 0 1 -62 -64 )">
    <use xlink:href="#widget340" filter="url(#filter339)" />
    <use xlink:href="#widget340" />
  </g>
</svg>