<?xml version="1.0" encoding="utf-8"?>
<svg version="1.1" xmlns:xlink="http://www.w3.org/1999/xlink" width="11px" height="10px" xmlns="http://www.w3.org/2000/svg">
  <g transform="matrix(1 0 0 1 -186 -59 )">
    <path d="M 8.3359375 9.04296875  C 8.41967147435897 8.96050347222222  8.46153846153846 8.86284722222222  8.46153846153846 8.75  C 8.46153846153846 8.63715277777778  8.41967147435897 8.53949652777778  8.3359375 8.45703125  C 8.25220352564103 8.37456597222222  8.15304487179487 8.33333333333333  8.03846153846154 8.33333333333333  C 7.92387820512821 8.33333333333333  7.82471955128205 8.37456597222222  7.74098557692308 8.45703125  C 7.6572516025641 8.53949652777778  7.61538461538461 8.63715277777778  7.61538461538461 8.75  C 7.61538461538461 8.86284722222222  7.6572516025641 8.96050347222222  7.74098557692308 9.04296875  C 7.82471955128205 9.12543402777778  7.92387820512821 9.16666666666667  8.03846153846154 9.16666666666667  C 8.15304487179487 9.16666666666667  8.25220352564103 9.12543402777778  8.3359375 9.04296875  Z M 10.0282451923077 9.04296875  C 10.1119791666667 8.96050347222222  10.1538461538462 8.86284722222222  10.1538461538462 8.75  C 10.1538461538462 8.63715277777778  10.1119791666667 8.53949652777778  10.0282451923077 8.45703125  C 9.94451121794872 8.37456597222222  9.84535256410256 8.33333333333333  9.73076923076923 8.33333333333333  C 9.6161858974359 8.33333333333333  9.51702724358974 8.37456597222222  9.43329326923077 8.45703125  C 9.3495592948718 8.53949652777778  9.30769230769231 8.63715277777778  9.30769230769231 8.75  C 9.30769230769231 8.86284722222222  9.3495592948718 8.96050347222222  9.43329326923077 9.04296875  C 9.51702724358974 9.12543402777778  9.6161858974359 9.16666666666667  9.73076923076923 9.16666666666667  C 9.84535256410256 9.16666666666667  9.94451121794872 9.12543402777778  10.0282451923077 9.04296875  Z M 10.8149038461538 6.84895833333333  C 10.9383012820513 6.97048611111111  11 7.11805555555556  11 7.29166666666667  L 11 9.375  C 11 9.54861111111111  10.9383012820513 9.69618055555556  10.8149038461538 9.81770833333333  C 10.6915064102564 9.93923611111111  10.5416666666667 10  10.3653846153846 10  L 0.634615384615385 10  C 0.458333333333333 10  0.30849358974359 9.93923611111111  0.185096153846154 9.81770833333333  C 0.0616987179487179 9.69618055555556  0 9.54861111111111  0 9.375  L 0 7.29166666666667  C 0 7.11805555555556  0.0616987179487179 6.97048611111111  0.185096153846154 6.84895833333333  C 0.30849358974359 6.72743055555556  0.458333333333333 6.66666666666667  0.634615384615385 6.66666666666667  L 3.70853365384615 6.66666666666667  L 4.60096153846154 7.55208333333333  C 4.85657051282051 7.79513888888889  5.15625 7.91666666666667  5.5 7.91666666666667  C 5.84375 7.91666666666667  6.14342948717949 7.79513888888889  6.39903846153846 7.55208333333333  L 7.29807692307692 6.66666666666667  L 10.3653846153846 6.66666666666667  C 10.5416666666667 6.66666666666667  10.6915064102564 6.72743055555556  10.8149038461538 6.84895833333333  Z M 8.46153846153846 3.33333333333333  C 8.64663461538461 3.33333333333333  8.77664262820513 3.41796875  8.8515625 3.58723958333333  C 8.92648237179487 3.76519097222222  8.89563301282051 3.91710069444444  8.75901442307692 4.04296875  L 5.79747596153846 6.95963541666667  C 5.71814903846154 7.04210069444444  5.61899038461539 7.08333333333333  5.5 7.08333333333333  C 5.38100961538461 7.08333333333333  5.28185096153846 7.04210069444444  5.20252403846154 6.95963541666667  L 2.24098557692308 4.04296875  C 2.10436698717949 3.91710069444444  2.07351762820513 3.76519097222222  2.1484375 3.58723958333333  C 2.22335737179487 3.41796875  2.35336538461538 3.33333333333333  2.53846153846154 3.33333333333333  L 4.23076923076923 3.33333333333333  L 4.23076923076923 0.416666666666666  C 4.23076923076923 0.303819444444443  4.27263621794872 0.206163194444443  4.35637019230769 0.123697916666666  C 4.44010416666667 0.0412326388888895  4.53926282051282 0  4.65384615384615 0  L 6.34615384615385 0  C 6.46073717948718 0  6.55989583333333 0.0412326388888895  6.64362980769231 0.123697916666666  C 6.72736378205128 0.206163194444443  6.76923076923077 0.303819444444443  6.76923076923077 0.416666666666666  L 6.76923076923077 3.33333333333333  L 8.46153846153846 3.33333333333333  Z " fill-rule="nonzero" fill="#7f7f7f" stroke="none" transform="matrix(1 0 0 1 186 59 )" />
  </g>
</svg>