<?xml version="1.0" encoding="utf-8"?>
<svg version="1.1" xmlns:xlink="http://www.w3.org/1999/xlink" width="16px" height="10px" xmlns="http://www.w3.org/2000/svg">
  <g>
    <path d="M 15.8396793587174 1.03092783505155  C 15.9465597862392 1.1454753722795  16 1.27720504009161  16 1.42611683848795  C 16 1.57502863688429  15.9465597862392 1.70675830469647  15.8396793587174 1.82130584192442  L 8.36873747494991 9.82817869415811  C 8.26185704742818 9.94272623138599  8.13894455577821 10  8 10  C 7.86105544422179 10  7.73814295257182 9.94272623138599  7.63126252505009 9.82817869415811  L 0.160320641282567 1.82130584192442  C 0.0534402137608367 1.70675830469647  0 1.57502863688429  0 1.42611683848795  C 0 1.27720504009161  0.0534402137608367 1.1454753722795  0.160320641282567 1.03092783505155  L 0.961923847695402 0.171821305841955  C 1.06880427521708 0.0572737686139441  1.19171676686705 0  1.33066132264531 0  C 1.46960587842352 0  1.59251837007349 0.0572737686139441  1.69939879759517 0.171821305841955  L 8 6.92439862542953  L 14.3006012024048 0.171821305841955  C 14.4074816299265 0.0572737686139441  14.5303941215765 0  14.6693386773547 0  C 14.808283233133 0  14.9311957247829 0.0572737686139441  15.0380761523046 0.171821305841955  L 15.8396793587174 1.03092783505155  Z " fill-rule="nonzero" fill="#c4c4c4" stroke="none" />
  </g>
</svg>