<?xml version="1.0" encoding="utf-8"?>
<svg version="1.1" xmlns:xlink="http://www.w3.org/1999/xlink" width="16px" height="10px" xmlns="http://www.w3.org/2000/svg">
  <g>
    <path d="M 15.8396793587174 8.17869415807558  C 15.9465597862392 8.29324169530353  16 8.42497136311571  16 8.57388316151205  C 16 8.72279495990839  15.9465597862392 8.8545246277205  15.8396793587174 8.96907216494845  L 15.0380761523046 9.82817869415811  C 14.9311957247829 9.94272623138599  14.808283233133 10  14.6693386773547 10  C 14.5303941215765 10  14.4074816299265 9.94272623138599  14.3006012024048 9.82817869415811  L 8 3.07560137457047  L 1.69939879759517 9.82817869415811  C 1.59251837007349 9.94272623138599  1.46960587842352 10  1.33066132264531 10  C 1.19171676686705 10  1.06880427521708 9.94272623138599  0.961923847695402 9.82817869415811  L 0.160320641282567 8.96907216494845  C 0.0534402137608367 8.8545246277205  0 8.72279495990839  0 8.57388316151205  C 0 8.42497136311571  0.0534402137608367 8.29324169530353  0.160320641282567 8.17869415807558  L 7.63126252505009 0.171821305841955  C 7.73814295257182 0.0572737686139441  7.86105544422179 0  8 0  C 8.13894455577821 0  8.26185704742818 0.0572737686139441  8.36873747494991 0.171821305841955  L 15.8396793587174 8.17869415807558  Z " fill-rule="nonzero" fill="#c4c4c4" stroke="none" />
  </g>
</svg>