<?xml version="1.0" encoding="utf-8"?>
<svg version="1.1" xmlns:xlink="http://www.w3.org/1999/xlink" width="12px" height="12px" viewBox="221 183  12 12" xmlns="http://www.w3.org/2000/svg">
  <path d="M 227 183  C 230.36 183  233 185.64  233 189  C 233 192.36  230.36 195  227 195  C 223.64 195  221 192.36  221 189  C 221 185.64  223.64 183  227 183  Z " fill-rule="nonzero" fill="#f0f0f0" stroke="none" />
  <path d="M 227 183.5  C 230.08 183.5  232.5 185.92  232.5 189  C 232.5 192.08  230.08 194.5  227 194.5  C 223.92 194.5  221.5 192.08  221.5 189  C 221.5 185.92  223.92 183.5  227 183.5  Z " stroke-width="1" stroke="#797979" fill="none" />
  <path d="M 227 192  C 225.32 192  224 190.68  224 189  C 224 187.32  225.32 186  227 186  C 228.68 186  230 187.32  230 189  C 230 190.68  228.68 192  227 192  " fill-rule="nonzero" fill="#797979" stroke="none" />
</svg>