<?xml version="1.0" encoding="utf-8"?>
<svg version="1.1" xmlns:xlink="http://www.w3.org/1999/xlink" width="12px" height="12px" viewBox="152 183  12 12" xmlns="http://www.w3.org/2000/svg">
  <path d="M 158 183  C 161.36 183  164 185.64  164 189  C 164 192.36  161.36 195  158 195  C 154.64 195  152 192.36  152 189  C 152 185.64  154.64 183  158 183  Z " fill-rule="nonzero" fill="#f0f0f0" stroke="none" />
  <path d="M 158 183.5  C 161.08 183.5  163.5 185.92  163.5 189  C 163.5 192.08  161.08 194.5  158 194.5  C 154.92 194.5  152.5 192.08  152.5 189  C 152.5 185.92  154.92 183.5  158 183.5  Z " stroke-width="1" stroke="#797979" fill="none" />
  <path d="M 158 192  C 156.32 192  155 190.68  155 189  C 155 187.32  156.32 186  158 186  C 159.68 186  161 187.32  161 189  C 161 190.68  159.68 192  158 192  " fill-rule="nonzero" fill="#797979" stroke="none" />
</svg>