<?xml version="1.0" encoding="utf-8"?>
<svg version="1.1" xmlns:xlink="http://www.w3.org/1999/xlink" width="16px" height="16px" viewBox="67 222  16 16" xmlns="http://www.w3.org/2000/svg">
  <path d="M 67.5 225  A 2.5 2.5 0 0 1 70 222.5 L 80 222.5  A 2.5 2.5 0 0 1 82.5 225 L 82.5 235  A 2.5 2.5 0 0 1 80 237.5 L 70 237.5  A 2.5 2.5 0 0 1 67.5 235 L 67.5 225  Z " fill-rule="nonzero" fill="#ffffff" stroke="none" />
  <path d="M 67.5 225  A 2.5 2.5 0 0 1 70 222.5 L 80 222.5  A 2.5 2.5 0 0 1 82.5 225 L 82.5 235  A 2.5 2.5 0 0 1 80 237.5 L 70 237.5  A 2.5 2.5 0 0 1 67.5 235 L 67.5 225  Z " stroke-width="1" stroke="#797979" fill="none" />
  <path d="M 70.4285714285714 230  L 73.8571428571429 233.428571428571  " stroke-width="3.42857142857143" stroke="#797979" fill="none" />
  <path d="M 73.8571428571429 233.428571428571  L 79.5714285714286 225.428571428571  " stroke-width="3.42857142857143" stroke="#797979" fill="none" />
</svg>