<?xml version="1.0" encoding="utf-8"?>
<svg version="1.1" xmlns:xlink="http://www.w3.org/1999/xlink" width="16px" height="16px" viewBox="67 189  16 16" xmlns="http://www.w3.org/2000/svg">
  <path d="M 67.5 192  A 2.5 2.5 0 0 1 70 189.5 L 80 189.5  A 2.5 2.5 0 0 1 82.5 192 L 82.5 202  A 2.5 2.5 0 0 1 80 204.5 L 70 204.5  A 2.5 2.5 0 0 1 67.5 202 L 67.5 192  Z " fill-rule="nonzero" fill="#f0f0f0" stroke="none" />
  <path d="M 67.5 192  A 2.5 2.5 0 0 1 70 189.5 L 80 189.5  A 2.5 2.5 0 0 1 82.5 192 L 82.5 202  A 2.5 2.5 0 0 1 80 204.5 L 70 204.5  A 2.5 2.5 0 0 1 67.5 202 L 67.5 192  Z " stroke-width="1" stroke="#797979" fill="none" />
</svg>