<?xml version="1.0" encoding="utf-8"?>
<svg version="1.1" xmlns:xlink="http://www.w3.org/1999/xlink" width="32px" height="39px" xmlns="http://www.w3.org/2000/svg">
  <defs>
    <filter x="25px" y="15px" width="32px" height="39px" filterUnits="userSpaceOnUse" id="filter327">
      <feOffset dx="1" dy="1" in="SourceAlpha" result="shadowOffsetInner" />
      <feGaussianBlur stdDeviation="2.5" in="shadowOffsetInner" result="shadowGaussian" />
      <feComposite in2="shadowGaussian" operator="atop" in="SourceAlpha" result="shadowComposite" />
      <feColorMatrix type="matrix" values="0 0 0 0 0  0 0 0 0 0  0 0 0 0 0  0 0 0 0.698039215686274 0  " in="shadowComposite" />
    </filter>
    <g id="widget328">
      <path d="M 40 47.0443230593521  C 35.8 40.1618911134475  29.5 36.0324319459047  29.5 29.15  C 29.5 25.5657142857143  31.6 19.5  40 19.5  C 48.4 19.5  50.5 25.5657142857143  50.5 29.15  C 50.5 36.0324319459047  44.2 40.1618911134475  40 47.0443230593521  Z " fill-rule="nonzero" fill="#009dd9" stroke="none" />
      <path d="M 40 48  C 35.6 40.75  29 36.4  29 29.15  C 29 25.38  31.2 19  40 19  C 48.8 19  51 25.38  51 29.15  C 51 36.4  44.4 40.75  40 48  Z M 40 46.0886461187042  C 44 39.5737822268949  50 35.6648638918093  50 29.15  C 50 25.7514285714286  48 20  40 20  C 32 20  30 25.7514285714286  30 29.15  C 30 35.6648638918093  36 39.5737822268949  40 46.0886461187042  Z " fill-rule="nonzero" fill="#ffffff" stroke="none" />
    </g>
  </defs>
  <g transform="matrix(1 0 0 1 -25 -15 )">
    <use xlink:href="#widget328" filter="url(#filter327)" />
    <use xlink:href="#widget328" />
  </g>
</svg>