<?xml version="1.0" encoding="utf-8"?>
<svg version="1.1" xmlns:xlink="http://www.w3.org/1999/xlink" width="10px" height="15px" xmlns="http://www.w3.org/2000/svg">
  <g transform="matrix(1 0 0 1 -446 -6 )">
    <path d="M 9.814453125 9.06605113636364  C 9.93815104166667 9.20099431818182  10 9.36079545454545  10 9.54545454545454  C 10 9.73011363636364  9.93815104166667 9.88991477272727  9.814453125 10.0248579545455  L 5.439453125 14.7975852272727  C 5.31575520833333 14.9325284090909  5.16927083333333 15  5 15  C 4.83072916666667 15  4.68424479166667 14.9325284090909  4.560546875 14.7975852272727  L 0.185546875 10.0248579545455  C 0.0618489583333333 9.88991477272727  0 9.73011363636364  0 9.54545454545454  C 0 9.36079545454545  0.0618489583333333 9.20099431818182  0.185546875 9.06605113636364  C 0.309244791666667 8.93110795454545  0.455729166666667 8.86363636363636  0.625 8.86363636363636  L 9.375 8.86363636363636  C 9.54427083333333 8.86363636363636  9.69075520833333 8.93110795454545  9.814453125 9.06605113636364  Z M 9.814453125 4.97514204545454  C 9.93815104166667 5.11008522727273  10 5.26988636363636  10 5.45454545454546  C 10 5.63920454545454  9.93815104166667 5.79900568181818  9.814453125 5.93394886363636  C 9.69075520833333 6.06889204545455  9.54427083333333 6.13636363636364  9.375 6.13636363636364  L 0.625 6.13636363636364  C 0.455729166666667 6.13636363636364  0.309244791666667 6.06889204545455  0.185546875 5.93394886363636  C 0.0618489583333333 5.79900568181818  0 5.63920454545454  0 5.45454545454546  C 0 5.26988636363636  0.0618489583333333 5.11008522727273  0.185546875 4.97514204545454  L 4.560546875 0.202414772727273  C 4.68424479166667 0.0674715909090895  4.83072916666667 0  5 0  C 5.16927083333333 0  5.31575520833333 0.0674715909090895  5.439453125 0.202414772727273  L 9.814453125 4.97514204545454  Z " fill-rule="nonzero" fill="#000000" stroke="none" transform="matrix(1 0 0 1 446 6 )" />
  </g>
</svg>