<?xml version="1.0" encoding="utf-8"?>
<svg version="1.1" xmlns:xlink="http://www.w3.org/1999/xlink" width="18px" height="18px" preserveAspectRatio="xMinYMid meet" viewBox="1085 253  18 16" xmlns="http://www.w3.org/2000/svg">
  <path d="M 1096 261.5  L 1073 261.5  A 3 3 0 0 0 1070 258.5 A 3 3 0 0 0 1067 261.5 L 525.5 261.5  L 525.5 289  " stroke-width="1" stroke-dasharray="3,1" stroke="#00ffff" fill="none" />
  <path d="M 1094 258.5  A 3 3 0 0 0 1091 261.5 A 3 3 0 0 0 1094 264.5 A 3 3 0 0 0 1097 261.5 A 3 3 0 0 0 1094 258.5 Z M 525.5 284  A 3 3 0 0 0 522.5 287 A 3 3 0 0 0 525.5 290 A 3 3 0 0 0 528.5 287 A 3 3 0 0 0 525.5 284 Z " fill-rule="nonzero" fill="#00ffff" stroke="none" />
</svg>