<?xml version="1.0" encoding="utf-8"?>
<svg version="1.1" xmlns:xlink="http://www.w3.org/1999/xlink" width="8px" height="8px" xmlns="http://www.w3.org/2000/svg">
  <g transform="matrix(1 0 0 1 -410 -188 )">
    <path d="M 0.28125 0  L 0.28125 8  L 0 8  L 0 0  L 0.28125 0  Z M 0.5625 0  L 0.5625 7.99431818181818  L 0.419642857142857 7.99431818181818  L 0.419642857142857 0  L 0.5625 0  Z M 0.982142857142857 0  L 0.982142857142857 7.99431818181818  L 0.84375 7.99431818181818  L 0.84375 0  L 0.982142857142857 0  Z M 1.68303571428571 0  L 1.68303571428571 7.99431818181818  L 1.54464285714286 7.99431818181818  L 1.54464285714286 0  L 1.68303571428571 0  Z M 2.38392857142857 0  L 2.38392857142857 7.99431818181818  L 2.10714285714286 7.99431818181818  L 2.10714285714286 0  L 2.38392857142857 0  Z M 2.94642857142857 0  L 2.94642857142857 7.99431818181818  L 2.80803571428571 7.99431818181818  L 2.80803571428571 0  L 2.94642857142857 0  Z M 3.22767857142857 0  L 3.22767857142857 7.99431818181818  L 3.08928571428571 7.99431818181818  L 3.08928571428571 0  L 3.22767857142857 0  Z M 3.50892857142857 0  L 3.50892857142857 7.99431818181818  L 3.37053571428571 7.99431818181818  L 3.37053571428571 0  L 3.50892857142857 0  Z M 4.20982142857143 0  L 4.20982142857143 7.99431818181818  L 3.92857142857143 7.99431818181818  L 3.92857142857143 0  L 4.20982142857143 0  Z M 4.91071428571429 0  L 4.91071428571429 7.99431818181818  L 4.62946428571429 7.99431818181818  L 4.62946428571429 0  L 4.91071428571429 0  Z M 5.47321428571429 0  L 5.47321428571429 7.99431818181818  L 5.19196428571429 7.99431818181818  L 5.19196428571429 0  L 5.47321428571429 0  Z M 6.03571428571429 0  L 6.03571428571429 7.99431818181818  L 5.75446428571429 7.99431818181818  L 5.75446428571429 0  L 6.03571428571429 0  Z M 6.45535714285714 0  L 6.45535714285714 7.99431818181818  L 6.17410714285714 7.99431818181818  L 6.17410714285714 0  L 6.45535714285714 0  Z M 7.29910714285714 0  L 7.29910714285714 7.99431818181818  L 6.87946428571429 7.99431818181818  L 6.87946428571429 0  L 7.29910714285714 0  Z M 7.58035714285714 0  L 7.58035714285714 7.99431818181818  L 7.4375 7.99431818181818  L 7.4375 0  L 7.58035714285714 0  Z M 8 0  L 8 8  L 7.71875 8  L 7.71875 0  L 8 0  Z " fill-rule="nonzero" fill="#21b5ff" stroke="none" transform="matrix(1 0 0 1 410 188 )" />
  </g>
</svg>