<?xml version="1.0" encoding="utf-8"?>
<svg version="1.1" xmlns:xlink="http://www.w3.org/1999/xlink" width="10px" height="73px" preserveAspectRatio="xMidYMin meet" viewBox="313 166  8 73" xmlns="http://www.w3.org/2000/svg">
  <path d="M 898.5 152  L 898.5 234.5  L 866 234.5  A 3 3 0 0 0 863 231.5 A 3 3 0 0 0 860 234.5 L 317.5 234.5  L 317.5 171.5  L 308.5 171.5  " stroke-width="1" stroke-dasharray="3,1" stroke="#00ffff" fill="none" />
  <path d="M 898.5 151  A 3 3 0 0 0 895.5 154 A 3 3 0 0 0 898.5 157 A 3 3 0 0 0 901.5 154 A 3 3 0 0 0 898.5 151 Z M 310.5 168.5  A 3 3 0 0 0 307.5 171.5 A 3 3 0 0 0 310.5 174.5 A 3 3 0 0 0 313.5 171.5 A 3 3 0 0 0 310.5 168.5 Z " fill-rule="nonzero" fill="#00ffff" stroke="none" />
</svg>