<?xml version="1.0" encoding="utf-8"?>
<svg version="1.1" xmlns:xlink="http://www.w3.org/1999/xlink" width="10px" height="26px" preserveAspectRatio="xMidYMin meet" viewBox="1093 439  8 26" xmlns="http://www.w3.org/2000/svg">
  <path d="M 1097.5 440  L 1097.5 460.5  L 1082.5 460.5  L 1082.5 363  A 3 3 0 0 0 1085.5 360 A 3 3 0 0 0 1082.5 357 L 1082.5 264  A 3 3 0 0 0 1085.5 261 A 3 3 0 0 0 1082.5 258 L 1082.5 68.5  L 457.5 68.5  L 457.5 77  A 3 3 0 0 1 460.5 80 A 3 3 0 0 1 457.5 83 L 457.5 93.5  L 367.5 93.5  L 367.5 91  " stroke-width="1" stroke-dasharray="3,1" stroke="#00ffff" fill="none" />
  <path d="M 1097.5 439  A 3 3 0 0 0 1094.5 442 A 3 3 0 0 0 1097.5 445 A 3 3 0 0 0 1100.5 442 A 3 3 0 0 0 1097.5 439 Z M 367.5 90  A 3 3 0 0 0 364.5 93 A 3 3 0 0 0 367.5 96 A 3 3 0 0 0 370.5 93 A 3 3 0 0 0 367.5 90 Z " fill-rule="nonzero" fill="#00ffff" stroke="none" />
</svg>