<?xml version="1.0" encoding="utf-8"?>
<svg version="1.1" xmlns:xlink="http://www.w3.org/1999/xlink" width="18px" height="18px" preserveAspectRatio="xMinYMid meet" viewBox="264 109  18 16" xmlns="http://www.w3.org/2000/svg">
  <path d="M 1099.5 607  L 1099.5 651.5  L 528.5 651.5  L 528.5 575  A 3 3 0 0 0 531.5 572 A 3 3 0 0 0 528.5 569 L 528.5 264  A 3 3 0 0 0 531.5 261 A 3 3 0 0 0 528.5 258 L 528.5 131.5  L 273.5 131.5  L 273.5 115  " stroke-width="1" stroke-dasharray="3,1" stroke="#00ffff" fill="none" />
  <path d="M 1099.5 606  A 3 3 0 0 0 1096.5 609 A 3 3 0 0 0 1099.5 612 A 3 3 0 0 0 1102.5 609 A 3 3 0 0 0 1099.5 606 Z M 273.5 114  A 3 3 0 0 0 270.5 117 A 3 3 0 0 0 273.5 120 A 3 3 0 0 0 276.5 117 A 3 3 0 0 0 273.5 114 Z " fill-rule="nonzero" fill="#00ffff" stroke="none" />
</svg>