<?xml version="1.0" encoding="utf-8"?>
<svg version="1.1" xmlns:xlink="http://www.w3.org/1999/xlink" width="18px" height="18px" preserveAspectRatio="xMinYMid meet" viewBox="58 346  18 16" xmlns="http://www.w3.org/2000/svg">
  <path d="M 1097.5 528  L 1097.5 572.5  L 50.5 572.5  L 50.5 354.5  L 69.5 354.5  " stroke-width="1" stroke-dasharray="3,1" stroke="#00ffff" fill="none" />
  <path d="M 1097.5 527  A 3 3 0 0 0 1094.5 530 A 3 3 0 0 0 1097.5 533 A 3 3 0 0 0 1100.5 530 A 3 3 0 0 0 1097.5 527 Z M 67.5 351.5  A 3 3 0 0 0 64.5 354.5 A 3 3 0 0 0 67.5 357.5 A 3 3 0 0 0 70.5 354.5 A 3 3 0 0 0 67.5 351.5 Z " fill-rule="nonzero" fill="#00ffff" stroke="none" />
</svg>