<?xml version="1.0" encoding="utf-8"?>
<svg version="1.1" xmlns:xlink="http://www.w3.org/1999/xlink" width="10px" height="290px" preserveAspectRatio="xMidYMin meet" viewBox="1066 75  8 290" xmlns="http://www.w3.org/2000/svg">
  <path d="M 1097.5 356  L 1097.5 360.5  L 1070.5 360.5  L 1070.5 80.5  L 83.5 80.5  L 83.5 117  " stroke-width="1" stroke-dasharray="3,1" stroke="#00ffff" fill="none" />
  <path d="M 1097.5 355  A 3 3 0 0 0 1094.5 358 A 3 3 0 0 0 1097.5 361 A 3 3 0 0 0 1100.5 358 A 3 3 0 0 0 1097.5 355 Z M 83.5 112  A 3 3 0 0 0 80.5 115 A 3 3 0 0 0 83.5 118 A 3 3 0 0 0 86.5 115 A 3 3 0 0 0 83.5 112 Z " fill-rule="nonzero" fill="#00ffff" stroke="none" />
</svg>