<?xml version="1.0" encoding="utf-8"?>
<svg version="1.1" xmlns:xlink="http://www.w3.org/1999/xlink" width="10px" height="24px" preserveAspectRatio="xMidYMin meet" viewBox="555 421  8 24" xmlns="http://www.w3.org/2000/svg">
  <path d="M 898.5 58  L 898.5 90.5  L 863.5 90.5  L 863.5 440.5  L 559.5 440.5  L 559.5 422  " stroke-width="1" stroke-dasharray="3,1" stroke="#00ffff" fill="none" />
  <path d="M 898.5 57  A 3 3 0 0 0 895.5 60 A 3 3 0 0 0 898.5 63 A 3 3 0 0 0 901.5 60 A 3 3 0 0 0 898.5 57 Z M 559.5 421  A 3 3 0 0 0 556.5 424 A 3 3 0 0 0 559.5 427 A 3 3 0 0 0 562.5 424 A 3 3 0 0 0 559.5 421 Z " fill-rule="nonzero" fill="#00ffff" stroke="none" />
</svg>